<mxfile host="app.diagrams.net" agent="Mozilla/5.0 (Windows NT 10.0; Win64; x64) AppleWebKit/537.36 (KHTML, like Gecko) Chrome/131.0.0.0 Safari/537.36" version="25.0.3">
  <diagram name="第 1 页" id="FlLiHM7ly0eZfNYXvO9d">
    <mxGraphModel dx="1302" dy="711" grid="1" gridSize="10" guides="1" tooltips="1" connect="1" arrows="1" fold="1" page="1" pageScale="1" pageWidth="827" pageHeight="1169" math="0" shadow="0">
      <root>
        <mxCell id="0" />
        <mxCell id="1" parent="0" />
        <mxCell id="SrGXdIxv8m8EbybLDBXi-1" value="" style="rounded=0;whiteSpace=wrap;html=1;" vertex="1" parent="1">
          <mxGeometry x="110" y="100" width="540" height="260" as="geometry" />
        </mxCell>
        <mxCell id="SrGXdIxv8m8EbybLDBXi-4" value="&lt;font style=&quot;font-size: 16px;&quot;&gt;Thread每个线程对象&lt;/font&gt;" style="text;html=1;align=center;verticalAlign=middle;resizable=0;points=[];autosize=1;strokeColor=none;fillColor=none;" vertex="1" parent="1">
          <mxGeometry x="300" y="70" width="170" height="30" as="geometry" />
        </mxCell>
        <mxCell id="SrGXdIxv8m8EbybLDBXi-5" value="&lt;font style=&quot;font-size: 16px;&quot;&gt;ThreadLocalMap&amp;nbsp;&lt;/font&gt;" style="rounded=1;whiteSpace=wrap;html=1;fillColor=#dae8fc;strokeColor=#6c8ebf;" vertex="1" parent="1">
          <mxGeometry x="130" y="140" width="170" height="40" as="geometry" />
        </mxCell>
        <mxCell id="SrGXdIxv8m8EbybLDBXi-6" value="" style="shape=cylinder3;whiteSpace=wrap;html=1;boundedLbl=1;backgroundOutline=1;size=15;" vertex="1" parent="1">
          <mxGeometry x="320" y="200" width="210" height="140" as="geometry" />
        </mxCell>
        <mxCell id="SrGXdIxv8m8EbybLDBXi-8" value="&lt;font style=&quot;font-size: 16px;&quot;&gt;Entry[]&lt;/font&gt;" style="text;html=1;align=center;verticalAlign=middle;resizable=0;points=[];autosize=1;strokeColor=none;fillColor=none;" vertex="1" parent="1">
          <mxGeometry x="390" y="200" width="70" height="30" as="geometry" />
        </mxCell>
        <mxCell id="SrGXdIxv8m8EbybLDBXi-9" value="&amp;lt;ThreadLocal1对象引用， value1&amp;gt;" style="text;html=1;align=center;verticalAlign=middle;resizable=0;points=[];autosize=1;strokeColor=none;fillColor=none;" vertex="1" parent="1">
          <mxGeometry x="320" y="230" width="210" height="30" as="geometry" />
        </mxCell>
        <mxCell id="SrGXdIxv8m8EbybLDBXi-10" value="&amp;lt;ThreadLocal2对象引用， value2&amp;gt;" style="text;html=1;align=center;verticalAlign=middle;resizable=0;points=[];autosize=1;strokeColor=none;fillColor=none;" vertex="1" parent="1">
          <mxGeometry x="320" y="255" width="210" height="30" as="geometry" />
        </mxCell>
        <mxCell id="SrGXdIxv8m8EbybLDBXi-11" value="&amp;lt;ThreadLocal3对象引用， value3&amp;gt;" style="text;html=1;align=center;verticalAlign=middle;resizable=0;points=[];autosize=1;strokeColor=none;fillColor=none;" vertex="1" parent="1">
          <mxGeometry x="320" y="285" width="210" height="30" as="geometry" />
        </mxCell>
        <mxCell id="SrGXdIxv8m8EbybLDBXi-12" style="edgeStyle=orthogonalEdgeStyle;rounded=0;orthogonalLoop=1;jettySize=auto;html=1;entryX=0;entryY=0.922;entryDx=0;entryDy=0;entryPerimeter=0;exitX=0.5;exitY=1;exitDx=0;exitDy=0;curved=1;" edge="1" parent="1" source="SrGXdIxv8m8EbybLDBXi-5" target="SrGXdIxv8m8EbybLDBXi-10">
          <mxGeometry relative="1" as="geometry" />
        </mxCell>
        <mxCell id="SrGXdIxv8m8EbybLDBXi-13" value="" style="rounded=0;whiteSpace=wrap;html=1;" vertex="1" parent="1">
          <mxGeometry x="40" y="440" width="360" height="170" as="geometry" />
        </mxCell>
        <mxCell id="SrGXdIxv8m8EbybLDBXi-14" value="&lt;font style=&quot;font-size: 15px;&quot;&gt;ThreadLocal&lt;/font&gt;" style="text;html=1;align=center;verticalAlign=middle;resizable=0;points=[];autosize=1;strokeColor=none;fillColor=none;" vertex="1" parent="1">
          <mxGeometry x="180" y="410" width="110" height="30" as="geometry" />
        </mxCell>
        <mxCell id="SrGXdIxv8m8EbybLDBXi-15" style="edgeStyle=orthogonalEdgeStyle;rounded=0;orthogonalLoop=1;jettySize=auto;html=1;entryX=0.505;entryY=0.9;entryDx=0;entryDy=0;entryPerimeter=0;curved=1;" edge="1" parent="1" source="SrGXdIxv8m8EbybLDBXi-14" target="SrGXdIxv8m8EbybLDBXi-11">
          <mxGeometry relative="1" as="geometry" />
        </mxCell>
        <mxCell id="SrGXdIxv8m8EbybLDBXi-16" value="&lt;div style=&quot;background-color: rgb(30, 31, 34);&quot;&gt;&lt;pre style=&quot;&quot;&gt;&lt;span style=&quot;color: rgb(199, 125, 187); font-family: &amp;quot;JetBrains Mono&amp;quot;, monospace;&quot;&gt;&lt;font style=&quot;font-size: 16px;&quot;&gt;threadLocalHashCode = &lt;/font&gt;&lt;/span&gt;&lt;font face=&quot;JetBrains Mono, monospace&quot; color=&quot;#c77dbb&quot;&gt;&lt;span style=&quot;font-size: 16px;&quot;&gt;nextHashCode()&lt;/span&gt;&lt;/font&gt;&lt;span style=&quot;color: rgb(188, 190, 196); font-family: &amp;quot;JetBrains Mono&amp;quot;, monospace;&quot;&gt; 唯一存在&lt;/span&gt;&lt;/pre&gt;&lt;/div&gt;" style="text;whiteSpace=wrap;html=1;" vertex="1" parent="1">
          <mxGeometry x="50" y="460" width="350" height="70" as="geometry" />
        </mxCell>
        <mxCell id="SrGXdIxv8m8EbybLDBXi-18" value="&lt;div style=&quot;background-color:#1e1f22;color:#bcbec4&quot;&gt;&lt;pre style=&quot;font-family: &amp;quot;JetBrains Mono&amp;quot;, monospace;&quot;&gt;&lt;span style=&quot;color: rgb(199, 125, 187);&quot;&gt;&lt;font style=&quot;font-size: 16px;&quot;&gt;get()&lt;/font&gt;&lt;/span&gt;&lt;/pre&gt;&lt;/div&gt;" style="text;whiteSpace=wrap;html=1;" vertex="1" parent="1">
          <mxGeometry x="60" y="530" width="100" height="70" as="geometry" />
        </mxCell>
        <mxCell id="SrGXdIxv8m8EbybLDBXi-22" style="edgeStyle=orthogonalEdgeStyle;rounded=0;orthogonalLoop=1;jettySize=auto;html=1;entryX=0.5;entryY=0;entryDx=0;entryDy=0;curved=1;exitX=0.25;exitY=1;exitDx=0;exitDy=0;" edge="1" parent="1" source="SrGXdIxv8m8EbybLDBXi-19" target="SrGXdIxv8m8EbybLDBXi-21">
          <mxGeometry relative="1" as="geometry">
            <Array as="points">
              <mxPoint x="240" y="625" />
              <mxPoint x="260" y="625" />
              <mxPoint x="260" y="750" />
              <mxPoint x="245" y="750" />
            </Array>
          </mxGeometry>
        </mxCell>
        <mxCell id="SrGXdIxv8m8EbybLDBXi-19" value="&lt;div style=&quot;background-color:#1e1f22;color:#bcbec4&quot;&gt;&lt;pre style=&quot;font-family: &amp;quot;JetBrains Mono&amp;quot;, monospace;&quot;&gt;&lt;span style=&quot;color: rgb(199, 125, 187);&quot;&gt;&lt;font style=&quot;font-size: 16px;&quot;&gt;set()&lt;/font&gt;&lt;/span&gt;&lt;/pre&gt;&lt;/div&gt;" style="text;whiteSpace=wrap;html=1;" vertex="1" parent="1">
          <mxGeometry x="210" y="540" width="120" height="70" as="geometry" />
        </mxCell>
        <mxCell id="SrGXdIxv8m8EbybLDBXi-21" value="" style="shape=image;verticalLabelPosition=bottom;labelBackgroundColor=default;verticalAlign=top;aspect=fixed;imageAspect=0;image=data:image/png,iVBORw0KGgoAAAANSUhEUgAAA3gAAAECCAIAAAAjKuKXAAAgAElEQVR4Aex9h1cUSfTu+yfe77x33pke6CFLRqLkIDlJRiRJEIkiBoIBEQEVA7qIKCIICDoIShKGMY1ZF1dccXUX15zTIgYk1GO4TNH2AGJGLU4dTnV1ddWtrxv665vqf1Fc+nOKobOZobPZ54xAriUIEAQIAgQBggBBgCBAEPgpEfhfP+WqyKIIAgQBggBBgCBAECAIEAS+OwKEaH6WQve73z8iAEGAIEAQIAgQBAgCBIFJiwAhmoRoEgQIAgQBggBBgCBAECAIfBUECNH8KrBO2g8LIhhBgCBAECAIEAQIAgSBb4YAIZqEaBIECAIEAYIAQYAgQBAgCHwVBAjR/CqwfrMPBTIRQYAg8JMhoKyi+gkronkKaupa0hcqKKqoqmnSPHnpU5O8RUtbd5JLSMQjCBAEJoIAIZqEaBIECAIEgcmCgMoU9devX585c5Yrw5vIf3DcJzEx6e3bt/EJibgFKr/lb0EI+c+cRXHppAWL6usb1DW0WX1Yh8oqah6e3jRPQUlZVWeq/jhlIpzYfYbn48eP8/I2s2YZ/7Cxsenx48cTGZ81jqqaZkZGpoysHKv9RzlU19BOSUlLTk6d5AK7unmkpKT5+PpPZjk1tXRSUtIWLU6ZzEL+CrIRojlZXjC/wtNG1kgQIAiMj0BiYhJCaPfuyvG7sc7K0vKdnZ2vXr3SmarPOrVmbS5CKDhkNsWl05Ys6+3tu3//AZMf6EzVnxkQuHBRcl7e5gN19Z3Xrw8MDCCEfHz9lyxdjsb9yc5ezZpO+tDbxw8hVFRULH1qnJaUlDSE0Nrcdaw+obPD74z2s3HjJui5Y8dOhFBxcQkwdWUVtXPnzk+kJCYm4blMzSw6Pv6nvHw3HoFVsbKenp6eMX4JDAymuLTNdDuEUF9fH2uEyXaYn1+AENrLr8aC2Uy3S0/PiI1LwC3fvWJn74QQ6unp+e6S/OICEKJJiCZBgCBAEPgOCOhM1V+ydDmrtLdfQghVVlax2qUPU1OX4LfXnKjoUWkZxaVXrFiJEIqIjILOnl4+jx8/7u3tMzE1h5bYuAQmmezo6NixY2fSgkX6BkZANLdtL0pJSWMVUJR+QaIpJ69kamaBi6XV9IcPH9bV1eMWUzMLTS2dmJi4QQXttWt/nzp9GkpHRwdCqKSkFJajrKJ6+fJlhNDm3/IpLq2qpokQunvv3vHjJ8Yq58//jhBaszYX4wls77///rt69Rqz3L59GyH09OkzZuPVq9euXfsbIXT8+Ak8Aqsyf/4CJsij1mtqan9oorlwUTJCqL39Emvt3/HwGxNNOXklnpzid1zvpJ2aEM3v8IKZtE8DEYwgQBD4Zgi4unmMSjgm2Ij1NFwZ3p9/Xn748KGS8ijOncnJqYPcKDY2Hq9LV8+QqXZSmaIeEhpmZT09KDgUITQnKhr3BKLp7eOHW3DFydkVIcQkmsoqqkbTTKULUMOqPXulTxlNM9XU0oExgduNv/bCwm0wGlPILVu2DlLJ8Ig5WDZ9A6MHDx4ghJYsXQ5Es7BwGz47RVXj+PET8xLn4xajaaajEs2y8grcByoent4IobxNbDcAmic/PtF0dHLJzy/A5ezZcwih27dv45b8/IKYmDhCNFmAf+bhtySatfsPdHd3m5pZfKbMP+XlhGgSokkQIAgQBL4DAsoqqk7Orsxy7tx5hFDmqixm41h1RycXeCeBOjNpwSKKS+sbGIVHzGF6KMYnJCKEFienTDM28/b2i09IXL167a6ycqHw0L59Ncy3Gti4mRzuo4gmTDQ+U5Q+i22vqmqaMTFxMTFx2dmroYJ/FxeXLFyUHBMTZ+/gxCKaU1Q1Xr582dnZyVwyxaUdHJ2PHz+hraMnTTQ1tXQQQuvXb8Rr/wZEE88FFfBnOHL0KKudEE1pQD6n5VsSTXi2CdEc9X4RovkdXjCj3gnSSBAgCPzKCMzw8Bp0prxx4yYrQjwiMopJ/lgQKauoDfpcXrnylywtjivfvbsSIVRQUJi5Kqu4uORgc8v16/9K07v+/v579+63tAiYo30RonnixMnCwm3M0tIiQAidP/87s7GwcNuevXyWkx/FpdPTM3p7++wdnLBgqmqa//33361bt8AoySKamauyEEILFi7G/VkVTDT19A0P1NUfqKs/2NyCELp69RocxsYlEKLJAm0ih9I+mr+46ZwQzXEeG0I0CdGUQkDFxNHRTI6SHee5+aFPcVQsHe0NFbhfYIEcipaVU5T9ebH6oW/0DyS8jKwceGcmJS1kiX3//oPHjx+zGvFh4bbtCKFZs8RxJBaWNv39/RcvtmPl4rNnz2/dugU8Lzt7dWxcgoent4GhMZPLJiYmAQWsq6tHCLW2CuHQ1XUGaDTfvn37Surn7du3LNM5TLpk6XIsG1TSliwblQtaWNpIE01TM4t3795duvQnlnDDhjyEUEZGJozGJJo8OcUHQz9y8kqDJFtRaYqFpQ0UA0Nj6I+JpoGhMfh0gkfmnTt34HBxcspYRLO6eh8r4j4sLAICm1jt+gZG45vOWZhMUKNpbm5Vuqvsjz8unj17rqR0l56+IXOcpKSFRUXFAQFBSsqq69ZvOH78RHFxCe6graO3dWvh77+3XbzYvpdfHR0dK53HwNDIZOPGTQebW/788/LJk6dKSkoNjUzwCMxKSGhYU9PBjo6OtgsXCgoKNbV0PploKimrLlm6vLlF8Oefly9fvtzSIkiYN19aNpjd29uvvHx3W1vbX39dPXny1MaNm5g5E1xdZ+zcWXL4yNGOjo5Dhw7nrlvP8h6ZoEbTfYbnnr38c+fOd3R0HDl6NDt7NUtBrqg0Zc2a3NNnzly+fHn/gbq0Jcvw86kyRb2oqLioqBiI5l5+NRxq6+gxAfzF6z8D0eRQPJ7sFyANX/ZRmJxSjb9GDlfTPj6vovGYYHuc+s9LnjhGSaXCY/t3rQ2zHMWnbXyI8FkOV99j8ZayOmGLcEeY2qR7/LCcpPJDIJCUtBAh1HHlCn6BYbHHIZp6+oZ9fX3d3d0lJaVVVXuuXPmrr0+sDlSZom5uYa2oNIXi0vYO4sBbiIzBYzIrFRW7799/cP/+gzdv3iCEXrx4AYexcQlANOvq6lnKyMLCbTU1tRMkmtuLdgwuTdrRc1SiSXFpCDOC/D6aWjrd3a86OjowLEyiCRE2mauyYDngQAnv+1OnT0MjJpp4yRM3ncNQE/89TjAQnh0qEyGaPr7+r169Qgi9e/cOZHj27LmxiRkeqrGxCSLADh85Ch06OzvhrI+v/6NHjwa9VPv7+7u7xYMghPYfqKN5Cvjy8Ig5/f39cKqrqwsqr1+/dnFxx30oLs2TUywuLoGzCKHe3l4Irqras5f1nTARjaaDo/O9e/dhtN7eXshvgBA6cvQoK2GCgqLK/gN1eN6enh6oe3h6g3jwiQWNWP6bN2+pTFHH8n+QaHJlePB8IoS6u7vh8wkhhJ83iktbWk2/evUaTPTy5UuonD17DtyLdabqQwvrt4WlDRaDVL4z0bQNmN2W6eIyGqexmhlyYV0slLYcd+/R+lBcmkOpJiRFta0OTtGdRC/7CUrFsfE4nxuYpP4tJOdQispem428ZnDHRFLdJZ1/sLV+8wJ/Y7XhLHQc3fD/ad77Py18Vvnfm2Zyxhjni/xRmS3itx46DkXQtMbti87FoRTULIOTi5oETWUJ1mJdyCcUzfBtTa0H1sUHOjtaatDf4g5+gpDkkh8CAZUp6o8fPx6M2J3h4SUt8DhEk+YpdHd39/b2PX78+MWLF2A0Z42gp2+IEJLOvCMjK6dvYKSqpon7Q7A200xv7+C0MjPLwGAa7oMrOlP1V2ZmubrOwC1jaTRPnDiJEJIehEU0Xd085kRFz4mKnj9/wcmTp2Jj4+dERVdX70MIbd1aCKfCwiIw0ZSRlbt27e/+/n4trakgg7aO3vz5C+bPX/Do0SNpomltY+vq5uHq5hEYGAxx/XDo6uZhbWM7ajDQH39cXLM2l1nAM+H0mTPMxjVrc9et3/BlNZoIoSdPnxZu266lrUvz5GfNCn7+/DlCqKpqDwYciOb58793d79KW7LMfYYn3DsTU/Oenp6BgYE1a3OVlFW5MjwnZ9d//70xmDUpbckyfPnCRclXr14LC4sAALW0ph47JkIInTt3HvehuHTuuvWDPr5v375dtDhFTV2L5in4+s28ceMm8CrsYktx6Q8STT19wydPnyKE2i5ccHZx48kpKquoBgWH3r8vjtxiOnJwZXgHhvTrr1+/TluyTGeqPleGZ2AwLXfdeuxWUVNTKxC0us/wVFYRr9HW1uHu3busUK0PEk0IgOvq6vLy8qW4NFeGZ2xilp9fgImmsooqMOOqqj3ALKcZm0EsV0npLiDi8CABIFFzY+BQQVGFCeMvXp+8RFNJc6q3hYG3hUH0nNnjEk2VufERZ7MCkiYX0ZyQVN+WaKrpZnZ7ZaaNRTTlXLOrha35UaZMQzBHTvf/uToPlYj/s3/v/2QHDx9a6nxVoqlo6Ozm7unm7hmaXfPFiSb8zXPkrBJ3Hm6pSDX7JBu63bJ6AX+pxRdlwL/4P6Nfc/kysnLAGKqr942KwDhEE+zFXBmeotKUGzdu3rp1C7SYzHF4cooIIZHo+MyAwNTUJYXbtre0CK5evQbKGwghori0lfV0eFNiojnN2CwkNOyDBRupRyWahkYmoLVam7uOZR5lEU0gFiy1EOuwq6sLE81Bn1RImXny5CllFTXmkjs7O6WJJgRasQaEw/DwSBbRBDXwjh07mcNSXPqTo85Z43xQo4kQ2rOXz7wqIyNzMCfAgwcPcCM8NgihgIAg3EhxaYGgFSH0W/4WZiM44D59+gx8eSkuPVXXANMp6GlpJX4GBgYG5BWUoUVLWxcUopFz5jJHMzE1B/33RxHN8vLd4B3LygFkZm7Z19eHEIJMohSXnhkQCLfGfYYnc15mXfrTJTV1CXiJ4G4fJJrgAFBXV48vYVU2/5YP/iTMp1ffwKinp6evr4/pzAACk2AgFoBwOAmI5kpn53Hf1qY+QeMQzVFX9aM0Th6iyaFUA/MOCSrHZF0cyu7/7tv7P0kjhptvA7LRvMqvRDQpLk07ruQLmzPcR8xJE1+U+SK+oC7LftxHd+KjkZ6/LALr12+EVxSkCtqxYyfLHxLOshqb34/jKSzcxiQcrm4ey9NXiN3XDh+RDgZ68ODB6TNnKiursrNXW9vYAvJ5eZthovr6Bsh2DnZzaBzn98JFyTDCqEQT7JLPnom1cZWVVUzTLYto6kzVZ6bMHLVubGKGiSZMCoytsbGJyQNGJZpm5pZ29k6jFiBYzDyabu7izFMFBYWsx/JbEk1bO0fm7KB2RQiBQyrFpYFotrdfYq7d0MgELOZMX0bQ1QE1lOZneBZ1DW0gfOYW1tAIafP/+usqcwo41dDQ+FGmc1laHuzOLM4Ko9XXNzC5NRjNIbEoFm/8CleGN3vIg/bRo0e45weJZlZ2DkLo4cOH5uZW+CpcoXnDMru6eeBGqPzxx0XsGw0t8DdCiCYLKDj8AkQTzN9BFg5lyyJP50TUz3PyVx/ZPM0lJKwt3clW8j7mWLifyg1J0Rk2NYqvzXCeaeFQunTO6Zzw+gRHX3W2HXMsojnE0mKGbeurXKWtq6r6ZmvmBbdmRZ1aNZsfY+fNkGpULKCRI2u4JTvmcKguhWWW1d+wKkYoaeFQtLqR1cYFIYeyo46vCNk129xKYcRyOr5UHIpnYu9csSzyVE7kgTgbJ8cZ5yZsOudQOqpB+xy23PUo7/Ysve2cWaKlP5IblkPRtFm6efYVt5LnHts7bBMWKcoNS8Wx2eW+u9u78hWzeO3usnRhiE25ragX7UlzGAuZTyCaHJ5vToOoernLCJL0jIw6EX+ZM7RwKCXTkBV5u+r2HzxUX7uvMCfRXpN998cimnZL6wT85Zb4Hrnn1Av3JhhLlkzRqtZzM7by+Q2H6vfzNy0NNWLcI7xGDndGRr2oYtGnONNozd0paN3sO/mcg/HqSGXyIxA1NwZzOCCaiYlJe/nVzPLmzZu3b98yW/byqzNWrsKrc5/h2d/fz8xVVFJSCsM+fPjwzJmzjx8/7u/vnxsda2vrANEStnaOOIElsJCbN291XLky+O7s7OwEzz8NTW2b6XbM8vz583v37jNbbKbbYUIjTTTj4uchhF6+fAkR3+CKh13oWEQTL2f8CotocmV4tfsPiPNohkfiC5lEU01dCyEEeTTl5JXkFZRZheLS0sFAPr7+YiOs1LaZ35JoYrUirEtdQxvuKfZlBKLJSvYJ2tnXr183NjaxyuvXr1nOsoMKy6SkhXv28tva2uBjAKawsx+O+gc/yMrKKowtrnxsMJCZuSUMrm9ghAfBldWr14JJHVru3Lkz6DSJ1e24G6tiaTU9IyOzoaGxo6MD/FkRQl1dXbjbB4nmVF2Dp0+fATXfy69m0U14RAcdPw4ebGaBCS6wzNA3WB0hmhh8ZuULEc1VIXviXRLsjIJdHcpXxpxdZGMoYQAfJporQ6oSRq49t9DaQHItCDom0VTW8ByyrcfNDWuTIpocNbPS7JhjC53n2RsFOtpuXRp9bomTwwR86TgUPTNqTluGs6NEDK6Z67Hc8GxjCQfSsKpcHd06zzHG1ijU3akqM+Z4nKmGpDNnXKlk9Rwa1ka3xNlH2RqFeboVJ4ecnTDRpBz57rsf2Mcv1XSM0HDPNN/41PO3AiU8r1a6fWmXa+Y2Xfd4rcAS+x3d7mnx9NBZjoqLhkuMpkui2fpur/W7tMT1GE2XucoM31AOL3iDULQ1Spf5cDDrn0I0KQXPHIFg3wobiW2a67yqVlifaj+MJM9jzX5h/ebFc/28fDyD4lftaq0viJ4qWRHM/mlEk9Kdu6XpKD9/yWy/mX5RK7bWiWrWBqi+P/KQg69pYpmoPmvYu5y53g/WFUK2CISFwUojZP2Dl5AOBAEmAvYOTqBkgkQ/zOTnzG7jm8519QwfPnz47Nlznan6ZuaWs8MisrNXu7p52No64I3Cd+4UB3M4ObvCsIN6wSdPn965cwdbnCETZ3p6BqR2P33mzKhx4o8fP75x4yZTNmadRTT9/AMgigVSo9M8+X37asQBTx0dYHCUJprKKqolJaVjFW9vcd54FtGE1KG9vX3MnJRMognx4Lnr1lNcWtp6DknvpYkmuO61tgpZ+yGB5vjwkaOsdois/7LBQExsKS6trKI6KtFct34Ds+e8xPnQbazfmJHHxsaDirG/v/+ff/5pbRUWFRVDzA0mms1Dqak2bMhjTgH1vE1iFfjETeeurjNAJGy7Z44JwXBXr16DRvi78PWbyezDrHNleIWF28Ar482bN5cu/Vlf38Dniz16P4poDnoaTDM2A2cDcBs42NyClb4uLu5jwQjtTC04tBCiybxNuP6FiGauf6zy8BtX2cnnfO7MeJXhww8TzbGvBSnHIpp4DVYzQ6SJpoFnQNtqn9kSPRbX0EmQG7nGbEK0gGc942Ru2EpDcWcOJesaGt6WMWLft/ALaVvl7iPhrCqO3mcZ6x1fKkv/kLbsGfhaM9+gtgkTTcXIS17Fe9QwW9Lx0XTxk5OIoTTnT68d1Rq84QXSXgLPitN6TCpJjeejyVEM3yQU5UeMRAbghUDlE4im2FHaK7deeGCxDSBJ2y+rF9SstMO8U0FdTU1Flisnp6iioKiiHLy5pXVr0PvU7dOIpsn8PYK6tW4Sna5KUH5j684ILfbd51AGcSWippxRNj5hLV8CAi0rJxZVRcsiaG3dwV0LjfHt+KSIolFnIY2/CAJAvFavXgv+c59GNEGt9erVKxyWO/j6n6KqwcQQyAdEZ+vqGYLOEuee5Mkp3rx56/LlyziPppa27ukzZ1imW4pLT5BoKiiqbN1aCBHNwPBAGFlaHkKV7927P93WXppoQjz4q1evIOwd/4YIEtAeSRNNikv/+eflp0+f4SVjoqkzVR/MqXDtuXPnb968BQFD8+cvOHHi5FhEcyI7RkpTkO9CNJlch+LS/jNnIYQePXqkqqY5agHvBVMzC3hg0tMz8PcGxaXBIxMTTcgtwMyahEHeVVb+UUQTm/6n6hrgQXAlJ2cN070SoshhqyTch1kBZfnTp8+CQ2ZjfwxHJ5dPIJowrJ29U319AzDXp0+fQXIiCKSDULZRwWRqnQnRZN4gVv0LEc1MF+xnyTF2PpobtkJ/+KX+YaLJvnZ2uuRakPXTiKbb7Ii2pQ4jplVKlitLjxUHwwIFrOcHA7SGiKZO9oqYQxK7ufgvOWpu22IbPQnD4Og7NOeGZxmxScyo9NcrIrItzd5Mci1l+xFR51wnvvvu+w7zc3VnRKma2dESTgnCayQ/91qzVk5BjQvFvMBl921TyxGpON+DaIL1fPdisR8Yh3JIrRbxlzEs6YpWYdnlNS3HRgLMheXR7wd1fRrR9Mw5JNiRqDfEXxUUVRRsUiuEDal2I2gAaB9PNMXEtPXQcYFQWLUlxVlNouQmLJMg8PEIGBhM+y1/C1eG9zlEc1dZeW9v79Wr1xoaGjdu3BQbG49ZAv63Bn57h48ctbVzhBBanJYScqQP5tBJSUnDRBNfePrMmU7GT39/f29vH6Oh8/CRkb1tQKO5Y8fOzuvXBwOc+/r6mLuxw5gysnIQEfLy5UswTzNVYkA0mdtFwlWw3eU4RPPUqdO9vb3YjxCIpvsMz4cPH0KcOFCWc+fOt124gFdXUlI6FtEEx9nl6StYPp2geKusrGK1g4STgWhOMzYDxqOhqY1XKl0B7TVTDUxxaS1tXbgWP0KQxPTUqeFcUcxx2traPopoyisoA7UNnR3OHAfq4JSJN6xvu3ABOzxId6a4NKhaWd9mc6NjP5lowixW1tMh/0NOzhqmY+uo6SBYggF0ZuaWrHZySHHpL0Y0cYoijrHzkdywDIOPIJpjXQt36NOIpkdYZNtSh08LCh62ng9dzjFwFOSG52C7OZcOio5uW2StKyGLHD2H5tzI1aZsEjMq0fSOmNOWZm+Kr/2Y9EZDPppVtrl/uZW88K585VX6j3WgG3Z/1ErrYrpgijvsvm82pEoEGD9ENMPyvoJGkwPW88pUE0qWY71kj7AhzWGYnHEoOftldYLmvRmR3g72znb2znYJhc1fiGj6rD2KyetwjiThwaVO7HvEoQzjS0WNOeLEFhMpHEpBy1wsqqP77JSiltoNodhlYiKXkz4EgVER+ByiqayixoodHnWK9vZLb9++7e5+9e7du8TEJDDFlpSUTre1/+uvq//88w/NU5AmmtuLdjB9Q2EEZgsztBmI5srMrPb2S//8889Y8cJcGd7OnSVZ2TljaTQ/lmjKKyhDXnpYOFeG9/TpsxcvXvT29j5//hxyTILv3cSJJqRVsrVl+6x/Mx/Nvr4+1n0cy3TO0mjK0vIQ/iUdyURxaZxzBzwsGxoambNAZAxCCBNNHP3t7OLG7OnnHwC8ivmd8MH0Rnv51QihS5f+ZFnPjU3Menv7+vv7sRId4sffvHkzVgJ5YKLMbE1cGR7c648yneOPE7w6sDNs3TocBwaM9tChw9I9MZhwLaRxYCb8wmOSyhcjmu9rNEe0ko7BYW0rnHFwLsfS7Uxu0CLN4Vc+BBK9f+2INhRuz6cRTbFGc5mDlYTSfeydHrKeh6TqyNrMDG1b6eIisfaOpdFc9fU1mngJHEqOq2qnEX/Bs+yYrsRFQazR3FCsbumvOlK85Bhm6A8QTa7/6lZRccLo20IM6SM/Mep8yHrOTzCRtVhUzbSbcyjbZL6oLttnRM3ss6FlwkTTJu2AoDod31/OjNWNwso4yeeNWKNZmu4O/HX4tz3GioGkzWK+aN/y4T2jcftEKgrBWwTCrUGKbPI6kWtJH4IAE4HPIZrMcSgura2jFxEZNTssgtluNM30wh9/IISePXuO811DBp9t24vy8jYHBoVQXFqaaDIHmbjpXEtbl2lSZA0CiiLYx4ilEpu4RnNVVnZDQ2NxccnGjZsg/hczAy8vX+BAly9fnmZs1t5+6eHDh8ASzp0739PTgzWyXV1do2o0uTK8e/fu9/b2sbaZ+ZbpjT6ZaFJcGuKB+vv78/MLIORLTl7Jydm1oaFxZeZwcnv4Kujp6QkICOLK8AbVjcnJqV1dXRB1jokmV4YHOSOfPHkSFBwqJ6+kqDQlNjZ+MM/UkydPWLcPiObt27fjExJZBZLAa2nrQrbXwT2ZbO0caZ68gqLKrFnBd+/dQwhtL9qBHxVZWv7ixXZI5xQeHqmsoiYjK2dsYra9aIeDozPFpSsrqwbTIV2//i/4RKqpa5WU7oJ4oPGJZkhoWOf16xs3boK5CgoKs7NXQ55Oikvb2jmCRjNM8hdkaTUdMKmpqTUwNObK8GievIWlTUlJ6a6ycizwIDG4du1vhNDu3ZU0T97QyITpkMDs9mvWvxDRZPpZOnozfTS13P3b1vhFSxiPkXdg2xqvEIlnoZhojn0t3BJDr8C21R6+Y1PGUXWHQ1f5hL3nozlngj6aYl41FHu+z9sgLU1sNx8hQ1za3C+Y6aOp7OB9Ntc/TuKiih+jUaX6HB9NBbfNpmGRPAkOHIsit91/G0virMU+mgXFKhJCzFGxV7XxlGOY1zmUytSMbq/Mpcw0mVhaDmU2r1zUtD54rJ0nP81HU4zkUOx5cbz3vDIRf5krVsFyKLP5FaL6tQHDEUuUnFVKtUCKaOrFlQma17lLVo0F1ojaIRBsD5VsyaMfXy4QbPaVrFfso8lPt8JoqJnZO9lNlbhs4kE46lFbWkVb5ujglolX1OcUC4T5fpIZJ34h6UkQYCHwOUSTK8Mzt7BesHDxnr18SMrNfGdPUdXYsmUrmCwHBga6urpw2ktwdoyJicNh4F+KaLJWN9bh52g0wYQNhBIhdOr0aZx5HpRwNTW1ikpTYEU4yfm5c+cfP34MOwTCb9CesoKBwA6OM3Ey5Z/8Gk3g8evXb/z8ELcAACAASURBVMS7/jx//hyokjiOW7LBKU9O8dKlPwHA//77r7dXnMZy0eIUcI7ERBO+B3CGrN7eXhiqsbGpoKBwVKKJbwqzgm3iMzy8cLL3np4eLGRzi4BF66cZm/3+u9g6Dz8QHoQQgkxD04zNuru74RTEy798+TJpwaIPms5hp/vu7legVQXCChti4bj7svIKpv4yYd58Zkg73qhpy5atzGdjefoKkAc2TyI7AzHB+UJEMzNkDyNy/Owiaxx1zlExLcmKObrQOc7WeLaH+4GcmNYIAxwrLSaaWbP3zRuJOmdeC4JyTZyP5EaW+pn4DMWYexupAhnS0NWHjO7iqPNsn4Vw1kRdeYiUcNTNd70fdX5+qbOThOAyIRi1Dtbz31ODDuRG5Ji8b1dVt6zMiW5NcJhraxTq5rQ7M+ZYjAnesHF8qWT1HRpzh6LObYxme7qVpIZNfGcg2veQZ8VNm7mp4qhz16Umq+977ajVkJAnjjjq/LnL0k26rnM1vddYbnzsuaVI5f3kO8oxf3uVnDX1jhuKOo9QkmhDAQGzBXxBS2mU/vuLldiUP51oDlnPW8oqS4UNSxxHBudQPKvF/JbWAxuSIrx9giJSthaU8ZukiCbXceU+YdPmpGD3ofztbnaGQLU5mqF59aKaohXhfjP9Y3JKG0V7Mz0VMR8VR50frli3KMTH1yskMWtXa/Pe5dbvo8GheGZJVS2CnRGSZFujPgljNZou4Avqc5zwjBKgxupP2gkCYyGAiWZV1Z729kusMvRy72M1trdf+v33Nm0dPUjOAm+4f/+9UVGxOzYuQUtb18BgWt6mzfDu/PffG7PDImJj4xFCFy+2g5YLiIKJqTmWikk0eXKKRtNMWeXp02d3795lNRpNM4VoDFbUOR52rEpEZBRryyLQaD569KjtwgVmgQ0AWT6azi5u3t5+s2YFW9vYMmkBxaVneHiB5un339sGBgbwKz8jIxOr9JhS2Uy3YyZsh4glphsr7jwW0QSqeuyYCPccvzKoHSwrr1i2PF26m56+YVl5RemuMtYpeQXlsvKKsvIKHOmVnJxaVl4RFBzK6gmHbu4eNTW1HR0df//995GjR3fuLJlua8/sqayimrtu/anTp//555+DzS0Q4r29aEdZeQUOu4b+U1Q1CgoKL15s7+zsPHZMNH/+AhlZufCIOWXlFeCGAd08PL1BQunfzLAeJWXVNWtyT50+3Xn9ekdHR01NbWBQCOsOwoCytHxq6pKjx451dna2t19qaGiMnDMXh/4YGBrvKiv/44+LHVeu7N5daWZuaWAwray8gqkZhRZMcyku7eXle+LEybS0pTCFpdX0rVsLxcJ0dp4//zufv8/Ly1daGFMzi7LyikuX/uzs7Dxx4mRV1R5vbz9WNxlZueTk1GPHRB1Xrhw82MxMHwZz/cq/vxDRzHAOsnKsWB55RiqPJsWlVfUt1s8POZwTdXxF8M4gExMG2wPTeai10+4xrh0y2io4e3sdWBl1PlecNbMt2RbyH82MisZ7VOIKM2enmoH52nkhrVlzT62aXR1rL52hc/wbP2Q9j2lb6cq0mw/JI6thZLUxCVbEzqM5vlRicuPgsnsoj2ZDgr2780cEA3G4phpRTY5bHniK82jedV2zT99iRBUnzqNpvsI8ZyiP5o5/HNI2q+uw85BzlP0M0y+773o55MF5hxkqJF6Xqnd2jaixdIWTxkgaVAzRJxNNSey5SFC7yl6iYoRhOXKmM5cXVRxobWyoK86Ntw5YI000OZS6Xfzm0trWZuFQFE7JfOwdq2IVtWIrv7pReKC6amNqoIGEcw/dI1rVJjqjkF/deKi+rmbb2sVuesObag5PTSlM9c2pEBwtS3UElSpe6QQr4gj6vUvMCdEkDPuzEcBEs6io+PjxExMsh48c5crwjh8/UVlZFZ+QiNMTuri4HzzYDLqiZ8+eZ6xchTdiKd1VhhC6ffv21q2Fr169unXrFvNlySSakIAQ+OsHf4P58oNEkyvDO3ny1LFjooaGxvr6BrCiMskWEM279+6xEADjOItofvDvFHborq3dP2pPH1//lZlZKSlpiYlJQuEh0OdRXNrO3mlgYOD169dq6uJgUFZhEk1fv5nFxSX5+QWbNv/255+XWftDsi4khwSBXxmBL0Q0P7S7z68M8Q+0dp55TN6+Iy11e3LjnRV+XgrFUXOfv5lfLzxckROqy/js+ag7pR9fJmgpW+hqpKqkNKo3wkeNRjr/yghgovlFQHBwdH737t1ff11dsHAxK16B5smvzV0HdtKBgYGQ0DDmjEyiqa6hzXKzG+cQ3NE+SDQpLg2Od5i5ikTHmXtmTtxHE++TyZSfWZel5dva2jo7O7H+j3mW4tKJiUlYDCDfkHk+eihyWTpVO1zOJJqQaxMP8vz5c6bFmTUdOSQI/MoIfCGimemCI8d/ZTR/hrWrWPolrd2SFS6d3vxnWN2QioJjMHd1fk6sl+nnkGmOomP8lromoUgg3BEmcRX9aSAiC/mWCGjr6MUnJNpMt/tSkxqbmDFVlaxhp6hq+PrNxAZlfNbE1LywcJt0qDXuMH7FaJppTEwca28V1iWaWjoGhsbTjM1MTM2lKaC8gvLCRcnScbsammLWC/si2ky3W79+o5X1dNbI0odTdQ3GEUZZRc3RycXVzcPD09vFxZ3Jd1NTl4wVzKSkrGoz3Q6SLCoqTZnh4eXt4+c/c5anl4/0cqRFIi0EgV8TAUI02caRX/M5IKv+BAQ4lILSVDMLOwuNT1WLfsKk5BKCAEGAIEAQIAj8QAh8AaL5A62WiEoQIAgQBAgCBAGCAEGAIPDNECBEk2g0CQIEAYIAQYAgQBAgCBAEvgoChGh+FVi/2YcCmYggQBAgCBAECAIEAYLApEWAEE1CNAkCBAGCAEGAIEAQIAgQBL4KAp9ONLWmGkxa+kwEIwgQBAgCBAGCAEGAIEAQ+O4IEKL5Vfj7d7+vRACCAEGAIEAQIAgQBAgC3x0BQjQJ0SQIEAQIApMCgdWr196//8Daxpb1Yjh8+Mhff11lNX73w4qK3Xfu3ME7Eo0lj4Ojc9uFC6Pu/TjWJRSXVlSaUlK6a8WKldJ9tHX0Ll5sj5wzV/oUtJhbWHd0dMTFz2N1SJg3v6Ojw83dg9U+zmFsbHx9fYOevuE4fcY55e3j13bhgp9/AKvP8vQVHR0dkDHUydk1LW3pOHlP8bU0T2Ei3XB/UiEITBIECNGcFC+YSfI0EDEIAgSB74hAfn4BQkh6g5n29kvPnj0fVbCzZ89Jb4OOWw7U1csrKI9VaJ48xaXNLayLioo/WJycXVkCNLcIEEJG00xxu7WNrTS9gw2HmPtNQ383d4+EefPxtayKqprm7du3+/v7AwKCmKe4MjyYd8eOncx2Zh32z0xPz2A2Ulx6VVY2Qkia9rG64UNTM4vu7u7e3l5XNzE3NTWz8J85a5zi6eWDr4WKSHR8YGBA+oauW78BIRQYFDK4Q++usnKEkFB4CPLA4xHk5JVMzSz8/ANSUtLKy3dfvNje09Mz3dY+PiGxc9yfxckpeBBSIQhMBgQI0SREkyBAECAIfAcEAgKC1qzNZZazZ88hhEpKdzEb16zNffjw4Zs3b1iNmauyKC4tFB66cuWvQf509eo1vEX433//jRC6fPnytWviylg/KSlpFJf2nzlrrA7M9viERPcZnuvXb8RbCrGIJleG195+aWBgIDY2nvluG5Vo2to5/vfff+PTPlfXGb29fS9evIDNIWHMhHnzEUInTpykeQrMWZj1sYhmTs4ahJC3tx+z81h1OXml9vZLCKGly5ZDn7xNm5mASNfv33/AHM3FxR0hxOfvYzZCfWVmFkIoPDyS4tJcGV5Wdk5/f/+TJ0+MTcygw4KFi5nj9/b2dly5Ul29z8nZdcnS5QihkydPHairZ5Vjx0QIoezs1dIzkhaCwHdEgBDN7/CC+Y73m0xNECAITBIEioqKmWTiY+tdXV2wkPDwSIRQTEwcXtf8+QsQQv4zZ9lMtzt1+jRCaMOGvOzs1bjs5VcjhBITkwY1ajw5RU0tHShAxWr3H8AtuCKvoMykRxSXZhFNUI6+ePGir68PKBTII000zcwtnzx5ghAqKCjEtuDQ2eH5+QWs8vfff7e1tTEb9x+oGxgYqKysYjbm5xfkrluPlz8W0Vybuw4hNMPDC/ccqyIjK1dZWYUQ2n+gDkvo4Og8f/6Cccrc6FjmgM0tgrdv3xoYTGM2Qj01dQnrlvnPnFW6qwzPZWAwrbBwW1ra0tWr1yKEoubG4EGAaHr7jEKXnZxdCdHEQJHK5EGAEE1CNAkCBIFvgoCKiaOjmRwlC//+OCqWjvaGCtzhw8nzP/GbSaKsooppHFSKi0sQQj6+/qz2jitXXrx4wWrU0NQGUcchmhSXXp6+AiEEG4XjpYER2d7BCbdQXFpNXevZs+dPnjyBkRUUVZYtT2e6J36QaFJc2tPL593Qz6xZwTA4i2gaGBrfvXsXIbS9aAfmVRSX/kza/ezZc5Up6uAAUFu7f9AD4fSZM3CoraMHlbYLFxBCdXX1LD8B1pboNE8BRrh69ZqyihoToonX7R2cEEKbNv8G/qa6eu95eSYmJmGiL0vL6xsYuc/wjI6OHUR42fJ05iyA3pyoaNxIiCaGglR+FAQI0fwmr1gumYUg8OsiwOFq2sfnVTQeE2yPU8dE0yipVHhs/661YZaqP8q/y68hp62tAx42MCikqKiYRUooLp2enrFx4ybcjVUZn2jODotACM0MCGRedfBgc29vn5y8ErMRaC4OsgkMCkEIHairx30mQjQpLh0TE4cQevv2LfgsMommlrZu5/Xr4B7AZJl4is+p6EzVH1UrbGFpM2o7bmRqBxWVpgiFhwYt7B0dHVrauhSXjoiMUlL+uEdURlaura3tydOnKlPUKS6dk7Omp6cnacEiZxe3iMio5ekrQBl8+/btu3fv9vX1YUkQQrdv32aCQIgmEw1S/0ER+FGJJkc3oVgoaj10nFUE+ZEKQ28yy8U1gv0r7SRvte91ezje65qF5dG6E1XbcCg5i6DF84Js6G8l+c+K5Pe6458/r4nfwnmhDvAY49E4SuGbR33gi+fpDD0qurG7BC0bPWUn+qThkb9shWO/Yp9w/0KrETE4lLpLOv9ga/3mBf7GanJ4Og6loGYZnFzUJGgqS7B+j/HgPj99JXLOXIQQDqCJT0h88uSJj68/c+EOjs4dHR0LFyXTPPm6unqWfZbi0kA0X7x4cf/+Ayjg/ug/cxbFpafb2g/SPmaACFeG9+jRoytX/mLOEhgYPDAwUF/fwGw8eLCZSVInSDQpLp2VndPR0QFWYybRNDYxu3HjZkXFbhnZkSeBOePH1u0dnAoLtzk6uYCzI82Tp3nyYEHOWLkKDmmeWGWob2BUVbUHfDThUN/AqKCgECHEDOKBNba1tampa1FcGoQ/febMRwm2ODkFIZSWtpTi0uoa2l1dXY8ePcpYuYpJKAcN4g8fPjxy9GhFxe41a3PnJc739vEzNjED9u/k7BoSGhYSGgbODPn5BXBoYGgMGs22tjah8BCrnDt3npjOP+pOkc7fBoEflmjKGdi4e7qJS2Jeg4i/Jnqo7ulmpcf9sYmmSmi+CNPlb/AQcH5SJL8BdF9jCg6lH7NT1LjGn3r/S4OjYGQHD7znku1CUemyQHjgXS2mghhuq5oFFcnG71/1NSQcf0yl0K0C4dYgpRGiKeeaXS1szY8ylR1NNo6cVeLOwy0VqWa/pA1dQVGlra2tt7cvICAoLCyir6+v48oVTS0dJsje3n7AHtTUtU6ePIUQamhoBGUbdAOiebC5JW/TZiitrULw0aS4tIKiSm9v366ycjymgaExQmj37krcEhQc+t9//z179lxLW1dZRc3UzMLD0ztyztzNv+UPBkdfv/4vsJ+JE02uDE9eQRnGZxJNIF5jsUydqfrjhFPjKPKly5YvWLgYBgftaXxCIl4LxaXH8tHk8/cNul1qaQ3/yVBces2aXISQ+wxPfLmGpnZLiwAs5opKU27cuIkQYkW+486jVtQ1tF+8eNHd3R0TE5cwb/6BunpwsjSaZpqcnBoUHGoz3Q4CsDZsyBt1BIpLNzY2sVgpHC5clAxEs/P6dZxbAFf++ecfQjTHgpS0f0cEflSiiSHjUC7pdaLyRda4BSo/rEbzWxNNjNtPhiRe149V4VCemY2i0nnDwafSwnOMF5QKW1e4jTC5Qf82DqUTVSRq3hDyzRTh0oJBi1VyjWDfChsJp+RQqoF5hwSV4/FI2nElX9ic4T5mEPFYc/0c7do6erdv33716lVPT8+VK3+xWCbFpX18/RFCEGMuS8uvW79hYGCgcNt2vPzxTecUl754sb29/RLuPzc6FiGENaNcGR5Eqb99+/bNmzej8ps1a3MpLj0+0VyzJrempla6iETHga1Kn6qpqd26tRALpm9ghBDqvH6dFUx9+PARhFDeps3Q886dO3g5H0U0BYLWgYEBSOoEQ0GoDeSzxGJgm37htu0IocrKKopLb9iQN6r80o0mpua9ve9ZwwWCVjwmzDLN2EzsP1BSiidlVabqGpiaWZiaWVz44w+IfIfDKaoaIaFhQuGh6bb2rEsoLm1mbikUHmJGDkn3IS0EgW+PwE9ONP08lxfsbWlorC/dvMRdd8RYw7FeskfYkObnnVxQU3ewtXr3thQfI6xx4VC0qvXcjK18fsOh+v38TUtDjRRG3uscSsk0ZEXerrr9Bw/V1+4rzEm01xxxv+NQioYBK7dUNdU3NZVuTLQNyj04MdM5x2llrZRtVCA8mu09MvU4zweXp6ygqPJ+UaI/Rks0PtH8gZAElDg8PafonC3lB/YfbK3dW5YT76o2wn48M5tEJQnD+f84lJzf+iNM90HnjIOCyjRP3xVbqpobmhrL85e6aI7chfHPcnj6bgnrtlbW1TULa/fsXBFhozgyr/ijqCIlwHfZjsp6Yf1+ft6iGeCzyKFor9VClh9I66HjgrpsR8nlsC6u97omqSeKQ7kurxNVpQVJjwxXfbLM4svVnGNzK6qbhLVlGwK9FrFoLkfNPip75+4DrfV1/HVzHYLXHxVsiVKWyMyh3FbUi/akjbghgjzM3xzujIx6UcUiG2Yj1FW9cqoOHq4rW2YvN4K/dLcfukVeQRliwLu7XzGVbXhRfv4BCKGMjEzc4ubuwXSv/CDR3LmzpLe3b4qqBoxQVFQ8MDCAY4koLr1g4eLr1/89dfr0/gN1hdu2r8zMiouf5+Prb2FpY2Bo/PLly1evXqlraI9PNFtaBM+ePf+oIqaVnZ14XUA0Cwu34RaogJPlJxNNGVk58MI8e/bcixcvmIODYRos78x2iku7us7o7+9/8OCBqpomxaUhkGhUFs5qNJpm6uPrP8PDy9Jq+oU//ujufiUdeK6krAr+r/IKypZW00Nnh69YsbKkpPTI0aM3btyMlkSva+vo9ff3I4RwMBBPTlFZRfWDZZzcT6xlkkOCwDdA4KcmmnX8bb9lRc2c6Re1sqhe1FQUr4fff2KiebCiKD9lTqC3X9TiggZBS+kcPcnLTHfulqaj/Pwls/1m+kWt2FonqlkboCq5luexZr+wfvPiuX5ePp5B8at2tdYXRE+VnJW1SClrPVK1cXGIr//M2NUbS/iNUrRg1PvKUbN08/bz9A5aWioSlK70E9f9PL19LbQkUo0bUeSZc5hFUwTChlT7CV0L8oxHNH8oJIc0fBruq2pamvZmJ0b4+ATOWVFeJxSsnSl+YYjPTo3bLjyS4zusQuNQZvPKRQdWDZvPOJRGZKFIsLs0Jysp0HdmQMKmylYRf5kL2LI/dFbTM6eupa5sRdxsb5/Q+LX8JmFThvuwAyJHLapAKKoozc9JivDxDZv/W12LsHG5i1gMDqWgYz3kCpJY2CSszQwFtxBPNzsjHKYNwuvHlwua17m//wnBUYvaAiPPZ48MaIy7onFl5ppGFwkPVm9dMDvQN2LVxtLqemHZXMlfCodrGFHQ2rJ/Z2pUsLffnJStpRV7RDXpI5m9ObzgDULR1ihxUMVYhUOZJpaJ6rO8pTtMjdjeKBQJ6vO8VT7iSZYeZ9K2ePv4Xb/+L0Lo3r372NidlZ3TduECLmAPvXv3Lm6BSkHBsC4QiObSZcuNpplCAUYIPpoUlwZPUEhvyZXh3blzp+3ChXEwef78+aVLf+IOc6KiIWh9fKKJ+0+80tfX9/WIZnX1vu1FOw4fPgJssr6+4fbt29ev/8sULys7ByHEir6H3OwPHz5ECJWX74b+2N2TWZFXUEYI3bx5i9mIlZdJCxYNclAcRa6sompr5xg5Z+6qrOyKit0Iod7evoGBAcxT+/r6bty4eeToURywv3SZOGUmQmj9+o3APsFuji8Zq7JwUTJzmaROEPi+CPzURLO1JEKiiJoaUyoQ7ghVG35dDWk0j/0WLmEe6mIGkBc6nMnCZP4eQd1aN4kSRSUov7F1Z4SE8HEV1NXUVGS5cnJDGkTl4M0trSNOaaYL+IL6XHfe8ERGiZWCiRFNeA441CeazlWMHO3snd8vdnrKH/F6Ho9o/mhIgn15XYDk/lL2qdWi6mXDBIjjmnVAyJ9nJnkYZP1yWkTbYw0kt8BpSa2oMT9SomucOrdIJMibDVZpDjXuWYvUSmHDyhnDMaocWe/sJtHuxcM7CnLsVlQLj2ydazDMWXXji4Si/IhhIWF2jahiQWu+n+T5kf7v4J7dKti1QF/yYTMss3jkw1ui9IYP3x/5c2SWdcvZL6xNsRVbAzgU7Z4lEBzMdZPQXI71kiomkzZbXC4UFUSN+MBxFMM3Sa2RtSgOZRBXImrKGSUvIIdSUNE10lLmsS75OQ4hyrurq2te4vypugbv3r07ceIkxaUzV2WdO3ceF3ATfPz4MW6Bym/5WwAHIJrSnAMTTUWlKd3dr5qaDooVdW4e4jiVJcvGwbCrq6ujo0O6w7chmtILgZYPajQVFFVmBgTm5W1mah87r1/X1TM8cvQoDIJt7rA6SPPE2vTIaJrp3Xv3oH9ZeYU0DriF5skjhG7cuIlbcEVP37Crq+vCH3/I0uLtlyguvWcvHy+tv7+/t7evv79/586SZcvTg4JDzcwtNbV0WN6rbW1twHe7u7v7+voCg0JsbR2WLF3OLN3dr549e85sWbJ0ufQuplgwUiEIfHsEfmqiWZdlL3kfc2asbhTuiTeScAuxRrNpiaPkkJqx4kBrYZwJ3ADPnEOCHYl62BJtk1ohbEi1k3RWtArLLq9pOYY1iEwq6ZopjskwksxL+a5v+SZE8/MfnfGI5o+GpE50qZiuST4VxODIynElSjWNqB1MMscxSCwRCjM9hlVuHJWI34SizeHivCRD7EpvbmFr7aphfdv4Z43mVQrqcz2UwYdBVcs+raT1aF7I8FBDgTIlkZKPH45e/A6GYhWmc0xvFPCXWuDnRyLziDA7RE25gRDxBo0Ul1YKLRAId0ZoSB5RcU4Ghsp23BWNL7P5Ij7O3sChaM8coaA0SVcinl5cmaBlo7eEFnPERFOwwnVYDDF6n0c08QJ/ysqChYuPHROBXdXQyOTFixcDAwOsfQgpLg2R0SyGxAQEiGZ+fkFgYDAUcC7ERJPi0rW1+/v6+gyNTGpqant7e5meoPIKyqxtFV+/fn3z5i1mI4TLfBuiefbsOZxYHirbthdNxEfT1XUGZnJgmLa2sQX9IleGl529Gs7W1NRCRDnFpSESnLn7uYHBtNu3byOEIIL704imnLzS77+LY7wgd9UUVQ1XN4/B2wSc0tzciienCJFJJqbmcCuVlFUvXmw/fPiIssrwZ6qjkwtCCHYlTUtbeu/e/devX7u4uDNvPcWlHz9+PCrTZXUjhwSB74jAT000GemNOO459cK9CcaSN/GQj+ZYlmWftUcxiYSKQHhwqZP4Wg4lZ7+sTtC8NyPS2wE0iAmFzARGbqtaBOWLMdH8+PRGn6jR/No+mjhR1A+BpMvKZkFlqqmED7H+wByWNwj2LjHHZz1WNwgr4wwkz4bN0r2M7wrWtZyxz3IoOd/cI8wnRyA8sm9LgpmEh1ml1AqYlN0tp07ITzRl0DJKPWyLSPBbBCu3EZYBXB53LbDELVCRHrmeMfIny8yhFPzXHxUURKsMYQWqx8bVIxHxblkCQdkiQwmSsr7rWR7JHMWwvA9rNA3jS0WNOb6sRf30h1wZHtAgZRXVjitXgAbNn7+AtfC2tjY4ZWBozDoFh0A0R90ZCPd3cxcrMgWC1v7+/qo9e3E7xaXBM5JJ0aTrYOAen2jSPIX4hMSPKgMDA1/QdK6lrVtRsTs8PNLTywchhKPUYbFJSQsRQq9fv0YI3b//ABKLgm3ay2vk2SvdVYYQ2lVW7j7DEyH0aURzx46dg46VDx48EImOP3jwAPBkJgqguHTakmUIoUWLxfuS0zwFyKxZVbUHM+NTp04/ePAAPHTnREU7Obu+fPkSZ8LCd5AQTQwFqUxaBAjRHMV1TKzRLE13f88Sba875CXGoWyT+aK6bJ8RlZLPBqbO8ntpNL+uj+anUvbvgiSH0owsFLVsDB01BHvYOYFB5sRqueb1MyQZKBWCt7QIi2dLvCxYf7rjnOVQJglloobNCcMODHYO5kZaPAkJ41CKgXnHBNvicEyS1tydgtbNvhIaOvQZ45C6T8Rf6syaFB9y1KO3Co/lBijilqGrPjDyZ8gs9l7dnzEDpuPwfHOaRCWJwxHxEOp+cF0gjqIzTNjNNKyLZeP6r24VFScM2wqYYuM6h7JZzBftWy5OhfgLFhlZuYPNLZCVBiHEDCenuLSW1tTe3t6LF9vF8UArV42KzzhEU0ZWDvMbiN3u6elhxaYoKauy2OGbN2/u3rvHbJwdFvHBqHNlFXGAy8f+SBPNvfxqm+l2zAI55z9oOsfgjJreqL6+ASHk6uYBWxDdvHlLTl4p4PZKuAAAIABJREFUOTkVIeTrNxNf6+LivqusXEZWDnwMPo1o1tTUAg5Pnz47c+Zsefnu9PQM7LsJc8HWQfsP1E1R1Th67BhkrcJ29tDZ4bCxEDNhOyhi8/MLysorcHn79m13dzc+LCuvGCdrEl4mqRAEviUChGiO8m4T+2jy062wI5qamb2T3dQhOyyHMptfIapfGyDx2JOzSqlmms4/20dTKXizSLBljpKEoEzwafi6PpqfSjS/OpJ6wRnbyvKX+OD9ZoaIl3HCLlHLpnAIo+FQclbJfEFdjvMQpeNQGhFbRzKVcrj60UVHm/Jm49hwsbGYoXdk4T/OWTFh2iuqXeEuCRuiNczdnK31JY+K5YLKEdJGcWmnFU0stStHLnSj2MfxvTSKTAE4DitqhLULLEeUoEPrZY88FGM+otD9DJmdlx0Q1ef4AZVUnblpv/DYaj8cRGU6r0yEFZwcWdOE0mNMw/qQbGKq2rQ+mBXS9N6i1KO2tIq2zBlz1czOP1ldS1sX3AdXZmbJyMq9ffu2uUXAXCNYjf1nzrrwxx9Pnj6FCGhmB5ywPSYmTlVN09nFLS5+HmRhvHPnzps3b3Cy8a1bxcnJ//33xgf3ufk0H01ZWpwp/aNKf3+/NNEci6p+DtHUNzDq7e29e/cusL3ZYRGQ0gg2hQ8MCqG4dH19AwR3Q5/PIZq2tg6eXj5M/wTWLYP08nfu3Hn69Nlff11FCFXt2cuTU+TJKc6JipaTV2pvv/TixQsNTW0m0YRB2i5cuMP46e/v7+vrYzTcAU9f6RlJC0HgeyFAiOYoRJMSR50frli3KMTH1yskMWtXa/Pe5dZDGi8OxbNazG9pPbAhKcLbJygiZWtBGZ+ZbkbWMrUcos59/P1jV+eV7Wca1idym8UZQBtLU4L9h6LOPU3HUK1NZKiP6jOej+anEs2vjaRBQoU4B5CwKFR1hHsNuze0HtiwIMLbJzAydTu/VVAQZYb5n9lCvkBQkxMb6O4ZEr+G39iye55kZxoOpeC37r1UR0wMP3RW0T2rSdBUmREd7OkVGLZoS1VL65ZIIxiBwwtcKxBtjZbE6wzFtrPUrhy5wNwWEX99vCfkZrce3n0Ay6AcVihOh644slgxmRt35M+SmdKds+2oQHBg87LkxGVbKsp2bt0v2rM5LcJZvAoOpeS9pkXQVLlibpCXX2TS+h0VtaKmNTMBZyyz2QK+oKU0Sn+0PzTxIDyzpKoWwc4InfcWNQwa5b6iXiQoitf8yO8uPPtkrnh7+0GoR+669UBunj59dvTYMSyzoZFJT09P5/XrMrJyYPll6TsNDKZt/i3/1KnTg0ZY6RSYp8+cyc8vCAoOhQRGCKGnT58hhFpbhcxckng6XBmLaLrP8Fy/fqOF5XAiKrD2Gk0bThOGL594ZdSo84PNLbALDv6dmrpkIj6aeF5pjSbYstet34D7QCV6KKXoosUpKlPUQaeIO3wO0cSD4Iqmlg7GDRppnjzsdTkwMLAyMwseAEjktKusvLKyaumy5XhrIpzeCA+IK8R0jqEglUmLACGao7z/xHk0baIzCvnVjYfq62q2rV3spsfIwSlnOnN5UcWB1saGuuLceOuANUyiyaGUjIIyC/Y01R88WPZbslPox21BKX5/qzjFb9xb2ywONvrYFEWf85x9DaL5tZGkbRcW1bVWb4kzkqifAQGOgqn/0sLSfS2NTU2VpfnJQVZMDTFH0Tw4Y0fF/taG+rrSLdnhdlqYGw2nOsoc2SmECen4Z8X3Ttl6dmZxxf5W8bw7Ny8OssTelhAIn+E+TKc4lPPS/aLKxXbvj69oEbV5V92hlqGMqnWrvJhnKS5tk3pAUL3C+n3WNf7InyMzxaV5FjG5Fc2NBw+WbVnhY6BsGV9c3XwMm8K5U31SCvbtPyis2b1tsVdkZoOodP5wcAOWnKPqnV0jaixd4aTBDh7nUApTfXMqBEfLUh1H93PQidsm/EAaTjzRD1fZurWwq6srdHY4SM6V4f33339Hjh6FQ3UNbdB1gQehLC3/xx8X+/v7cZJFikubW1gjhF69enXxYnt19b6cnDVhYRHm5lYLFyXjZEkUlw6dHd7f33/jxk1tHb3a2v0IodJdZcBsRgUNE01ZWt7QyMTH13/BwsXS+rmvRDQ/mEczJiYuPDwSJJ9IwnZXN4++vj5IBcpaL7DJLVu2QiUnZw3u8JlEkyvDMzE1T0xM2r27EhJUFReXwOBcGV5gUMi1a3+D7vbWrVuKSlPgFDgJLE5OMTO3hFyY0hpNLCFUCNFkAUIOJyECPzzRnISYEpEIAgQBJgI885i8fUda6vbkxjuPMG819/mb+fXCwxU5obr0KOpM8QjiGL7DOT4/56ZBNE9M4zBQllbTxbvFlO4aTIWjMkUdYoCYrMvWzrGnp6evrw9v6kPz5A0MpklTRrAI+8+cxZXhLU5O6enpefLkCQQ4yysow8jNLQKcs11ZRc3KevqsWcELFyVv2JD37t27N2/e3Lhxk7nDjbOLGxYVKn/8cREhBEuQkZVj5pKcYH1U0zlzyTARK2E7UwwIqWGFyDg4OuNgIFU1zX//vTHWxowamtoIoUOHDi9bnj64fVFgYDAefCJEc6quAWx6hK8Ct9rGxqZHjx5hH4Dr1/+tqNjt5u7BleH5+QccOyaCJJrbthdBiqs9e/ngnQkpP+3snfCAhGhiKEjlx0WAEM1RNJo/7u0kkhMEJikCKpZ+SWu3ZIXjjQ84BnNX5+fEepli6iktuThOS1g6R5LCVrrDj95ibmG9aHFKRGRUfEIi6C9nzQr2nznr7t27Yr+9qj2sxIpBwaG9vb0IoX37aqbqDmd+lQYBiOacqGiIgHn06JGD40iEmbaOHqjTHjx44OHpzczviLkRhGafPnNmz17+mrW5sXEJaupaNE9+w4a8jIzMBQsXg/PowMAA7GkOOlTm5ROsS/toYqKpqqappTVVUWnKvMT5CKHcdethpWbmlrFxCYFBIXOjY0FZCNE8cvJK3j5+023tCwu3DQaYL1yUrKyi+vvv4pj98+d/x3E2LLguXfoTIdTT0/P69Wt1DW18diyiWVZeUVGxu3Db9m3biyDFKdPbgeLSsrT8s2fPb9y4WVlZFRc/T99A7DwzRVVj2fL0zs5OgKW1VWhubgXx5mfPnkMItbQIgkNm37p1q7u7m7mvD5NoWllPZ/piQl3aRxPaP8elAYNAKgSBL4IAIZqEaBIECAKTEQEORXvktAr4yy3fdxX4Iv/4JskgwGYwJyvcth1CyMXh54XbRuVGwSGznz17jhCCBOyjLgSIJsSqt7dfAq7D7KmmrnXq9Onu7m5rG9t5ifOvXfu7tVU4GI69bHl6cMhsS6vpQB+Zl0AdJ+sBmWEf8MEdGl1c3PPzCz62jL8FZXp6BkaG6QkA3Auf+uuvqzw5cR4Gmif/7t07aO/v7ze3sJ4TFY0QunPnjjQCeGk+vv6guGV5cI5FNHG2KZiou/sV7G+JB6S4NM7TiRtjY+OHtJi9+/bVsPLDa+voHT9+Ai+HlVuASTQNDI0rK6smWHC2ASwDqRAEvhcChGhOxlfs93oayLwEAYLAt0RAQVElOjo2PiExPGIOmLZpnsKBuno//4BxxNCZqr+9aIeyyvBOZtI9ZwYEHjl61M3dY8OGPOz/x+omJ6/EYjysDqMeRkfHZqxclbkqK2PlqqDgUJbCddRLxmnsvH792DER7qCto9fefgnnvzQzt8zL25yfX7Bp828Q0gQ9p6hqZGRkrszMWpWVHRuXwAyiT01dsmZt7urVa3EO9qzsHFMzCzzFqBVDIxM7eyeWB4K5hXVziyA1dQnrEhcX9/CIORGRUZFz5gYEBEm7rrL648O4+Hm6eob4kFmRkZULDArZuHHT4uQUVpyWo5NLe/ul8Z8H5lCkThCYhAgQokmIJkGAIEAQIAgQBAgCBAGCwFdBgBDNrwLrJPykICIRBAgCBAGCAEGAIEAQ+MYIEKJJiCZBgCBAECAIEAQIAgQBgsBXQYAQza8C6zf+XCDTEQQIAgQBggBBgCBAEJiECBCiSYgmQYAgQBAgCBAECAIEAYLAV0GAEM2vAusk/KQgIhEECAIEAYIAQYAgQBD4xggQokmIJkGAIEAQIAgQBAgCBAGCwFdBgBDNrwLrN/5cINMRBAgCPwECMTFxNTW1zH0pYVF5eZvLyism2wKXLU/fy69mJZI0M7fMzy8wNjFjSTs7LKKoqBi2w9HS1mXussjq+ZUOdfUMU1LSZnh4fdT4/jNnsRK5f9TlXBne6tVrff1mSicc1TcwWrM2l7lj00eNTDoTBH4gBAjRJESTIEAQIAhMCgTy8wsQQtIkrL390rNnz0d9r2z+Lb+wcNtYJSMjc9SrmI1a2rrh4ZEfLAYG05hXUVy6uUUwuHcia6vDysoqhFBEZBSr84YNeXgz8f0H6np7ezNXZUnTL4pL8+QULSxtYmPjCwoKjx8/oadv6OPrX1ZeMU5h7lHOmhcfwhY7RUXFuGUilaamgwghnP4dXzLN2Gz+/AXSxdXNA/ehuDTsuv7nn5dZ2eApLr0qKxshVFBQyOxP6gSBnxIBQjQnxQvmp3y2yKIIAgSBcRAwNjHz8PRmltra/QihpKSFzEYPT+/O69dfvnzJagT28/Lly4GBAYTQwMBAn+QHt3R3v2q7cGGsAnTQf+YsvP/hOJX4hEQDg2nePn5YhSlNNA0MpvX29p47d16aV2Vl5wzuBhkWFkFxaXUN7cOHjyCETp48pTNVHyAKC4s4f/73+/cfgPAgyd179wICgpYsXY4QevHixWOpn+fPxbtxZmevHgdnOPVpRNPcwrqvr+/48ROs8WNi4kbFqqSklNlzcFdPhND8+QuYjVDv6OhACNlMt5M+hVv+/vvvrqEf/5mzcOOolZiYOOhZW7t/1A6kkSDwHREgRJMQTYLAL4aAiomjo5ncxDYQ56hYOtobKnBlv+M/qZ91amAho/KViTR2dXUBMrA9ekxMHAYK9jr3nznLzz/gzp07CKHjx08cOXoUl/b2SwihRYtTKC6traM3Jyoayo4dOxFCly79iVtwxdDIZGVmFkIoPDwSJpImmnC5q+sMLAmuAFmcGx0LLTKychs25HV0dCirqEKLvYNTe/ul+vqG+voGhNDq1WvVNbThFFwrvaU4xaWdnF2/LNE0MJhWU1PLLE+ePj1x4iSzJTYuAYjmuvUbvH38oGz+LR8htHHjJrxkmqfw5OnTp0+fSW8cb21jixD666+ryiqqrKKgqIJHuH//ATwJAkErbpSucGV4sK89Qqi5RSDdgbQQBL4vAoRo/mIkg0vW++siwOFq2sfnVTQeE2yPU58g0TRKKhUe279rbZjlMCH4vv+wfqbZ7eydMI2DClC3zFVZrPZbt251d79iNYJ2kOLS4xBNikuDKpHl95mSkoYQ8vTyYeJJ8+SvXr3W29uL1Wy2do5M3jM+0dTW0Xvz5k1dXT3FpbkyPJZSMylp4aBWMmHefDyjjKycgcE0J2dXlt8kqB7nREXjnh9FNN1neO7lV0uXI0ePIoT+/vtv6VN7+dULFyXDdObmVp0f+snKzgGiyRTy3Lnzvb29+gZGFJeeGx3b09Pz7t070DT3MH7gRmza/NtY3xKtrUK8cCCa//3338DAgImpOW5nVWZ4eA3qTV++fEmIJgsZcjhJEPhRiSZHN6FYKGo9dJxVBPmRCkNvUMvFNYL9K+0m9jb9ejeD472uWVgerTusEOJQLul1ovJF1l9vRumRzRbxMUqCpjVu72PCoSySKkXNrUe2zNGhuDSHMptfcbipRbQ91kB6KNLymQhwKDmLoMXzgmzob34XOJS6Szr/YGv95gX+xmpyzIWMJdXQ86CgZhmcXNQkaCpLsFZiXkXqXwQBprorbcmytgsXIGKGOfi+fTUnTpxktjDr4xPNudGx0pxyL78aITRFVYM5ztJlYgv12tx10Dg7LAIhtGFDHu4zPtHk8/f19vZCGFB0dGxHR4eHpzdXhqeuoW1r5/hb/haE0OEjR/n8fadOnb5x4ybwMIRQZ2cnnoLi0p9JNOMTEsficOO07+VXM2Wwsp6+e3clT06R2Xigrn5VVjbNU6C4NItoAtXbs5cP/eFsR0dHY2MTLnfv3QOXVpUp6s+fP+/q6qqsrGKWgwebEUINDY14UiCa8PmxvWgHbmdVGhubBkduGXKZJRpNFjjkcDIg8MMSTTkDG3dPN3FJzGsQ8ddED9U93az0uIRovq+2VDR0BnBCs2vGIpo7SyuaNoUrUbIc/cSd9TsKdhGi+VUUnxxKJTRfhD+H8L8AoPtf9S7IuWZXC1vzo0xl3+e4Q2xydKlGxJOzStx5uKUi1YzY0N//48IQfVrF08vn/v0HtnaOcLmtnWNzi4AVXmNial5UVBwQEERx6bS0pdIB3UA0z507j827bW1tCCFw7HNxcWepEiku3dnZeevWLabMpmYWXV1dly9fBiJFcWmap3Dlyl/v3r0zM7eEnuMQTWCH27YXwYX//nvj3bt3eZs2v379mkXvenp6rl//9/jxE1V79q5fv3HBwsU+vv4Ul1ZQVAEjcmBQCAgMhzRPATSau8rKV2ZmsQoY65k+mkA0M1auYpmkkxYsAos8q93RyWWQc7OIJmh8mfHmsMBTp0+DppZFNIELWlpNB6Dg7JKly5kI19TUAtFct37DqOZ+kKSmphZfBUQzOTkVFJbKKmr4FK4YTTPt7+9/+vRZTs6aUTWaNE/B3MJ61qzgwMBgYxMzlqaZ4tJKyqqqaprwwcOV4dk7OIVHzAkICFKZoo5nIRWCwOcg8KMSTbzmsXSERKOJIcIVo3mVYxHNwmUZxQc3esnJakbtrF+zMLmSEM3vQDS/3l3gUKqBeYcElaMzxbHoL35yxOzBcSVf2JzhLlbnkPKlEDAwNH78+PGjR4+Mppmam1s9efKkq6vL2cWNOb63tx9CKCdnjZbW1CdPnrx69SptyTJmvDYQzc7r18+dOw/l339vYKKppq71/9s7E7cmrv0P/yUzkSSyRFYFBKrsFBBQkB2sgCKIGyIoCC6IGwi4IgjuiAgSQCGsSaAaW7tdvL+2t8vtrbWLrdVaW7fWgs7P5JBhSEIISJTAxyePz8nJmTPnvDPAm+9ZRmN1s63dbI3ImYvLW1999XV//0DggmByat4MgZ397I2bchiGuXL1KrGTkURTILT45ptvHj9+7Onp4+LyFilWUro/ZGHo5ZbWY8eqtm7LJxp0pOyotuiQM5KwnIaVMgyzKXszEU3tj9gcbdHUkDyaxy8p3a+cYJqyksuW5vG9vP20RdOMP/OLL77o7+/38VW6I2+G4KOPPu7v79dQSTJ07uXt9+LFi27O5Eg9ohkUvPDx48d37961sJyl0RISFq2rq2fziWgGLggmK4e0O0Xz+FXHTzAMc/hIGekgN6JpbiE6cODQvXv3WFAMwygU1zTmURDyxSWlAYHBX331NVv477//ztqYzTYGCRAYN4EpLpqxEfnHGrrb2iXVZVvDnIaGCynfrRflbVtiozYfa27tlDVeOJ4b7cZGeiiab+27amelWNzWI7ksPrJtmZv50GIIirZ0Tyo4fK71cmeP5FJTVdGGQPuhP70UbeG6ZFdFfYeko6P60Ab/hNJOg4fOlecNWLf7uFjcJm9pFB/dkeohGjovzeOLvFO2V1xskMglLc0nS7NDnYf+6utvFbk/9IhmdWZ8xvmuglD7ZRWy4rjQ3MYh0dRfMxH66LC88vquto62mvL8cKehVum5LymLFUfkLTszd1VLZPUHUrwWbTvTKms6VRBqy04z0Md53OdV/tkQWJlbiIa/LPmGxeoo2twltqC8rk3S2VVbsWXRiv1d8nNpjmybR7xzqOBdl7Qme0jlVwqjlMeSiKbxrgJFhxZIFBe3LNC4IvpbxS1M8RbvlChqs/24mSRtHVlU39nbWrM9UDjsdtUuiRxtAgsXhv399983b353+/btR48eLVwYplEmOiaOYZg9ewtpHt/RyeW9995nGIbEDklJ/UPnyvjlzZvXr3/AVrt0aSLDMLm5W0gOb4bg22+/ZRjm7t27vb3vfvbZ57/8cqe/f4AVDoZh0latoXn8kUTTea4rt/BLx/3vf7/RGHf29PRhGEbP+G9c/Dubsjdvyt785ZdfMQxTc76WvPXy9tu8Oe/JkydLliRoBCOtRNbhEVFPnjzZuWsP2zsS0dR2MrG4iWEYNnjMltcpmjSPT4LNJJBMiJUdLWeP4kY0L1yoYxgmbHGExqcabSARzW3b8//5558tW7axhdlETGw8wzDcdetENINDFpHVXd/evMn9gkHz+FYim0ePHvX3Dzg5ux44cEgjounu4fXSrW///PPFBvHuPXsPHTpCpPP69cG4LDk1Ec36iw0PHz783//+V1V1/ODBw//6lzIozjCMITtksV1AAgR0EpjSotkqPn50b1p8fGzarpMSRcfJdGf1oKFKNDtrT5bnrlwaFZuWc6xN2l290ln9Z9JpVUXHFXH51uWx8bFpBZWtiuaSJdbqYwXhxZflkrKcVbGR0REJ6XvOySTHVjuqPzXzyq2RvVt/KCcpJi5+7b5DZ8XtBosmPXdtZddV1XnjYtPyK1sUlw8ts1HXTDmmlEkUl07uSouPi0rMKq7r7byQ76f+066/VeTa6xHN89m+XtmN4j27D3ZULBEtym8dEk39NSuFr1VcdWR3alxcTMqW8uarHacyWM467zmSqRJNWW1xVkxSYbWsq/7Q1vileZUSRXWWFylgpPMq/4QU9bKTVklCKm/LC1Rffb0RO55HdrXsasPRvGWxyut75EJrN0c06ZHvHMrGOzQqNiIqYVu1Qlq9K1aZjo2IivFyGBJN410FSpB4UK6oTHPSuCL6W8UtTNHuG2oUkr1R3EySdkw50S5XSCWHo4Z/L9IuiRydBCoqKl+uAf/rr790rteOjVui/Huvdikz/sw9ewud57qyVY0qmmJx0+PHj9kxcWIk3MUlh4+UMQzz/Pnzu3fvfvbZ53J5z4ULdQcPHs7N3ZKxIfP58+d37twRzbIdSTRpHr+4pLS4uDQ3dwtZ/qyxvofm8a1t7BmGaWpqJs0WzbINXKBcC1VYuK+urj4yMobkW1jOevz4CcMw3HU2bE8NSegUTb5g5q+//vpykig7DYCtSkM0q6qOf/31f8nr5s3vSOKPP/5gGObWre/J276+PlY0Sc3Pnz9PSFzG1qknoun2lrur23wvbz+F4ppGY8icgaqq42w9rGjONLf67bff2I1I2QLb83cwDHPpcgvN42uLpovrvJLS/dzlXO4eXgMDyq8QbOia5vHZWHJjY5Nw5uA87BlmwtOnzzIM8+eff1rb2LNnRAIExkFgSoum7GyK/aA9OK6plspPLbMZfKsSzatHVwz+/FC2acfkisPLBmfAzM+8KG0tCVU7nCihvF12JkUlBMp4mLmtjY3IjCcUqqJiVoll3bLKBMvBmt03iqWS0jDB4Fu3DXVSg0VzflYD97yWCeUd8rOp6i44rT0n7aqIY/+W+2+/KO/MDxkMpupvFbkz9IhmXU4AFZAvll3pqFgposMKJEOiqb9mpWjKTiWrw5CWSRXdnDbruSNVotlbFC2gaPeMGkV5qj1FWyUdVbQXDf7JMdJ5lYFht6CAwJDhrwBnq8FLpqfNNI/vtqFe2n4oQn1vuGVckHJEU/+do2c2JIloGu8qqGgrylN0/8EwZOicol3WnVV0FMVq86Foc5GTm4OVQPsj5OgnYO8wp7FRGWl78eLF8+fPvbyVAeMVKSvLy4+xr5ZWycsNF9977302hyQyNgyu4B5VNLNzctmRdJrH/7//+/TWre+5DbO0snZyduULZpLM7m7p+fMX2AIVFZVZG7P5gpl6RJMUXhwe+eLFi+pzNeyxZAh+4cKwdekZJGj6ySf/Is7EBkGVQ7RZm8ghZOkS2UyUDFuvXr32008/G/XFbrqkUzSTVQubSHiPXVNPzqghmlu35bNTXUdK1NZeYEWT5vE9PL2/++5Wf/9A0rJkUqd+0aR5/MSk5WR7I0uroc0cyHU8fKSMpceKJuuRve9eYT8148+8det7hmHI9xNt0WRLchNkZyt2nylWNO/evasxB9TSyppcKfbqcOtBGgQMJzClRbN1byAbDly8r11+Md2NK5odW4PUb+nFBS2yqnXzCbiIoh7pqQ3O7OiqX16tvC0vQF3Ywie58Hxz91U2KsZVyUW7u6S1m93U56VjDnQbLJrK857ZwAZHKe+8Os55g3a0S+vy3NU1UzSfxxfS6gFfSm+rSL/0iGZ9XiDF80stPLQxcg5Fh+3kiKb+mpWi2bKbXd1PLSholl/e5DO6tBHR3B1uRgzmyHJbirZIODKkMkY6r+E/GzpLBhd0SOvy5rNXQXl9h4bO9d85o4qm8a6CUUVTJyhkjkpgXXrG/fu/MwxTf7EhIjKaYZjGxiaax685X8tKmJ4EOxuPCMr9+7//pP73++/KbczZXb4dZjs9f/78XM15msef7+6pnNJ3eMhmtNv58OHDL774Qjtfv2jONLf69ttvf/31V3Yx+9Hyij///FOjC1999XVnZ9exY1XZObnRMXFzXdy4w8Fd3VKyfujx48e//fbbfHfPpQlJ7MJtkvjnn3+ePn2qkcl2Vls07exn37z5HcMwR8srHj9+8ujRo5jYeLZ3GqLJ5utPcEWT5vHfmufx2/37Dx48cHJWRprJp9wt9EkckfsgpepzNcpg5KXL7KRVclRxSSl7aq5oznGcS9bpe3oNblpC7Lnvxg1SXo9o2tnPjoyMydqYfbS8gtSZv6OAPQuJaIrFyntP40U+4rqvRgG8BQFDCExp0eRsb0SFFUnkDevnqWVRNUdzpNHS6JIrrESqh1Y7twUrj6VoYeD2VmlXw87UqAUkKra+iruBUeiebun5HFY0x7S9UXTJFemp9Q6AY9PSAAAgAElEQVSsxHjl1ckHz0vz+CE7O7mKw726o7aKFNYjmhfzhmbvcUVz1JrJXMkh0QwsaJK3ZPu+qmga77yvOEdT4yqoru+QaOq5c8glGCl2SCKaxrsKlEXyYfkrRjRd06uH4s3c2w/p8RE4c+bs3bt3SRjM3EJ09+7dp0+fWlpZm/Fn8gVDL7LI4+pVBTeTL5hpxh8MQBLRlEplbMizp6eXK5o0j69QXHv48KGVyIbs4MjdQYk3Q6BR86NHj7748kuNTD1zNEn3iR+zD5+cYSbcsmUbccqczbkxsfFXrl5lGMbBwZGU580Q1Jyv3VtYxIqmo5NLf38/mUxZUVH57Nmz77675TBbc77HvXv3NCKyXP4aoimcafnBhx+SRTC8GYLQsHDVpMZ+Nh6sLZozzIT2DnNGepGRaA3RpHn81aptpMg8TvLpxx9/wn1sJlmhxW4pYGE5i0yN3bZ9cHH6hg1ZDMPs2r2X7Q5XNGken2xKdebMWVLg+vUPGIZZuzadvNUWTd4MQdbG7C++/FLD9RmG2bFjJ3sWYpPstlZs/ssEWdTPTnjgfoQ0CBhOAKKp+R1ONYevR1q9I2zY6Gqgk2rMmqL9N4sVrYXRZBMlJejog9yY5URHNCW56kiqMqJZn+eh1lDuNR61VaTwuERzlP7qimhe2uj96qJprPO+4hxNr5wmacseNlJunXqSO3SujGiOcOeQSzBe0XxVGhQvbp9McXr9YMyee/PoibNyi1G0X45Y0ZS/kJuJ9KsQEM60tLNXPvyGN0Nw6XILsQF2CJitmew0/tLARpoqN+rQORtjO3yk7PHjx++/f52tnObx57q4aYuIRg7Z6lJPRDNns3J0/qeffiouKb106fLnn//nr7/+cnGdxz1RYeE+7uTL4uJShmE+/fQz9uFAFy7UPXnyJGlZMimWsSGTYZji4qEIH6nNcNF0nutK7PbWre9ZwQ1ZGErirKX7D/BmCLRF095hjkb3uW/JEh9t0ZxhJrx37963N2+ytHUuBmJFkzzWqL9/oL9/gExpJQy5R2mIZkBgMMMwT548mWVt5x8Q9JLSnTt3NKbesnFumscnc3+fPn16/vyFrI3Z4RFRcxznku02tUWTu3KfvWpkXgd35Rn7ERIgYDgBiKYO0VTOtBPv8GFHpW08AoMDHFXT8lT7mSskJUvIhtsULfTJbeQOnb/SHM3hc0NVczTPrFBPf3ReVyPtqogfNkezi8zRHLVV5IZQ1bA/bLiqjhZL88is1ddfzTmaiWOboznS0PmoPRr3eV9xjqZQuRRMemxjhKu9g6Pfip3V3dyhcz13DrkEFG2ZWKaQVqy0fL1XgaI9Ms4rOg4k6nzy5Eit4v4eoWzTKmQKsqs/Nx/pVydAlEsqlWk8w/DlMLpwpiUZRGYYJn39Bp3nMkQ0zfjKp/4QYVoUGs6tx9ZuNnfb8Lq6+v7+/j/++IObSQZP9YgmaTypf2Bg4NubN7u6peykT3I6sny++lwNb4aAhGm/+eYb9snpb/sHPn/+/GKDmLthe3RMHG+GIDk5Zc2adezr0aNHv/32G/t2zZp1iUnL2R6RiOa27flZWZsePnxINoTX2Hw0cEEweUh6/cWGt/0DNbY3IqJ59aqCLHtn/ydLpkYSTZrHv379g/7+ft4MAdFQrjLSPD67jybbVOUiquLSvhs33D2UKyDJhvnsM4poHl9DNMkplBNYN2aTlTr79pWwtWlENGfPcX7+/DnDMAuCQtgyNI9P4rvaollZWcUtRtIfffQxwzBbtm7X/gg5IGA4AYimDtFUrR3urd2fnRQdE5m0Ye85WVdDvq8ZGToX+OSIu2UtB7NSoqITUnIrj9WIOzizMM28886TVefRcXFr9x2uucwdWCe7fopL01Urjsm649iIoPmDf/6dVx/rvHJRtaI5NnX7sctXL+1PZFe7U06pR9uGrTrvqivwH9TfUVpFbghe0K4meUdZVmIY2es+wFVAm40mmqPUrBo6F1cdVa06X0FWna83eNV578iiaazzGv6zobMkRTtH7KhtVW1U1C2pTs8u44qmnjuHrU1JrL06NzFOdQ9EuKsWqL2Gq+CxUSztrk6bq+uG5/F1toptM0ULPLLqu6VnUuboiFVTqtVj0pPp9sPtmT0ciZEIzDAT7ttXQna1FM60fLlPDffBMDSPT7aQzNiQ+dNPP5HhbO2quKLJmyFwnutKlKi7W/rulSstqmdC0jw+CSh+/fV/2UmB2lWRnHHM0UxJTSsp3b8ybbWvn7/GxkbsWQRCi4cPH3733S0yBPzVV187z3WdYSac4zj35ZKa3t53BwYGvH3e5oomOZb4FjesqJHmPluIiGbN+VqyQ1NPT6+NrQPbBjbh77/gt/v3v715MzwiSqdocld/k6PIc9X1iObnn//nwYMHhkc0aR6fTJMg9e/eo3yUPPcpndqiSeZlfvLJv37//cHff//Najq7WoiNaMYvWcowzC+/3GG7TPP4FpazSDRXWzRv/PvfGjeGp5fvixcvGIbR3nKLWyfSIDAqAYimjr+7yv0s/VbvrBI3tvdIWpuPl+SEOnP24BS6x+efrG2Rtbe1ni5N911SzBVNirZ0S9h97GKHpLOz5ujm4GU6HkGpOQH0bKaT6i80RfNt/NfsUp6X7KOZ4jF8KbTId2V+RYNYIpe0Xjp5YHOYwa0i9wFF2wakl1VfknWpPEmqOq9+xVGOq+rtr1JQmgqiw7dVXOxq72ivKc+PGMM+miOKpvHOO+qPxKgFKJovtHX38Pa0t+BTMYe4Q+f675zBqyAKTj/UcKlLuZiM3VbpNVwFyjqqsFnRXl0QbKdjeTilq1Xq28bcMaaoVnqlJi9I48mZgwXmrDsu17FJ56gkp3kBh9lOZGBXobhGnsvy++8PuMuKLa2s79279/DhQwvLWSQEyG5+SdCJZtkuWZJw5oxyG5pPP/3siy++ePJEuTcQ+ffw4cO+GzdI0CtkYSj7kc7ZeNxrMZJorl699voHH4RHDG5xRR6Hwx0L5laiekTQ4CxSNp+soGcYRiqVkTXOLq7zBgYGiotLe3p6T59Wzj7UFk0Xl7fc3nJnX/fv/3779m32rdtb7tzNntg5mps3563PyNSQJ7YlL+et+vi+7eI6b6Shc0NEMytrk6+fv63dbL5g5oqUlS/36bz+gXK/UsMjmtz2FJco5xKQLUtJvrZomvFnfv/9D+T6crd21xZN8kSo/v4B8vh1msefYSY8efI0OVZbNBmGKSjYxeISzbIlO7Zyb0hua5EGAcMJmLxoGt5VlDQGAaVoXnoDz5R/U+fVYGiXdkoqq4jn7OevUeD1vDWQhsBzzeGmd7tbL5amh5gbFn2kbMIyy8QSeW9t0TInvo5wprKDypV2vUXRBm3U/3qAmMRZyFjqsWNV7BDzb/fvX7v2Hmm8GX/m5ZZWhmE2b857uRBklrXdr7/++scff/j6+bO9I5P2iDrc/vnnK1evnjh5KmdzbmVlFXcxkIen9/37vz99+jQmNp48Y2bDhiy2Eu2EhmjyBebz3T252zGSQ7RFkzdD4Oo2f116xrma819++RW7bIXm8WfPca45X0sGc7/77ha7kiku/h2yS2hs3BIyY1VbNDVaaPgcTY0Ddb59FdEkcwkIf7IR6TvvJI5bNMk6rWXLV7Dt1BZNmsfP31FAzvi2fyBbUls0Z5pb/fjjjwzD/Pjjj0VFxXv2Fn7w4YcPHjz47LPPdS4GImuGrly9um9fyfETJ8nSpT/++MPff2idKPd0SIOA4QQgmjoimobjQ0ml4nBW9782IG/qvMo4jVOA6tnxkRFJm8uaFZKKlexGAa+t+xonGgMNkXdsVknF3hXslAyNqjTeUi6r9pUXrY101yOmyrm/8uqV6o1mNWrA25EI2DvM4S79IVMD6y82kOVB52rOMwxz7dp7bJApJTWNYZjffvuNbDBJRkLXZ2QGhyxi19OQc5EHyZAdf/wDgn788ceBgQGyozh56GV//8COHTvZmslRM82t3D28omPinj59+tv9+3V19e+/f/3HH3/UOdWP5vFJxMvtLXfRLNut2/Ivt7T+/PMvrHXdvPkdmVRqbWO/b18J2Yb9s88+//DDj5TT/tSPxtmydTvDMOyG7TojmhoAJ1Y0tZ91Ti5ER0fn0qXK54OzL7I7OnfofNXqtT09vdevf9DX19fW1s5usUQimr/99tu3nH+PHz/mbm+k0SkyeUC5KSZnBq1O0RTNstVe0aUtmmSx0bc3b7JX5Pbt24sWLSZfD7QjmsUlpTt27CQ7KJFDPvvsc425rdptRg4IGEIAognRfCUCY1AcrU3aDLlBRyrzps77clK/Xdop1aj31Y7WllOlGxdwHkA6UmuNnf8GaVA0P7xIJhXnexsWIjU2CtOq39Zutoent63d7LkubmRYeVP25tlznDs7uxiG+eyzzzVWmh86dOTlqqAHDx5s3JTD7gqk3WUimvFLlm7Zsu3Zs2fPnz/nhjAXLVpMhtF7e9+dPce5uLj0s88+/+3+fdZI2MTz589//PHHa9feq6294PaWuxl/ZnRM3IKgkPnunsuTU549e8YwjGiWrYXlLJK+dev7Cxfq1qVnkLFsf/8F589fIPti3r17NzNz4wwzoYOD4y+/3Hnx4sXOXXusRNYfffTx8+fPuaLMjWi6uM5rEDdqvF5u8P748RONzAZx4+w5zjSPzw6da2MhObwZgqVLE8MWR/j6+fv4vk0WVldUVLLlx7fqnD2cjWje/vln7j7z5PFC7EyD1JWrsrI2LVu+IjQsfEFQCJka8ezZM+4W7g6zneY4zmXXlbOnsLOfrbG5uupxlNZzHOfaDJ+QKhBaLFwYtnr12qioWBI4t7F1mOM4l3sWsr0R2b/Tzn728uSUVavXBgQGa3wPYc+OBAiMlQBE85U0a6y4UR4EQAAEWALk8ZKs2N3497/j4t8h26333bhBhpLZwiTSSRb6MAzTql7lwy1A0kQ0yeOqHz58SMZzucUWBIWQx14nJ6eQNSiPHz/54osvOju7Kiur8vK2LlmS4O7hpaE4vBkCjQ3Y//WvPlJt/JKlLi5vcU+xcVMO6ddPP/20a/derhgtWrSY+3Cg2tqhpxBpRDR9fN++det7A1+ubsrdu0YVzZfPXrp9+zbLnCS4cUQimi2tkvCIKO5rU/bml+Pj3IjmSM/JNGSOJolYazTjjTxYnCua3CuINAhMFAGIJkQTBEAABN4MATv72edqzr9c1XHq1BnVYx7NHWY73b59++DBwxqSx/2NH79k6eef/4c8r5Kbz6bXZ2Q+e/YsY0PmBx9+yD5Ihv2UJN6a50Fmf1qJbBwcHA0MX1VVHZfJ5D09vTKZ/NixKu3d1Nmz8AXmFy7Upa5cxc5AZT+ieXwHB8eKisoPP/zo0uUWWzvlZqLsixvRZDMNTyxPTvn2229H2gqK1PNSfOsvNojFTU1NzSdOnmKXN5FPbe1m//LLHe0lU2/7B9669T1ZFU5UciTRDI+Iam/vWJqQxG122qo1h4+UsRHH0LDww0fKqo6fqD5XU1dXf/Dg4dCwYdtOcY81ahqiaVS8qPzlxGKI5tAvONwQIAACIPDGCWgvu9FukoFeqH3g5M8x48+0Elnr1NPJ33hTbCFE0xSvmmm1GaIJ0QQBEAABEACBaUoAomla0maKrYVoTtNfLqZ4s6LNIAACIAACE0tg1+697e0dI00DmNhzobbpSQCiCdEEARAAARAAARAAARAwCgGIplGwTs9vLeg1CIAACIAACIAACHAJQDQhmiAAAiAAAiAAAiAAAkYhANE0ClauyyMNAiAAAiAAAiAAAtOTAEQTogkCIAACIAACIAACIGAUAhBNA7CK5gcFeQjxhD3OpsoT8rWMEnkHBbqa88xevTaK5psJLcxwjSb6Gr36pUENIAACIAAC05nAVBBNihYIzCZAVrTvA4pnH5h+uLb9qvTEOltIzERLDOWWVS2/evlcSbK3tTZ8A3Mo3tzwnIqaVnm3/FSyjVFuAwNbgmIgAAIgAAIgAAIaBExeNCnaen1WWt++xFwnHZJBmdmtTlsqK1z9r9I1N/avbYm21ei/nrcUbbtwh7hTJinbGDfPRqin5Ov8iDJffliukOyNep0nHelcPvFJN/avJa++orCo4S6u/1Oax6docxvvxM0nO6QdNet9LUc6i/58+xXHO2Qt+9OXhgR52/F13AP6D8enIAACIAACIAACxiMwBURTtCo95aO9S7J0ieacsLhPihNLg12jvFyivFyC7cbgi8JFhY1yWXma+6QakKXMEvbLFZd3vZmn4mrciJb2jgTs6pXLtUVT/6dsVZTQZ8OZ3u7aPI9xjaEHbJdIxdu8hjsuWzkSIAACIAACIAACb5CAyYumfnYhScl9O4L9x24hFG299HCPtG6c9qO/Va/yKUXH7ZMpmvIXvkolE36se3SCtmiyZ9H/Kc3j84N2ieVdO8PM2UMMT3hmi6WtewPHfokNPwVKggAIgAAIgAAIjI+ACYsm5Rf+iWpA/Mb+tX17FoVyVIOiBUKh0EIojFi+om9HSIgqbSEUCg2eyknRoQUSxcUtCzSwUhYrjshbdmbuqpbI6g+keC3adqZV1nSqINR2cNCWoi3dkwoOn2u93NkjudRUVbQh0H5ovZF3TrP08q7osLzy+q62jraa8vxwp7HZFUVHFXYrGrYGaTSMJ7AytxANf1nyDYsR+i9Z3rd74TKf4Av5Kz8oWiFJD4q2HWrzwuGyTnmFXS9Nyp0zbJBav0rq/1Q5hs5bvFOiqM320+iUIW8dVp2RyspiDL6yhtSJMiAAAiAAAiAAAhNCwJRF08ouQjUgvm5VsqZo2vo2qR2UnUQ4pjmalCDxoFxRmeakQVklmrLa4qyYpMJqWVf9oa3xS/MqJYrqLC9SUhBefFkuKctZFRsZHZGQvuecTHJstaNagpWi2SquOrI7NS4uJmVLefPVjlMZzupPNc6l8y1Fh+9qV9TlBGh8GlHUK+u5xn1J5W15gcN0UOMQ9q1SNPckidcvygiYtyxsoXjvmo83+biqW/U6RJN231Azzomn5kkVUnlVoqVBPWW7jAQIgAAIgAAIgMBrIGDCosnS8YlP0hRNM5H3PMeF8xzXrUnt2xWxSpVeOM/Rx0bAHqU/oRJKRXmKvUYxVX5vUbSAot0zahTlqfYUbZV0VNFeFENK8sxtbWxEZjyhUBVftEos65ZVJqg1SCmaslPJ6vCnZVJFt/xsqv0YJImiF+5oVdRs9NZomMgtKCAwZPgrwNnKoJqVolkany4aLOwcvqSvNG61us2vRTRd1p1VdBTFanRqpLeqzYyU4VuRg1dCSWvnuU3z1Fo80iHIBwEQAAEQAAEQeP0EpqZoshw1JInNHzWhXzR3h5tRtNKNjiy3pWiLhCNDkkRZ+CQXnm/uvsoGF6Xy86vVC5WUotmyO0BtRdSCgmb55U0+BukgaTNFB21tVlRneIzaBcMLqCKaixaxrfIO/bA0MddhsFUaDI0ydK6CORbRVMKX9VyTyuX1FbkhNkMD/Yb3GiVBAARAAARAAASMTQCiqdtRKIvkw/IRI5ojiSZFCwO3t0q7GnamRi0g8cX1VV0aonl515BoBhY0yVuyfcckmv6bxYqT6W4ad8arz9FcyIrm8FmYr0U0XdOrh6LCGl3TfkvR5g6eyvBtUNjy3JPdlw4us1M3XrswckAABEAABEAABN4UAYjmCKLJUy7uPr1+vsaFIUPnI4um0gJbC6N5rPdEH+zWEE3NiOaljd5jEE2N9rBvX3WO5u6FI4lmUGJyX0EIu6ybUsY7E7KHD/frX+6j/1PVhpp+OeJxLqU3T6yQyisTLCaAIQsTCRAAARAAARAAgQkhANEcQTRpj4zzio4DiRpPnhxNND0yaxWSkiV8lWhStNAnt1Fz6Jw7RzNxzHM0R7rqrzpHc2TRdAiL6yuOZadsukUt7SuOTBq+Nbpr5NK+feExrF4Pf4aQ/k+VommbViFTVKycM1Lv9OTbrjwtlZfHCiCauu9kPejwEQiAAAiAAAgYm4AJi6ad01yyW7hy1Xlh9CbVCvSo+bZWHN3RGPYdE02PjWJpd3Xa3GF/v0cTTYFPjrhb1nIwKyUqOiElt/JYjbhDI6J5WVx1VLXqfAVZdb5+TKvOed4bjokldYdWOnG6OaZ+aRcm2xuNFNGkRO5n9665silknf+85eFhLUVrZCkulsPPzpsf8m5panXs/GhyFdysuYKu/1OKFnhk1XdLz6QM3zJJu506c9w3iqWSouDh7dFZEpkgAAIgAAIgAAKvmYAJi2Z82mru1kWDD0Icvj37q4gmZR1V2Kxory4Ithtaq65fNJXBOaF7fP7J2hZZe1vr6dJ03yXFmqLZVBAdvq3iYld7R3tNeX7EGPfRNFuw9ULXVcnpDfMnTq30iybN41vP9TqQmdRblHatIPFMwvz5w8OZqrFv85CoyJZdaWRn077N/i6c5lH0iJ9StLljTFGt9EpNXhAJA4/1ByBwu0TasNWTc7qx1oDyIAACIAACIAACRiJgwqJpJCLcagWeaw43vdvderE0PcR8IlRGuer80tBiIO65pmGasgnLLBNL5L21RcuctOTVQCBz02uk3TWbFrlZW1pOqoeFGth+FAMBEAABEACBKUwAojlsZFzHlRZ5x2aVVOxdYT1RoslZda7jdMNnN07tApTLqn3lRWsj3V9F4imLoPSK1g65Qio/lWyDmZqj3c/T6Qab2j8+6B0IgAAImAQBiOZr/cOsjGhCNCfadSja3NLRwyvAy268YVGT+FlFI0EABEAABEDA5AhANF+raJrc/YEGgwAIgAAIgAAIgMC4CUA0IZogAAIgAAIgAAIgAAJGIQDRNArWcYs/DgQBEAABEAABEACBKUMAognRBAEQAAEQAAEQAAEQMAoBiKZRsE6ZLyLoCAiAAAiAAAiAAAiMm4DpiaaDo8u4e4sDQQAEQAAEQAAEQAAEXhsBiCYimiAAAiAAAiAAAiAAAkYhANE0CtbX9kUBJwIBEAABEAABEACBSUsAognRBAEQAAEQAAEQAAEQMAoBiKZRsE7aLxZoGAiAAAiAAAiAAAi8NgIQTYgmCIAACIAACIAACICAUQhANI2C9bV9UTDKiUTzg4I8hLSZUSqf6Aedm1AjKZF3UKCrOQ9g8UM3IgHnua7mFqLx3dWWVtazrO10Huvh6S2aZavzI8Mz+YKZhhfWLmlhOcveYc4rVqJdLXJAAAQmOQGI5oi/8Sf5lTNG8yiefWD64dr2q9IT62wnVDQpWiAwm+6CRbllVcuvXj5XkuxtbYzLhzqnAIH33nv/n3/+8fTyHWtfPDy97969W1t7QeeBP/300++/PzDjj2iKVqLBe3JxeOStW9+vWJFK6nFxeYs3Q0DSlZVVDx48CApeqPMUJJMvMP/Pf/6zb1+JdpkDBw4xDOP3doD2R8gBARCYwgQgmtNFNCla6JWQk5Hgxx/BICnaduEOcadMUrYxbp6NkHvTUzTfb0HglgUOAq1j/Zcs79u9cKFW/vDDrddnpfXtS8x1muyu6ZEtlvVcIy9pR3Go3n5x+2hImqLNbbwTN5/skHbUrPe1NOQQlJlWBGbPcX7+/PmtW9+zbmd492eYCW/8+98vXrwIWRiqcZTbW+4MwzQ2Nmnks2+3bNn22/37b83zoHn8uPh3GIZJX7+B5vHd3nL/448/6i82kJLXP/jg77//nmluxR6onXjnnUSGYUpK92t/BNHUZoIcEJgOBCCa00c0RcvKFdLyVPMR5Em4qLBRLitPczfTKkDRwtUZa/oyPC20PjJMNEWr0lM+2rska9KLpoVrSGhYRGhYxLLC5gkXTfILhRL6bDjT212b54Ex9Gk8j4Lm8TM2ZF679h739cUXXzAMc+/ePW7mSOned69o/IlaFBrOMIx2fm7uFoZhUleu0ijPvvX3X/Ds2bP//Oc/FpazWNEUzrT8v//79J9//glbHEHz+AKhxZMnT65cvcoepTNRf7GBYZh58z1aWiXXP/iA+/rpp58Yhvm///uUm0nStnazddaGTBAAgSlAAKIJ0VQSoGjrpYd7pHW67ecVRdMUf07cMuqMJJo0j88P2iWWd+0MMzdFMmjzRBHYuXP3L7/cYV937txhGObFixdsjv7E99//MMNM6PaWO/e1Z2+hf0AQm0ME7uOPP/nnn3+sRDZ6Wr49f8ezZ89i45aworll63aGYTIzN5Kjli5Vhip37tqjpxKB0OLPP//85JN/0Tw+RFMPKHwEAtOKAERzbKJJWaw4Im/ZmbmrWiKrP5DitWjbmVZZ06mCUNvBQWGKtnRPKjh8rvVyZ4/kUlNV0YZA+6FTeOc0Sy/vig7LK6/vautoqynPD3cy1DYo2tZ/Venxho42maKzo+1ceUGM29AAN0XzrX1X7awUi9t6JJfFR7YtczNXNyl41yW5gh0RHhwXll8pjBoayKbo0AKJ4uKWBRp3P+W+8Grpmhv713JffaWrj/oNHksimst8gi/kr/ygaIUkPSjadqi/lF/4J+rD+/Ys0hiJpmiL4MWLG/JTPyhZ83HRCsn6kCSHoWM1WmL4W0oQU9SmaMxfSKvjrxR/8c5WhXh7CMnRf43IiUYSzYBtrVJxvjdbc1iRRN6wfp4a9chXgdt+ird4p0RRm+3HzSRp68ii+s7e1prtgcKhq6NdDDlTj0Bi0nKGYS63tBreNSuRNaP3X1XVcU9PH+Kvv//+QPvFiiNvhmC+uyd36HyGmfCddxLZxly4UMcwzA8//PDF8H+fffY5WyYhcRnDMFu2bGNzuAkMnXNpIA0C04cARHNsZqMSTVltcVZMUmG1rKv+0Nb4pXmVEkV1lhe5aQThxZflkrKcVbGR0REJ6XvOySTHVjuqvUQpmq3iqiO7U+PiYlK2lDdf7TiV4az+VP9tJwjfd1nedSxvZVR4RFjs2jewlCwAACAASURBVJ3n5N11eR7ssU6rKjquiMu3Lo+Nj00rqGxVNJcssVZ9Stl4h0bFRkQlbKtWSKt3xSrTsRFRMV4OQypDCRIPyhWVaU4abaAs7aL93OL95u3LXdOXuzBJmXaL93P1F3FEc0+SeP2ijIB5y8IWiveu+XiTj6u6VZSVXYSXS5SXy7pVydqiKfQOu1a6si7Bc6m3S4y/z8G8tE+2LfBRH6vREsPfUrR5RJFU2lTgpx6b5oXsuSSX5AUOXmv914icaHyiSY98Fbjtp2j3DTUKyd4obiZJO6acaJcrpJLDUWrC2mWQM/UIzDATknFzXz9/w3snEFocOHDowIFDPT29DMNIJG3kLfv/kiUJZCy7r69PLu8hr/fee59hmDt37sjlPWvWrEtOTnnI+ff06VOGYf766y82r7KyytrG/smTJ7/8cqe9vYO8rl17j3inRNLGNlgsbhoYGLB3mENy/N4OiIqOZV8N4kaGYbKyNrE5UdGxrm7z2cORAAEQmJIEIJrjEM3eomgBRbtn1CjKU+0p2irpqKK9KIbcHzxzWxsbkRlPKLQQmVuIrBLLumWVCZaDWqYUTdmpZHX40zKpolt+NtV+SPj03GTzNtRLJUXBag8zc14QERXsKBg8dn7mRWlrSag6DCZKKG+XnUnhqiStb46mSqAV5Sn2OhswytB5aXy62oqcw5f0lcatVveXrc0nPklbND1jEvv2hi5W94hvOyfez3HuRCxOF0SWSuQtOaqwK0XzA7dLpM27Aljv1HuNSJvHJ5qjXgVSOUW7rDur6CiKZfmwCYo2Fzm5OVgNrvNl85GY2gTWrFnHMExbW7uL67yRJmVy8zdlb+YCyd9RwDDM8uQUbibN48+b7zEwMMAwTEpqGvvR2/6BDMOcPHma5Pi9HXD4SBl5na0+R8p3d0vZzGXLV+zes5d7CM3jL01IYhjm4MHDbLWOTi7Pnj17+PAhm9PVLdUbb1V+WFxSypZHAgRAYEoSgGiORzR3h5sRVziy3JaiLRKODEkDZeGTXHi+ufsqO1QtlZ9frV4EoxTNlt0BarWiFhQ0yy9v8jFINIXKWGnn8YLMZfHRC3zdbdROSe7LiKIe6akNziq7NbcQmfvl1crb8gKGaqaMJ5p7Fi1ie+Qd+mFpYi5HcEnzdIqmuU/YtdLUhmT/1QEuoS62dvyh1r7iDxsZPb+QowwOUfSCvEaFeDtnJF3vNSKnHp9ojnoVSOV6RPMVO47DTZEAX2D+3Xe3GIbx918w393zp5H/3f75Z6Ju5eXHuD0lIrg0IYmbyZshIJHOl4dsz9/BfrRkSYJytuXO3WwOSXh6+X578yYRza5u6ZGyo2TPSzv72b///oBhGO5KoIKCXdwZnDSPX1V1nGEYDdF8/PhJQGCwztfy5BSIpsYlwFsQmJIEIJoTKZoULQzc3irtatiZGrUgMCQgMCRgfVWXhmhe3jUkmoEFTfKWbF+DBIuibQNWFR0+I25se1fWc627s3l/mi+7V1F0yRVWbdWzMDu3BQ/VPJpoJh+WjzeiydneiPIKu16alDtn6Lzkx0anaFK0ecji0LM5Sb2Fq2/sX/uvouUnwuzZHr3Kz9vg6Hld3nzajPLdelHetmXB4IUe9RqR845PNEe9CqRyinZNrx6Kgr9KT3HsFCCQszmXYZjOzi79fXF0ciED1n03bpCtiNjyxcWlDMPExi1hc2gef9XqtaTav//++9SpM+xH5HQr01azObwZgrRVax4+fHjr1vebN+cxDPPpp58xDPP++9dnz3GuPlfDMEx//8CdO3fYQ2rO1zIMExU1GJV3cnYlY+4aosl9yx5LEu4eXhBNDSZ4CwJTkgBEc2JF03+zWNFaGM1TR/jo6IPdGqKpGdG8tNFbU8v032oULRDauoduqe3sPpFkM3isMpZWvSOM2O3g/4FO6hFtVWBP79A5L26fTHF6ve75UqMMnY9XNNluUjTf3Mo2OnHpx8Wxq7SG3dliY0qoRs/F6+ebeWU3csfNKXqUa0TOMpJo+m1pkTbuYCeSUov3tcvr1rkYehVI5RTtlyNWNOXr2/h6TJ1FYdMl4OXt9/jxk5cml5e3VU8vEhKX3b//O8Mw5eXH+ALNFYQHDx5+GV989OgRd7lPdk7uDz/8MMdxbt+NGx999DFbOVnWM2++ctdMslmmXN5D5HL2HGd21Xlm5sb+/v5ff/310KEjfTdu1NZeYBiG3Yfo+vUPXrx4wT6I6NLlloGBgf/+9xuuWXZ1S1+8ePH11//V+SJBXAyds9cFCRCYqgQgmhMrmh6ZtQpJyRISlqNooU9uo+bQOXeOZqKuOZrOiTuP15RvjdZ4Ns/cmJzc9Eg7tcJS/vlieXOW16DiKGcHinf4qKchUjYegcEBjpzhdYq2TCxTSCtWWqpr4N7TFO2RcV7RcSBR55MnKVqwMl25j6aV1rEa+2iOKaLp5h+4J8rFQV0n5RYsL12+3Xls2s3tBTdNRs9Pp0dl1CjE2xcNrUCnR7lGpBLndTXSrv1h6raxNdulnZJKTyxT+/3c9PNSaVkMd6as3qtA6qFs0ypkioqVg2sm2MqRmG4ERLNs//e//5HR8NzcLTq7b8afeeLkKbK/ZvySpTrLHC2vYBjmww8/Ist9bt787uWOlWGLI8iWRmerzz19+lQgtCDHfvXV1/fu3WP3hL9woe758+dlR8uFMy1fPtcnMjLm3r17JN4ZGRnT1S0VzrS0sXVYn5HJMExc/Ds0jz/DTPjb/fvffPMNqTA4ZBHDMJWVVe3tHRqi2d/ff/Zstc5Xc/MlRDR1Xk1kgsAUIwDRnFjRFPjkiLtlLQezUqKiE1JyK4/ViDs0IpqXxVVHVavOV5BV5+s1Vp27rK+V9VyTyk8usx6mXHbLKttlksMbUyIXR4RFr8w90Slt3R+m3sNItd65t3Z/dlJ0TGTShr3nZF0N+b7DF9YoZ4i2V+cmxqlWnUe4q22J3NMeG8XS7uq0ubqBKIWyKH5PEFl17uKtjjvqF007p7lR7KrzwuhNqnTUfFsirA4h0R+VrjgT57nE2yXGz3PPxtS+PeGstJFWUbTPposKaT1nfb1hu3yT0fPumrpqedvWoKFOUfQo14iclxe0q0neUZaVGKbavz00wJU8FYmyX3ZYomg+WbAiNj5uTVF1u6Jhd8TQPvbKVeejXAWKFnhk1XdLz6RoTTBQBZ7DCiQK6cl0ey3HnWK/etAd3gxBZ2cXmdfIMMxIokn2MPryy69mz3EeCdqpU2cYhmHH08vLj5EZn6R81sZshmHIXkVkwJq7VFw0y3ZRaDgpWVdX/+3Nm3Mc52qfaN58D4ZhGsSNNI+/aNFihmHYx13aO8y5det7K5G1tmhyvVOjTgydawDBWxCYqgQgmkMKYsg1Vq3O7tW3GEjoHp9/srZF1t7Wero03XdJsaZoNhVEh2+ruNjV3tFeU54fobWPJt9/08lWWWPFOjd1eJI0jOI5h24sOy3ualfuo9lRd7I0LcCWbbNyH02/1TurxI3tPZLW5uMlOaHOQ7tsDtYgCk4/1HCpS7lQSSpvywscJrKUdVRhs6K9uiDYTseSZ8rCMWdd0tV9ysmUfaUpheqdI/WLZnyasrzGq29HsL/KoihaFB0X2bxj5YfKfTRTuzYtznDTHBOkhEmHZApJYTQbkmS7PGpCNXqukF7aE6hBUu81GmRF2wakl1VfknWptiCVns10UpufyCetoFLc2C5vaaw/lLfUZVjYeJSrQNHmjjFFtdIrNXlBOmejUnPWHZfr2NB01M6igMkRKCzc93Kp+I8//piVtYmI5q7de9lNiNjEu1eusLsRsZkkwapne3sHwzCiWYO/EM5Wn+N6p6eXL8Mw9fUXaR6/uEQ5mzOZsz594cKwzMyNmZkbt27LJw/AJG/J/xs2ZBGwvBmCn3/+5a+//pplbVd1/ARrruRTF9d5NI+vLZrPnj3btXuvzhexYQydm9x9iwaDwFgJQDTHJppj5atRXhlTvDS0GEjj0zf+VuC55nDTu92tF0vTQ0Z6UuVrbqRqKY/i6Ard+y695sa84ukom7DMMrFE3ltbtMxppCX2yh3ge4uiNYX7FU+NwychgbKj5Y8fP/b1809alkxE88yZs9pPA/r111/JxpbaH7m4vEX61XfjRn//ADsa3tTU/HLvdwcHR7bX7733/t9//+3u4fX77w/u3/+dHUZ/GUQ/efI0GbvX+f/AwABbSVFRMcMwewuLyGRQ7ami2qLJMMyTEf799ddfGDpn2SIBAlOYAETztYsmZ9X5ZLyxRN6xWSUVe1eQzd7feAstkyqk8sZMj2HB1zfeqvE1gHJZta+8aG2kux6JV84NlVev1NofanxnxFGTmYBwpuXi8Eiax2dFU2drydB5c/MlnZ+SzDt37vzvf/9jC3SrNrCcaW7F5pBTkN2Rdu3ey+bTPL6VyNreYQ554GRJ6X57hznkNd/d88GDB9c/+IAtbGs3++nTp2T/I+4OmmwBbdHE0DkLBwkQmLYEIJoQzddKYKw/af5bW6XtxaHDx77HWomplKdofniRjPuIS1NpOdr5KgReUTSd57qyI+OkGdevfzAwMBTgJMt3vr15k2GY7767xQ1nkvIODo737//+xx9/2NnPZjty/rxymTlRYTaTbHX0+PETdvk5+5HOofNHjx5Z29jrfC0ICkFEk0sPaRCYqgQgmpNas6bqbYd+gQAIsAReUTS3bc9nGIb7rKDPPvv8zz//ZOunefyQhaF//PEHwzB379718X2b+9FLQXSe61p/sWFgYODRo0cVFZVOzq5k/ujp02e5JZ2cXX/66SeGYZ4/f566chX3I5LWjmjqHI7nZmKOpjZG5IDAFCMA0YRoggAIgMCbJPAqosmbIejr6/vnn3/YhUEzzIT37t27/fPP7N+q8Iiox48fv3jxguyXef/+7wGBweynbMLdw+tig3hgYKC/X/nUyo8++pg8GYgUsLax//LLrxiG6evrezmj9J9//omJjWePJQlt0fzrr7/WrFmn87Vjx05ENDUA4i0ITEkCEM03+QdmSt5S6BQIgMCYCOgXTYfZTgzDjDRHMztH+VQhsbhplrWdaJYtb4YgMWk5wzDXrr1H8/i8GYJ16RlPnz59/vx5+voNvBmCw4fLyIZKW7Zs43okzePzBTPT12+4ffs2G3Hs7paGLY6geXxHJxfil3J5j0BoQRzxyZMnWRuz2RVIOofOMUdzTHcCCoPAlCQA0YRoggAIgMCbJKAtmp6ePgUFuzZsyFqxIvVig5hhmKqq49p/gdw9vJ48eTIwMOAfEJSbu4UMahNN3Lgpx8bWoaVVwjDMs2fP2AdO8mYISvcfIGX++99vIiNjeDMEC4JCSvcfuHXr+5ebFn1782bSsuS3/QNJ+PNs9TmyhTt5IqW5hYg0g2wRTx5xaWPrQDLZiOb58xdaWiV37tzp7x9oaZXofJHnsH/11dctrZKsjdnavUMOCIDA1CBgeqI5NbijFyAAAiBACGiLpr//AjasSJ4t6evnr43L18//6dOnxcWlNI/v93bAe++9//7713t6erNzcnkzBFKpjGGYb7755m3/QI1jo6Jjf/jhh+fPny8Oj2xra2e9c3v+Du5SocjImKDghWQk/ezZauFMS249mZkb//777+++u2VpZU3yWdH8+ONPvh3Lv5LS/dyakQYBEJhKBCCabzKSMZXuJPQFBEBgfARcXOdtyt7s7TO0RkcgtEhMWr5iRWraqjWJScvtHUZ8WmlkZIwZf6bO885xnFtefszCcpbOT61E1stV27bHxMaXlx/z91/AHQTnHrJjx86169Zzc9i0f0BQyMJQ9u3y5JRt2/PZt0iAAAiAAM3jQzQhmiAAAiAAAiAAAiAAAkYhANE0ClZ8iQEBEAABEAABEAABEIBoQjRBAARAAARAAARAAASMQgCiaRSs+AYDAiAAAiAAAiAAAiBgyqIpsBQIprImUjTfTGhhRk+Fx3zjJw0EQAAEQAAEQGAaEjBh0XTLqJPKey9dqMgOn0tPLRujeHPDcypqWuXd8lPJNhDNqfx1Yhr+0kGXQQAEQAAEpg8BExZNgaNvYGhiRrlE2n0iyXbCbMwnPunG/rXk1VcUFvUmFNZ+xfEOWcv+9KUhQd52/Anr2vS5rdFTEAABEAABEACByUDAhEWT4KNCdl+WN2/0mjAbs7R3jPJyifJyWb1y+ZsSzYDtEql4m9ebcNzJcFOiDSAAAiAAAiAAAlODgMmLpjChvFt+apkRxpfdoxPelGh6ZoulrXsDIZo8DJqDAAiAAAiAAAiYMAGTF02PcTkZRZvZungdyEzqKVx1fXdSdZK7h0AzJjqSaFK0RfDixQ35qR+UrPm4aIVkfUiSw9AdYEjNo35HcVh1RiorizHTbNKoB6IACIAACIAACIAACEweAiYvmosL5dLqLOexBv9svWqLVsvWB63xn5cUFlK/Z82V1fNsh1cykmgKvcOula6sS/Bc6u0S4+9zMC/tk20LfNhjDah51MtvnlQhlVclWkI0hwx+VGgoAAIgAAIgAAIgMNkImLxouqSf75RUpvnOtbYSmVuIBIYtnfGMTezbExatLmwdFPVRaXy6aJjYjSSanjGJfXtDF6vNkm87J97Pca46+mhIzTpvAtVmRsouiBy8EkpaO89tmqc+hc7yyAQBEAABEAABEACBSU7A5EWT4rnEFzd3yBWynmuynmvlKfaGEI9LW9W3yc9VKLQgL9cFHaUr9roZJJrmPmHXSlMbkv1XB7iEuthqrAo3pGadLaRol3Vnlb2QyuX1FbkhNgjmgQAIgAAIgAAIgIBpEzB50bRLrGjtri9YERMSFBIQGDLfXqhT4zQyE1avZvcwGtzJqDR1n7tBoknR5iGLQ8/mJPUWKiv5V9HyE2H2fHX00ZCaNRpD3lK0uYOnsgtBYctzT3ZfOrjMTl2nzvLIBAEQAAEQAAEQAIFJTsDkRTO8SC49m+k0RidTxh1zQ6LnOS4ces1xMTdINNkrStF8cyvb6MSlHxfHrlLPpzSkZraGkRLmiRVSeWWCxbD2jFQY+SAAAiAAAiAAAiAwOQmYvGj65bVImwr8xiiaypmUO0ICeYMmR1naLnSf46yeskkulWvk0r594TFaNbv5B+6JcnFQ51NuwfLS5dudB6sypOZRbwXblael8vJYrYXwox6IAiAAAiAAAiAAAiAweQiYvGiKkqvGE/xTrQ3vWBOQ5ue6JNivLG/lJ/nBC9TeSS4Pb37Iu6Wp1bHzo1X7t0e5WQtVcukQEv1R6YozcZ5LvF1i/Dz3bEzt2xMew0qhATWPevndN4qlkqJgtcuOWh4FQAAEQAAEQAAEQGASEjB50aQW7m2RN2Z6jG2UWbnbpav3gayk3qJV1/csF68OjLLVnGyrnIsZFdmyK+2T0jU39q/t2+zvojI/ihZFx0U271j5oXIfzdSuTYsz3MzZS2tIzWzhkRKB2yXShq2eEE1s2A4CIAACIAACIGDKBExZNAWWlrbui7fXd8lrVjmNTTRHMrxJkj83vUbaXbNpkZu1paUZdNOUf8AmyR2FZoAACIAACIDAGyFgwqLpllGn3AyoW1KWvsB8atkYZRGUXtHaIVdI5aeSjfB0zTdyq+GkIAACIAACIAAC042ACYumwNHX39fbUSSYkteMos0tHT28Arw09umckp1Fp0AABEAABEAABKYkARMWzSl5PdApEAABEAABEAABEJgyBCCammuApsylRUdAAARAAARAAARA4M0SgGhCNEEABEAABEAABEAABIxCAKJpFKxv9tsDzg4CIAACIAACIAACk4EARBOiCQIgAAIgAAIgAAIgYBQCpieaDo4uk8HQ0QYQAAEQAAEQAAEQAAH9BCCaRvF3/dDxKQiAAAiAAAiAAAhMBwIQTYgmCIAACIAACIAACICAUQhANI2CdTp8R0EfQQAEQAAEQAAEQEA/AYgmRBMEQAAEQAAEQAAEQMAoBCCaRsGq3+7xKQiAAAiAAAiAAAhMBwIQTYjmhBIQzQ8K8hDSZtPhh0e7j5TIOyjQ1Zw3TbuvDQQ5IAACIAAC05wARHNCNYs3fWujePaB6Ydr269KT6yznbai6ZZVLb96+VxJsrf1NP/Ngu6DAAiAAAiAAM3jQzRNSQ0pWuiVkJOR4Mcfi8lRtFdWnaJL9m7Fyjk0j0/RHpm1vR3dihNrJ2xHUoq2XbhD3CmTlG2Mm2cj5P5oja/N3BomNu2RLZb1XCMvaUdx6FhIjtoSija38U7cfLJD2lGz3tdy1PIoAAIgAAIgAAJTmwBE07REU7SsXCEtTzUfix4R0TxTXdtxZIUlbUbN3XBGcurYuYkUTeGiwka5rDzN3UyrYRQ9njYb76fOwjUkNCwiNCxiWWHzhIsmaTYl9Nlwpre7Ns8DY+jTOMZvvHsYNYMACICACRGAaE4X0azavvN056FIoZl92hlJ8abNdRMmmhRtvfRwj7ROt1dNNtFkfzjdMuqMJJo0j88P2iWWd+0MM2dPhwQIgAAIgAAITEMCEM3xiKbIO2V7xcUGiVzS0nyyNDvUecgnKN+tF+VtW2KjNh9rbu2UNV44nhvtxsb5KJpv7btqZ6VY3NYjuSw+sm2Zm/nQwhGKtnRPKjh8rvVyZ4/kUlNV0YZA+8HmUcG7LskV7Jjv4Miv/Eph1ODhemomEc3qzPiM810FofbLKmTFcaG5jUOiqee8NI/vndMsvbwrOiyvvL6rraOtpjw/3Gmov6qx+NACieLilgUaPz+jtlmjvOFvKUFMUZuiMX8hrQ6gUvzFO1sV4u0hJEd/j8iJRhLNgG2tUnG+N1tzWJFE3rB+3uicue2neIt3ShS12X7cTJK2jiyq7+xtrdkeKBy69NrFkAMCIAACIAACU4AARHPMokk5ppRJFJdO7kqLj4tKzCqu6+28kO+nlgaVaHbWnizPXbk0KjYt51ibtLt6pbNaKZxWVXRcEZdvXR4bH5tWUNmqaC5ZYq12GkF48WW5pCxnVWxkdERC+p5zMsmx1Y6qTykb79Co2IiohG3VCmn1rlhlOjYiKsbLYfSaiWiez/b1ym4U79l9sKNiiWhRfuuQaOo576BotoqrjuxOjYuLSdlS3ny141SGs7rNStEUJB6UKyrTnDR+HkZv83jHVSnaPKJIKm0q8FOPTfNC9lySS/ICB6+m/h6Rdo5PNGm9V5AlQNHuG2oUkr1RbA6bcEw50S5XSCWHo0TqazdeDmydSIAACIAACIDA5CQA0RyzaDqtPSftqohjLcF/+0V5Z36IOvSojGhePbrCnlxvyjbtmFxxeJkNeTs/86K0tSRUbaWihPJ22ZkUtSzyzG1tbERmPKHQQmRuIbJKLOuWVSZYDumInmFoPTUT0azLCaAC8sWyKx0VK0V0WIFkSDT1n1cZ0ZSdSrYdbIZlUkW3/GyqPadVFiuOyBXlKYNd1rjR9bRZo+SY3goiSyXylhw/ZTMomh+4XSJt3hXAeudoJGkef3yiqYczt/0U7bLurKKjKJabSdIUbS5ycnOwEmh/hBwQAAEQAAEQmGIEIJpjFs2gHe3Sujx3dUiPovk8vpBWK44qotmxNWjQwyh6cUGLrGrdfHLfRBT1SE9tcFZ5pLmFyNwvr1belhegLmzhk1x4vrn7KjtELpWfX+3EUbqRF9boqZmIZn1eIMXzSy08tDFyDkWH7eSIJqX3vErRbNkdwPZ3QUGz/PImH06r3oRoktHzCzn+KtFckNeoEG/njKTr7RG5FuMTTT2cub8a9IgmtxjSIAACIAACIDC1CUA0xyyaITs7pXV589XipXF/kDmaeYFDHsYtEF1yhZVI9TzLzm3BysIULQzc3irtatiZGrUgMCQgMCRgfVWXwaKpt2bl9kYX84bmUHJFc9TzkjmaQ6IZWNAkb8n2HeogZZF8+LVHNAdHz1UXYnBe7AJ1UNkAkuOOaOrhzL3QFO2aXq1oL4rhZiINAiAAAiAAAtONAERzzKKpjGjW53mMSzSV8bDqHWHEIwf/D3RSjcJTtP9msaK1MJrH1hx9sNtg0dRbs37RHOW8uiKalzZ6c0STF7dPpji9fjBqq/EjZKShc5rHV42ei9fPN/PKbuSOmxtCUo9o+m1pkTbu8FFfBWrxvnZ53TqXwf7q4cztOEX75YgVTfkLuZlIgwAIgAAIgMB0IwDRHLNoOq+rkXZVxA+bo9k1fI5m20gRTeUMP/EOH3ac3cYjMDjAUTVlU7WPukJSsoRsxk7RQp/cRq2hc8vEMoW0YqWlWoPY+1VvzfpF0yOzVt95NedoJmrN0aQ9Ms4rOg4k6nzyJEWP2Ga28eNLkNHz0+lRGTUK8fZFQyvQlTvS6+sROZ3qOu4P0yJpl3ZKKj2xzGbQLOemn5dKy2IEg2/1cOb2grJNq5ApyA753HykQQAEQAAEQGBaEYBojlk0KafUo23DVp131RX4q9f36B86V61Z7q3dn50UHROZtGHvOVlXQ76vmVJiKFrgkyPulrUczEqJik5Iya08ViPuGB7RHFwD3l6dmxinWnUe4a72Ib016xfNUc6rGjoXVx1VrTpfQVadr+euOqd5fI+NYml3ddpc3TCVNehss2q1NUX7bLqo0BMkHukHkoyed9fUVcvbtgYNndpAkrygXU3yjrKsxDDV/u2hAa4ClXRS9ssOSxTNJwtWxMbHrSmqblc07I6wYH1Uuepc9xVk20nRAo+s+m7pmZQ5g3rKfqS60MqVWNKT6fZsnVh1DgIgAAIgAAJTlABEc0hQuDagPy3yXZlf0SCWyCWtl04e2BzmPPTQRf2iqdzt0m/1zipxY3uPpLX5eElOKPdYoXt8/snaFll7W+vp0nTfJcXaokmJgtMPNVzqUi4YksqHQqd6aiaLgUaao6lUH73nVWpiU0F0+LaKi13tHe015fkRw/fRVNZgHVXYrGivLgi207GYeqQ2E8iUMOmQzkWDzAAACAVJREFUTCEpjGZDkvrhcz9VjZ4rpJf2BKqDxOo6DSBJ2wakl1VfknWpNiiVns10UpufyCetoFLc2C5vaaw/lLfURf0tQqWJ+q6gqoC5Y0xRrfRKTV6QzieFUnPWHZfr2HaU2y+kQQAEQAAEQGBqEIBojkc0p8a1N7AXStG8tItdDDTSUQLPNYeb3u1uvViaHjK2J2QqN4RSsBtCjVS/SeRTNmGZZWKJvLe2aJkTX0c4U9kL5Q7wvUXRwza9N4neoZEgAAIgAAIgMFYCEE2I5igEVEPno4um8s4TecdmlVTsXcFuQW/I7WiZVCGVN2Z6jKBlJjWUQLms2ldetDbSXY9qK+eGyqtXqjdPNQQRyoAACIAACICAiRKAaI6iWSZ6XSew2WMQzXFJof/WVml7cejwse8JbP+kqoqi+eFFMu4jLidV89AYEAABEAABEJhYAhBNiCYIgAAIgAAIgAAIgIBRCEA0jYJ1Yr8NoDYQAAEQAAEQAAEQMEUCEE2IJgiAAAiAAAiAAAiAgFEIQDSNgtUUv3OgzSAAAiAAAiAAAiAwsQRMTzQntv+oDQRAAARAAARAAARAwEgEIJqIaIIACIAACIAACIAACBiFAETTKFiN9LUA1YIACIAACIAACICACRGAaEI0QQAEQAAEQAAEQAAEjEIAomkUrCb0VQNNBQEQAAEQAAEQAAEjEYBoQjRBAARAAARAAARAAASMQsCURVNgKRAYBYqRpB7VggAIgAAIgAAIgMC0ImDCoumWUSeV9166UJEdPpemzabVZUNnQQAEQAAEQAAEQGDyEzBh0RQ4+gaGJmaUS6TdJ5JsIZoI7oIACIAACIAACIDA5CJgwqJJLJ4K2X1Z3rzRC6I5uW6syf8dCy0EARAAARAAARAwNgGTF01hQnm3/NQyG4gmRBMEQAAEQAAEQAAEJhcBkxdNj2yxtHVvIOZo8ibXjWXsb0ioHwRAAARAAARAYPITMHnRXFwol1ZnOUM0IZogAAIgAAIgAAIgMMkImLxouqSf75RUpvnOtbYSmVuIBHyMoSO0CQIgAAIgAAIgAAKTgoDJiybFc4kvbu6QK2Q912Q918pT7Cd/GBktBAEQAAEQAAEQAIHpQMDkRdMusaK1u75gRUxIUEhAYMh8e+F0uGzoIwiAAAiAAAiAAAhMfgImL5rhRXLp2UwnzNGcZHMyJv+tjxaCAAiAAAiAAAgYm4DJi6ZfXou0qcAPognRBAEQAAEQAAEQAIFJRsDkRVOUXCWVVyZYYA3QpJjza+wvRqgfBEAABEAABEDAhAiYvGhSC/e2yBszPSCaEE0QAAEQAAEQAAEQmFwETFk0BZaWtu6Lt9d3yWtWOUE0J9eNZUJfttBUEAABEAABEAABIxEwYdF0y6iT9VyTdkvK0heYY47mJJuTYaT7FdWCAAiAAAiAAAiYEAETFk2Bo6+/r7ejSGBCuNFUEAABEAABEAABEJg+BExYNKfPRUJPQQAEQAAEQAAEQMAUCUA0MbURBEAABEAABEAABEDAKAQgmkbBaorfOdBmEAABEAABEAABEJhYAhBNiCYIgAAIgAAIgAAIgIBRCIxfNCdWeFEbCIAACIAACIAACIDAFCMA0TSKv0+xuwTdAQEQAAEQAAEQAIFxEIBoQjRBAARAAARAAARAAASMQgCiaRSs41B+HAICIAACIAACIAACU4wARBOiCQIgAAIgAAIgAAIgYBQCEE2jYJ1iX0fQHRAAARAAARAAARAYBwGIJkQTBEAABEAABEAABEDAKAQmQjQFlgKBURo3DnHGISAAAiAAAiAAAiAAApOEwASIpltGnVTee+lCRXb4XJo2myQdQzNAAARAAARAAARAAATeLIEJEE2Bo29gaGJGuUTafSLJFqKJ4C4IgAAIgAAIgAAIgICSwASIJjFlKmT3ZXnzRi+IJm4sEAABEAABEAABEAABJYEJE01hQnm3/NQyG4gmbiwQAAEQAAEQAAEQAAElgQkTTY9ssbR1byDmaPJwY4EACIAACIAACIAACCgJTJhoLi6US6uznCGaEE0QAAEQAAEQAAEQAAEVgQkTTZf0852SyjTfudZWInMLkYCPMXR8lQEBEAABEAABEACBaU1gwkST4rnEFzd3yBWynmuynmvlKfZvdjk9zg4CIAACIAACIAACIPBmCUyYaNolVrR21xesiAkJCgkIDJlvL3yzHcPZQQAEQAAEQAAEQAAE3iyBCRPN8CK59GymE+ZoYk4GCIAACIAACIAACICAisCEiaZfXou0qcAPookbCwRAAARAAARAAARAQEVgwkRTlFwllVcmWGAN0LSe8/tm4/M4OwiAAAiAAAiAwKQiMGGiSS3c2yJvzPSAaEI0QQAEQAAEQAAEQAAElAQmQjQFlpa27ou313fJa1Y5QTRxY4EACIAACIAACIAACCgJTIBoumXUyXquSbslZekLzDFHE3MyQAAEQAAEQAAEQAAEVAQmQDQFjr7+vt6OIsGkmhOAxoAACIAACIAACIAACLxZAhMgmm+2Azg7CIAACIAACIAACIDA5CQA0cQUChAAARAAARAAARAAAaMQgGgaBevk/FaBVoEACIAACIAACIDA6yQA0YRoggAIgAAIgAAIgAAIGIUARNMoWF/ndwWcCwRAAARAAARAAAQmJwGIJkQTBEAABEAABEAABEDAKAQgmkbBOjm/VaBVIAACIAACIAACIPA6CUA0IZogAAIgAAIgAAIgAAJGIfD/sozfPLiNNP0AAAAASUVORK5CYII=;clipPath=inset(0% 9.33% 0% 0%);" vertex="1" parent="1">
          <mxGeometry x="37" y="770" width="416" height="133.06" as="geometry" />
        </mxCell>
        <mxCell id="SrGXdIxv8m8EbybLDBXi-23" style="edgeStyle=orthogonalEdgeStyle;rounded=0;orthogonalLoop=1;jettySize=auto;html=1;entryX=1.001;entryY=0.408;entryDx=0;entryDy=0;entryPerimeter=0;curved=1;exitX=0.996;exitY=0.569;exitDx=0;exitDy=0;exitPerimeter=0;" edge="1" parent="1" source="SrGXdIxv8m8EbybLDBXi-21" target="SrGXdIxv8m8EbybLDBXi-1">
          <mxGeometry relative="1" as="geometry">
            <Array as="points">
              <mxPoint x="790" y="819" />
              <mxPoint x="790" y="206" />
            </Array>
          </mxGeometry>
        </mxCell>
        <mxCell id="SrGXdIxv8m8EbybLDBXi-24" value="&lt;font style=&quot;font-size: 16px;&quot;&gt;ThreadLocal 只是提供了存取数据的入口&lt;/font&gt;&lt;div&gt;&lt;font style=&quot;font-size: 16px;&quot;&gt;但他并不存放数据&lt;/font&gt;&lt;/div&gt;&lt;div&gt;&lt;font style=&quot;font-size: 16px;&quot;&gt;每个ThreadLocal只允许存放一个数据&lt;/font&gt;&lt;/div&gt;&lt;div&gt;&lt;font style=&quot;font-size: 16px;&quot;&gt;【根据map存放特性就可以得知】&lt;/font&gt;&lt;/div&gt;" style="text;html=1;align=left;verticalAlign=middle;resizable=0;points=[];autosize=1;strokeColor=none;fillColor=none;" vertex="1" parent="1">
          <mxGeometry x="430" y="400" width="310" height="90" as="geometry" />
        </mxCell>
        <mxCell id="SrGXdIxv8m8EbybLDBXi-25" value="&lt;font style=&quot;font-size: 16px;&quot;&gt;同时，ThreadLocal 是用户自己声明的，可以声明多个&lt;/font&gt;" style="text;html=1;align=left;verticalAlign=middle;resizable=0;points=[];autosize=1;strokeColor=none;fillColor=none;" vertex="1" parent="1">
          <mxGeometry x="414" y="510" width="400" height="30" as="geometry" />
        </mxCell>
        <mxCell id="SrGXdIxv8m8EbybLDBXi-26" value="" style="shape=image;verticalLabelPosition=bottom;labelBackgroundColor=default;verticalAlign=top;aspect=fixed;imageAspect=0;image=data:image/png,iVBORw0KGgoAAAANSUhEUgAAArwAAAFoCAIAAAA6n7+wAAAgAElEQVR4Aey951Mb37rnO//E7JqpqdU6CB0B2iQfAwa2QcQCLJKMEMlFMklgI8BgMMkgwCCCA8YIbGNjGWMMsjFIIFCrHejf/u142HNv3VA1c+veF3fqzg0vTtWZPe9vtVrdtFJLRAvzVKmoDit+1up+vv2swL/BBEL4AQEgAASAABAAAkDAK4F/4zUEBAACQAAIAAEgAASAACYQgmgARwsQAAJAAAgAASDgEwEQDT5hAoEJBIAAEAACQAAIgGgA0QAEgAAQAAJAAAj4RABEg0+Yfpi6lCTIZFIRFkAXAElSZFlxYoH99DilQpgwQBQUwKR8nKQgLhAAAkAACFwQAudGNCAsMDDgBIzleWlXJIjMUk8vb+/hL5vDGdOO4tv1xN7G28malNAjVwQJrhR06ZaMhIV4VRN2gZAemRhEBAJAAAgAAZrAWYiGjBs390dycxnLx0WfWlb1t4e36d++Vq50FwYTCBEW2tKu2h+v7I4+GSOHomt/s7v2G4vB6fdvn5YhD2XgFvuYxwgLCimciS+8LvCQF8LCcwcNO1bTTEfp1TARmx3CxGEplfcWzLh5qSUtmL1+qIPI2hdm6+ZDdXmOLCVCeDI8D1UACAwEgAAQAALnlMAPFg3BkVHK5FhlcmxTw01e0SBpVNf9efRG+0mJBlH0f8jLsf3q/t3G2m/GKu2nKZfPRDSERY/8vXCk15NoEOWNfSSss6pEt8MHSJTatvjVstwjPdI4ReZ9E27oT/agV85pP4ZiAwEgAASAwBkQOCvRMJyTw2ulEosqeETD6YFAWOa//7T2m3bp6WXhmjLC+EQDwkLLp7/gK3yaQCgbNhC7Q3Kxa+JeryR1GnDjaBZvc3hNBAIAASAABIDABSTgq2ighxgqkq8t3a//o7bO1JpdGh7I8sqtqtkfzM5g7BBKlv9hqqr7st31TcUdyilLvqbvb/ijttbUIisOd55+6Ek0oPSCv07dso9fPMjLZ7Jgsw69Ip1orbSOqv7w4KbhVqaSUyo2DM/B0UQDwoLF8jeZM/+lQP9/5z6YDy/9rHj/1yuR9voiTCiUDiaN/a/5b/6l4OX/ktHSGSRibqW/lb//u3Llv3N/he//NSX3YJgAYfkaE7nae42v2ILrQyZyuTOdJ4ynW5caF3HrTPFFmiDiCQVcBwJAAAgAgUMROIxoeFC1qs5tyYyvzLv2bvjWnzvT4xgT7l00DFd9aDmI+5e7abFMXLq4HkVDSITCNn7R3Fiz7yIaUJhUP3Zr725Oa1Z8uSxjvr/pL33Z1w4zTn800YDFP81e/m95I3NR+c2Xqw0ZM/+Hg2i4NJil/9e8kRfRcvWl8jdZr/4u71ULbfVFktyI3FuRuW3SR38vfPT2EnV8KzK3MSScIxoCKx8T5LwqmqchEZbYtkSaRpU8YTzdElfpcOJ5ZfBBjp5CwnUgAASAABAAAlwChxENU6W3Q+yWJiS76K9TZWqJ/dS7aPAcly6NJ9HAljW1rMpVNMQqbuyPF90U24shiMvGp+onpIcwh0cTDUF1/2PhG1NkoD2joLr/oZDjaQhu+J8KX32MYO4KC3HF8h9juLKAf3giqPYpQc7WRbJ1dz1AWGzzG9KsLXG95faKbYGlRBwkkVxKrpg07ry9e9VRtLmNBReBABAAAkAACHAJHEY0jOSy8xLQ1ZzvUzWaKz6LBue4NweZuHRpjiYa8m/W7fdfS2HsH8ICBAFCT7MLudVmj48mGsLu/F+FM7pgNt/8Ta6nIeLevxROTIrEYQL6lzSX+/7/TEw5kDJe5jScimigRIb1yy84QXzQdeeEOQ8PsUDgAAgAASAABICAJwKHEw3sskl0NefbVM1Q7CFEg6e4dMmOJhoKaur3+68dZyHAEUVD+391EA25DnMaLvX+K3fKgnLlvxe+/6/SdN9FQ820d09DnFpPbmuLPbWr03WEiS8l5WRm5cjkN7sXLJ8fV0cwiscpJJwCASAABIAAEPBE4HCiwdHTcOAtkFXW7Gty2An5KCX/T1MVnczEQHoSpWPcAy8FXbKjiQbK03D/Wuox7N/RREPIrf9UuPAulMlXWPYLd3iC8jQ8fh2eUhp68CsUceYQePE0CErHreTrlgRPbWbbuCK9y0B+GsjlCePplrhShxPzFUEHIsZTSLgOBIAAEAACQIBL4DCigTsvQabkzmm4JC/dnyhpYuxivLJ8f6KwipmQSIkGz3Hp0sQVlu+PFxQzZphbRPrY7ZwGW6yiGoc5DQ1nMKdBkG2Qv/9/s1R1QWFXREn3kh7/P9zhCWpOw9xrCbOJApJkhaYrRMwUB5vJl0QN/b1wpN/9NgyYtPUdaX5Uye4e7UoDhat0VlLXcNn1ltcr4Q2vcWK2hFMer1EgABAAAkAACACBQ/xrbJu3oGqVswLiz51p7OoJJEl8M3rr+92c5oyrNwvkm9pb1rpYdsifijt681PrweoJbly6GQQJOd+m6vUlCUW2tRLK+FDaZEZEX6F3f6JWT4wV3aXvJoSH2OQFCk9667h64q/9OdmMWPGlgY/maUBYQmTbf7xuWzypeP2XuKYdrmhA1OqJf8ntfxqd1xipnEh58v8pdAsSxyWOIbf+c+GbPycqm22rJ+qCmSmldJmlHQbcolddcT/zAGGB0vYPFnyxjlnU6ktN2TCJHQbcpM32rM/YkHAABIAAEAACQIBL4DCehqGcilTZ8kD9n1z2acAEwtAryY/uVH3Vqn7RVC5WJCRwLDc9PFGdlv3eQ1zbx7c4R1m4Oayid2XYv5dBr8ksUzWx+0yzB9w9IcJikyZbq6yjjX94cPPj7SzXHSC4tXU9PpposBU4UBCaEZwgCxQLUb6JOzxB7dOQpEnS2vZpePW/XeudCb/svAsTCimJG/yf5W//m23Gw3/hTpOkEg9Vjq2T23pNdsTBZhh04REmjirWLuPfl3pk9DJO10rxX8m6b8LX+pJANAjcazJ+enAXCAABIHCRCRxGNHjb1fHCchSW/75w2XqZ2cHpRDgEJt2a/vTNYlydUueIGQOPwuR3Zgwm4uuytjqaI8sOleMV9RJuWbqbFx8aHOx2fORQqUFgIAAEgAAQuDgEDiMaPPzTqYsDi1tTwSVFeFZdeFZ9hPJZxvO/F4z0BzKmnRvsWMeSlJL2Sd1oLTvjEsU2js9qbxcmsjLiCOmjIJlaZzQTJA7/5RKcDUAACAABIHAYAiAajuijFpb/3jay8HfFq/9d1v849FztfIAwcXCUNDkzGf7L5RFUF0QBAkAACFxYAr6KhgsLCCoOBIAAEAACQAAI0ARANBzR0wAdCAgAASAABIDARSMAogFEAxAAAkAACAABIOATARANPmG6aFoS6gsEgAAQAAJAwJUAiAYQDUAACAABIAAEgIBPBLyIhktRsa5CA64AASAABIAAEAACF5AAiAaftNUF7BlQZSAABIAAEAACTgRANIBoAAJAAAgAASAABHwiAKLBJ0xOUgtOgQAQAAJAAAhcQAIgGkA0AAEgAASAABAAAj4RANHgE6YLKCehykAACAABIAAEnAiAaADRAASAwMkRkCTIZFIR88/bkCRFlhUnFgQ4vXfgFAgAgXNKAETDyb0uD/OPws5pd4FiAwFPBJAgMks9vby9h79sDmdFQ3y7ntjbeDtZkxLqKSJcBwJA4BwR8GvRgKJbXhOk9csvTj98tp7+39ApXev4xnAm84b6UdyR8uEu8a4p2tfPKYSJkiu6WivShWdV8p+V5I9q8ePnm1Byt7X6mtO/OEfBtTNuO/zr1su2rhJ9+y1ueaII8LWnHb+cblNAWZpPxMbd1INiICw8d9CwYzXNdJReDROxsRAmDkupvLdgxs1LLWnB7HU4AAJA4JwS8G/RIIpNlyvyqV/b9BZpmGiyHSvyU2MEtnfouRUNkupZkpU+Z9B10E9K8gzQnUYWCLtya5HcnijFHFUjEsdn0h1e0feSIPX3y+kOn5ccRRcj/8EuvnzvqmOs0yghf5rB1fM4MV8RfCAaRHljHwnrrCoxwF3ZkCi1bfGrZblHCuMU4I8EAuecgF+LBvbNhbDcQSP5rjONvUIfgGhwAuL19Ccj6bW+/hkAYYqRbVLfKvVUPHS1Q09YNfkHVhkTCBF2WbVA7j6uOjMHlafipd5bxz9p0hl9gLDQ8ukv+AqfJhDKhg3E7pBc7ClNuA4EgMC5IPAziIYSxcDcmmVr26Sf6ZNHc1yjaX2rxFZvifLe3Lpxx/rx/Yvuonj2SwhhwtC0xqF5g2Hri2nD8LS/Ol588I5GWHBilWb6rXFj54vp86fn2rasyIPZDwgLirsxrPtgNpnN+idtGRVTO74NT6Ds4c8u/mec+D6mPMiap98IAkPEQRLHX7DwMF9v/KLhHJGkKaHAmOwmre7d5saO9fPakladF3ZgyRQjZvJNS6I9JCYqefSNO9yeM7SDr/QqijW6D7tb5u13s/25kQetwH8XBV7Jb3k4v2I07hKfVxc1delBB/lSAne5+0bx/VcrJsK0YZjuvE6P8SNMWDhOOI21Wb/8ghvHZEx0urQC5UOzS49CWN6AkfzQW+GaMh3ryGWmoofl3J5a/mgmPi89Li/sdJIsKCxLNbb4ftNqMhoeNl6rfPQd16lCmDIjLF9jIld7r9HFcPsXCa4PmcjlznTXu6GF2g87X41L97NEB/xdg8EVIAAE/IHA+RcNRsOLZ6OqsrIS1fCCiTQvqGPYdxklGnaWF2a7G8qVJaquuS3com+IYV5M0Y0683fDbN/NkrISlWbeSK5P3ghl4gYWTGwQppmuxpLCIkWF+sFbq2muKYq5G5DcvWT99uFJV1Vxadnt8SdvDNsur3i3rYvCUvKVJQplRb+exPXDJdRxiUJZnHyJKRWv50qh/epkcnBiqyfLp7h0efhEw7kiafvyjpA/WLeY18ba6oqKyhs074wEPlkWaa9pVPNL4pu22P5pizBp6zty84GC4RBR/5zE3+u1o+3lxWU3Wp6uWEnD/Vx6vABh/HcjFVqjxbikab6pLKpWTxrMhHlIbh+wR2GqOYJc1s9q2+uKimvuPDNaiO2BXKoYCBNfTrMNt7U9NxOfR6rpoTdFfmY8u9yALt4V9Tt896HcUQ6iMJWOTvmOc8o0Dd4a8ZZZkNi0QOx8nO+4WV5c9+CJ/qOJWGpknhQkiKubs1o2FntUlcqShu55/fIquT6YRxeVyjqw8jFBzqui2SuuBwhLbFsiTaNK11tRdS+3CRI3TSslh+jJrunAFSAABM6AwPkXDdY3dcwHYtQtPU68qg6zv3oQJRr2ntUyViSceptPV4fRWBPurOLGyXzm40ZSMbttXaxjjLdAHB4WJgkQiES2L/uQyhmL9WAQN7HDgJum5IH2jOLbVnDfRAOdNcKOOKdBEi/LzMpx/GXGhBziVcsnGs4bSdqH//AG075YVs9H8uN9uzFDeaObhKFVynSGgBKthXx52/4P2BCW3feZ3J6tZ3wAUY0LJD59k/b8e7mb3LNCbA1fty8HQAHKMTP5vivD3riZmo/Et/nGWLv+iFYvEORsnb2QdJgI1WvcOlvC9B/6IvevfMyKv+24wohUTspfdaoY+6ljyscpc0C+doP43J1BeekQJpSP4vjOVD4jWVBa3weuKpJ2vSPIOZV9mgUVJaj2qUsdudWxJRvb/IY0a0ucrttuiSXR8ZdCAl1vwRUgAAT8jcD5Fw3G0Szm3Yquj28Tq+p4xk5QosHcJ2NOseuaTevz5gS6DRTaL/irthjW25/es0xs9WQygYNSa8berVv22C97rizIG6Hmo8Uz+WLFjyxnIhqO33v4RMN5I3m5SU+ZXkb2UXACRALGVROhesU1zCi27Q1BjBTYx5iQpO4ZQc7UhtNIERbT+Nz6+YH9O5j/bnzrCm6aKgihx4lCL2X1vrF+n66yJ2WbJPimnhGyKEb9iuPwoLOTDW7jhv5ktv8wZT4ozCvSPFVOz/alL2ICYXD1HE4s1kUwXZRaW8RxpfDWiL/MSZ0GdhUSwoQKLYHr26OZ4sU0L+GWJ0pG4iBKNOCaPHsxji8a2ArCARAAAv5P4PyLBs6SSyTXmoi1lqvMW9U2p8GT975o8jsrCOgDnNjpz6biIkyUdd+I764N1Suv0V/2Lc+5iyrzH1jwd12saDj8kssjehpOe04Du3j1XJDMHd7FV3oSGdvm9LBdG9jC1/qS2LsF41vESnMs0zfS+9c4GtEpLvJ8F2Gi4qlv3J6DE98+6VqkjE1N7f6Mc+VXvtZIGNoSOSYWC6/RkfizOqf1lmwZ6CkCbztS2Cv0gWvKJk7KRy4zwsSlj77jc00SGyuEUS6B7fGDlR35ozi+1BnHkAwofuQ0gwcF1Ux79zTEqfXktrbYqVJwCgSAwPkicHFFA+Vp0A/KHbz9WdG2UVWEZdwzkMaxooNPvaLHXF/Cj/I0nO6chqPKrx9CEmGR9c9Jy5Nqt0sJ7ANAHMNMfS7vPrrO7HAgrtRZiNc3mZEsp4eW5y7CElqWyK2ZFvsgUea1pPhLgYxBRVhQ+fQe/qKZnY95qXERt84UM5LCJkmv9XwiDf05Tpmypyi8aZ7Ym7oRxF6xxfKS8jHKTM322Bi6TmeHAou1ZvJNm31lB71kY+dhOTuDOK7lPXfwgiqboHTcSr5usfvwuMVmjxGW3mUgPw3kslfgAAgAgfNI4OKKBmpOg2EwlR24DZNmZWdG2XzdCJPeWSZNkzeYEW5RavdH7vDEsec0BFfOkLiuIZgxNj52ndOd03BU0XDqJGMqh14szfYVsfsM2ozo1Za3pOVpLT2FEGGi1HsG3KjNsZlnhEXUzR/shIEEV5oWvpunb7JrHCiHPMcf4MSf5y5l/NbIzxo5M2VSGJGUn5N2hekqKR0rBwYYEwizNWYndwgSVT+h5gRcdsqUPUXXNOvE546UA+eErb7OKdvWShw4Wo5R5pz7m6RJW0LLgtCypxvE3ngJO4E0sXXpwPGAAhJb9HvcwQtb2SjZYX5U6TSdk60RFSZcpbOSugaPteYGhmMgAAT8lsDFFQ0YtXri6/LDzqqi4sKqttG31t21gTTblyjCAlO7DBbr5uP2OmVRRV33/NySgbsELiCl5x29eqKotPT2+PTSBnfwwpfGpnaY2NZ3V5baVk8oEj188vqS1KHC8M1pOKpoOG2SsS3L1LpEYqE69MCO2oeQrJuPO+qUReX1PS8NVnxOJWVtufSuAcfXtbfL5Yoq9YRh2/K+ldmREGHikocOyy+5DL3dDZKPmnHzylBTpaKwvKZT98Fi1dXH0ymgwPJJnJxvYuYq2lZhOLlDkKh8ykIaHqkV9D5OafadytgyhNQ8p7ZOCjqoLGV0eVM+Vpmx6IYX33F8c+b+vbb7uuWlxfkNcnWmty6HqgXCgpUTFty8ommsKCypb3/0avkzaZ4oozmzZZZ2GHCLXnXlYFkye8uWSKC0/YMFX6y77FApOzRMrjGR+II68pAampsFHAMBIHA2BC6uaKD2aUhvGnpu+Lj9xWRcfzHZlR/D2eNBlFg2sLC8ad3eMr6eUqfdmOCKBoQFx1eMzK2aTTs7S8/uZVcfbhtp6jUqyVY/Wfu8S020POyyyeP0jNMQDadNUphxd8Fo/ahrjmfcQjQBJE4s7X+u/2TZNptX9LP3KlK5nhsUlFQ59Gp5w7plMup1Y7WZl1g7Z19+OWJffunEk/8u1XYhaTdHXi9vWKl8F2e6KlLY2Qn0go4hud00Iiynf4Nc6crkZoGwoGTVzFvjF4ttxw7jg0LuXUwgTO/ZxD9q0hwtKH/KxykzJhAGJt+aWt7d3tlZ0mmKYkNS1K8/7u6xww2CqKLuuU8bO8T6+xddhfUjW6T+TpJTmVGocmyd3NZrsiOcF0EgTBxVrF3Gvy/1yNyPJV1ufkF42ebBKTs4BQJA4EcROB+i4UfRgXyBABDwkUBg0q3pT98sxtUpdc6BigqT35kxmIivy9rqaKEbNwOVODV/+au2CDaLdO+n8ZE/BAMCZ0MARAM8qEAACJwQAUlKSfukbrSW3SQNxTaOz2pvFyayMsL1vUbNUSX0DcwWKa4B4AoQAAL+QwBEwwm9Lh2X2vtPA0NJgIA/E0CYsEBrxQ0DKY7DMf5cZigbELjIBEA0gGgAAkAACAABIAAEfCIAosEnTBdZV0LdgQAQAAJAAAjQBEA0gGgAAkAACAABIAAEfCIAosEnTKAxgQAQAAJAAAgAARANIBqAABAAAkAACAABnwiAaPAJE6hLIAAEgAAQAAJAAEQDiAYgAASAABAAAkDAJwIgGnzCBOoSCAABIAAEgAAQANEAogEIAAEgAASAABDwiQCIBp8wgboEAkAACAABIAAEQDSAaAACPyMBSYJMJhX5tjczkqTIsuLEjv9EFF6OQAAIAAFXAiAafkaDAf8I4wITQILILPX08vYe/rI53EfREN+uJ/Y23k7WpIS6viPgChAAAkCAJeDXogFFt7wmSOuXX5x++Gw9/U/zUrrW8Y3hTN/ejGydT/wAKR/uEu+aou3/+RdhuYNG8l1n2olnxJOgtNPAUsLNE/mOTBCW3L5C7lq/6RouYwIhwqR3lr+aLeTL27E8acKtoxFAmCi5oqu1Il145q2AsPDcQcOO1TTTUXo1TMQtv6dS2fqDOCyl8t6CGTcvtaQFc2PBMRAAAkCAS8C/RYMoNl2uyKd+bdNbpGGiyXasyE+NEdhexyAa2LYMisuh4VSPrXsSDYv6ZfPT2mAsAF1pWzS9mnsLouFU/EwIk1TPkqy0ZduIlm6n2gqivLGPhHVWlRjgqFdsysB9qQ6KJ0ptW/xqWe6RwjjFBfZUsf0BDoCAWwJ+LRrYEnv6dgfRwCJiD+JbVzyJhuf3h17vPCkUBUSqFk0Td++tgGj4AaLh9FoBYaHl01/wFfdW35OUYXsOJhAKZcMGYndILuZehGMgAASAAEvgZxANJYqBuTXL1rZJP9Mnjz5wyaK0vlViq7dEeW9u3bhj/fj+RXdRPPsFhjBhaFrj0LzBsPXFtGF42l8dL7aPL9g+y4ITqzTTb40bO19Mnz8917ZlRR4YGIQFxd0Y1n0wm8xm/ZO2jIqpHZ+HJ6h8M5tHXhgMW8TmR8OzwXqp5CBfTCCUpNTd162umQjT5vrCVGd+zMEbHGF8paIblUc06O+Utb7b1eRHVuusE6X53R8PRAN/yrQ4K5L3zH7Y3TJvLc0OFEQflIrtTK4HKKj2KbE5dGdYb7J+eFSXnNe/aLR+eqXJD2eHcvhqdOR8MYFQEBgiDpI4/oKFvn1DI0wcW6KZXdky7ewu63rzah/uEm9VUWyZPfYclD382WVADSe+jympuLSn4fRaAWH5GhO52nvNqSH4S8UNjATXh0zkcmc69yJ9HFqo/bDz1bh0P0vk0F1dQ8IVIAAEfmIC5180GA0vno2qyspKVMMLJtK8oI5hHLM20bCzvDDb3VCuLFF1zW3hFn1DDPPKi27Umb8bZvtulpSVqDTzRnJ98kYoEzewYGKDMM10NZYUFikq1A/eWk1zTVHM3YDk7iXrtw9PuqqKS8tujz95Y9j2WTRgV27P7+7Z8i0tUQ3Mb5IbT6rDmJRRVN2Mify8MKwqK1VWtk+sfN15P5DOvKb5S0V3Ux7R8K4zLbnzo+HByGOz7oYkb8B4IBr4U6aMt9Hw/OlIfWlpcV3v7Pqe+VUry5nn8bCJBuvyRHtx1ZjeuvvhSV9Zec+8idS3J9OxTilfTCBUaL+ykzzoA5zY6sliWp/X/yyQduqte2vPeqpLqPZ9+t5o4YgGzHPPQWEp+coShbKiX0/i+uES6rhEoSxOvnQgGk6vFVBg5WOCnFdFO7UIf6m4gRGW2LZEmkaV3Iv0cVTdy22CxE3TSkeN6xoSrgABIPATEzj/osH6pi7Sbgmibulx4lV1mP3UJhr2ntVG0u2HwlVzBDldHUafJtxZxY2T+Yw9llTMblsX62wvd+o7VRweFiYJEIhEtq/VkMoZi3W+ItiecmKHATdNyQPtp/FtK7jPoiGhfY2bb3DFrJl4U89UIfr2W3xXV8q+lzPurxI7Azl2Jwd/qeh68YiGla5MlDlgsH436xokmFxjOhAN/ClTosH6qoZxDwRX6SycMvM8HjbR8FVbFIiwxNYlcrY+EmEhVc/IbW0xHeuU8qUcNvGyzKwcx19mTIi9yXjKjAmE8W0f8O0nCqZvxLe+xzmigb/n8MweoD0Np9cKNtrkbJ29wzvV0ZfhCYTFNr8hzdoSp7i2Sokl0fGXQgJdb8EVIAAELg6B8y8ajKNZ7Gf69fFtYlUdzxUN5j4Zc4pd12xanzcn0K2r0H7BX7XFsB7s9J5lYqsnkwkclFoz9m7dssd+rXJlQd7ILr58L57JFyt+ZPFZNFD5LraxTguU0rPCyVc2uI2v9CQyKSNMKBCKMMapjnhLRdeLRzR86MlCgvT6sScdhZcRJh/iiAb+lCnRsDnCrlJB1zTrxMbdVO8GmBYNIwUBtDV6ejMcYUEVTw/M0inle8wHOFtjxld6EthWoNr3YHiCv+d4FQ2n1wqnKhqOiRSiAwEg8HMQOP+igbPkEsm1JmKt5Spj+G1zGjx5pIsmv7OCgHFf7/RnU3ERJsq6b8R314bqldfor9WW59xFlfkPLPi7LlY0HGrJZdHkd/xVyyXWICX3rBD2fDGBMGdoh2uuuJ3Ma6nowDyiYbXnYLSbKxq8pkzPLTgQDVmaT8RmZ9pxRcPp5XvMOQ1OrWBr3wPRwNNz6Cbw9E1PexpOrxVQUM00cUxPQ5xaf+AH4nY/OAYCQAAIYALhxRUN1PeiflDu4MHOiraNCyAs456BNI4V0Qs7qY5S9JjrSzhpT4Opm/FwUJ6GDz1SRlJw+6jXUtGBjyQavNTXnafhc0fK8UXDaeV7zDkNyV2f8M0HrAcrtH6BOzzB03PoJjiqaDguDSQoHbeSr1vsvjRu5+Hxf3CDISy9ywfE3uQAACAASURBVEB+GsjlXoRjIAAEgABL4OKKBmpk2jCYynr+w6RZ2ZlRtmFs295HpGnyBr05D8JEqd0fucMTx5rT4DiXwjanYbGWmS4Q07yE7+rKHOY07NJzGryWim5UWwoP5Y6yw9s3rvTOMl99nec0VB5uToOn4QmvNTpyvsec0yCipsHicx2KuMhLUem1Q3oLd3iCp+fQTYCw4MoZEtc1BJ9tKyBM2vqOND+qdLt7tKdSse8CSliEq3RWkt4BjHsdjoEAEAACNIGLKxpsc+C/Lj/srCoqLqxqG31r3V0bSAughycCU7sMFuvm4/Y6ZVFFXff83JLBzJm1EJDS845ePVFUWnp7fHppgzt4Qe8qYZhS22bO0/PnSxSyBPurPKZpbuf7qm1mfkn9/bmNvc8PK9lVGyi6/tmWw+qJ3RVNhl3KeCkV3aIC2fAnwjzTXimn98XKjAvEAryJBi8p24YnDM+f2VZP1NKrJ1p8Xj3x1bNoOK18j/l4IyxGMbhstC2etJj06s4Zrmjg6TlsvhSxbX13ZamtDygSbZNzz6AVpB0G3KJXXTlYHswWCRMI3ZaKDYCwQGn7Bwu+WHfZjQ8J2WbO4gvqSEclxEaHAyAABC4CgYsrGqj9EtKbhp4bPm5/MRnXX0x25cdw9ngQJZYNLCxvWre3jK+n1Gk3JriiAWHB8RUjc6tm087O0rN72dVutpF2njDx5k607W2LMGFYxq1hKl96n4Y6qeOUfklaw4BuzWAiTMbPC4/uyX0uFd1fERaeqZ7Rf7bu2mwebsuX31xRn5i89aWMzSdNUUG/bnV327y9NDugOMQ+DR5Fw+nle/xHF2FCUXiiNCUpMkiIip9whyf4e469FSTZ6idrn3epibTsUs8zaAUUqhxbJ7f1muwIN8sckLtSMd1GHFWsXca/L/XInHa/tge43PyCcLMJxPFRQwpAAAicIwLnQzScI6A/ZVEp0fD5B/yPjx+Vr1MjRqhe4VZdGWfvL6cAZ3PqI43ApFvTn75ZjKtT6hz6X7R4LR4Kk9+ZMZiIr8va6mihGzcDlQI1y/irtsinTb285ggBgAAQOKcEQDS4d+Se0+Y8pWJT5oqzSuWUcnFN9kflS22oHJ1p+18ehYqqezPrpEnXwC54cS3n2Vw5BA1JSkn7pG60lh324i8him0cn9XeLkzkERnUXBlC38BsZMKfINwFAkDgZyUAogFEg3cChzBXvDstHvYp+lH5YgJhhOqVbWRhz2zcfDXVcY2zifhha3FS4X8gDYQJC7RW3DCQAhMaTrSHn1TfgHSAwJkRANHg3WSeWWNARkAACAABIAAE/JkAiAYQDUAACAABIAAEgIBPBEA0+ITJn3UflA0IAAEgAASAwNkQANEAogEIAAEgAASAABDwiQCIBp8wnY2Cg1yAABAAAkAACPgzARANIBqAABAAAkAACAABnwiAaPAJkz/rPigbEAACQAAIAIGzIQCiAUQDEAACQAAIAAEg4BMBEA0+YTobBQe5AAEgAASAABDwZwIgGkA0AAEgAASAABAAAj4RANHgEyZ/1n1QNiAABIAAEAACZ0MARAMjGiQJMplUBFvrn/TW+kiSIsuKEws8/O/Ew2SHMGGAKCgA2ugw0M7mPQK5AAEgcEEInBvRgLDAwIATMDyu7YoEkVnq6eXtPfxlczgYpJM2SCi+XU/sbbydrEkJdYXv4xUkuFLQpVsyEhbiVU3YqXQDH0sCwYAAEAACF5nA+RANCAttaVftj1d2R7sxGCggoklVbh1r+uepW397eHuzKNz3FkVYeO6gYcdqmukovRom8j3iqYZE4pvTBGkaVZ5qLj4mnlpW9beHt+nfvlaudNRV/HcxgRBh4rCUynsLZty81JIW7GOmTsEia1+YrZsP1eU5spQIoZs+4BQeToEAEAACQOA0CJwX0SBpVNf9efRGuzvRcFle+teJyqnsOGVyrDI5NjviELZflDf2kbDOqhL9yumNAioeEuTGcMFpNPlh0wyOjKLBNjXcdBUN/HfZvJAotW3xq2W5R3qkcYrM+ybc0J/sqFfYxOEACAABIAAEzobA+RAN/Cxyqmr2B7MzDm9REBZaPv0FXzmiJeMv1XHuIqx03Ep+Gsg9TiInHjexqMJVNLC58N/FBEKhbNhA7A7JxWwU3w+SOg24cTTr8E3sexYQEggAASAABLwS8HfRgNIL/mobdPjbw9v7D/LyOWYDYYEikShIJFLcrN0fzMmxHQeJRCKfpz4gLF9jIld7rzlhQkG1T4nNoTvDepP1w6O65Lz+RaP10ytNfrjdMY6w4MQqzfRb48bOF9PnT8+1bVmRzIRKgTClax3fGC6S98x+2N0yby3NDhREH85SIkw5ZiHX+mROBRMEhoiDJI6/YKFv3+4ZN27uj+RWp2a/H2j4o7bWpJYVhR+UOddReKFk+R+mqrovOwwE8MsC/rvUOIXg+pCJXO5Md6qUL6eXGhdx60yxzy3rS5oQBggAASAABA5LwO9FQ0iEwjbo0NxY4ywawtM+MXqCHXQ/1JwGFFj5mCDnVdFO1Gyiwbo80V5cNaa37n540ldW3jNvIvXtyXTIwIKJDcI009VYUlikqFA/eGs1zTVFMYKGEg1Gw/OnI/WlpcV1vbPre+ZXrTHMXae83J4irGB4m1zpynS6q9B+tX75hfvDia2eLAfT7hSFPaVEw4MqQ0tea+bVanmuYfTWX+6mxjGlOgvRgCW2LR1xooa4SocTzyuDfaopW2U4AAJAAAgAgZMl4O+iga1talmVs2gIkKRcjcq9GtV8q35/WNFoO869GpUaFsjG4j+wiQNyti7SKZjt+ldtUSDCEluXyNn6SISFVD0jt7XFdEiBODwsTBIgEIls3/0hlTMW63wFY9Io0WB9VcO4JYKrdBbiTX3kIQwewnIHjeRSR4pTwSTxssysHMdfZkyITylTomGqTC2xB44puLE/VdrElPlMRENs8xvSrC1xqpSnU9sCS8qtIrmUXDFp3Hl79yojcTxFgetAAAgAASBwqgTOsWhguTgZPPa61wN+0TBSEIAwys49vRmOsKCKpwcGDwWl1oy9W7fssR/9OPGuiZmkSYmGzZFMxsKha5p1YuNuqk+mnS4zwmR966S+Veq1Cr4HsHka8vLYUqXk/2mqsvuSvVRODE9leMIG8zCigYJv/fILThAfdN05YQeDKb7XGkICASAABIDACRK44KKhZprw6GnwJBoQJsq6b8R314bqldfo7/6W57tOomFj+EA0ZGk+EZudaYcSDRn3DOSCOt6ppY8/pyGXFQ2OsxbORDTEqfUH3hqnqrmeIkx8KYlyq8jkN7sXLJ8fV0cwhXcNDFeAABAAAkDgDAhcbNEgoBYpvG5JcAJND094Fg2URTeOFQlYG1b02OIkGpw9DZ87Ug4hGpzKw54ed07DSK4n0SCrrNnX5LDLExDlh6jodBxS4Z/qyH/XtmFDepfhiEtCxJU6nJivCDoBhixMOAACQAAIAIHDErjYogGTtr4jzY8qnXaP9iYapHeWSdPkDaFNNCBMlNr90Xl4gjunofLQcxo8teJx5zR4Fg2X5KX7EyXsFId4Zfn+RGGV4zZKcYXl++MFxaxUctw7kv8uJRrCVTorqWu47Kl2PNfDG17jxGxJIIgGGKMBAkAACPxIAv4uGiKir9A7C1GrJ8aK7tpWUigTwkM4psvJtc5je1xvSTsMuEWvuuLQBt5EQ2Bql8Fi3XzcXqcsqqjrnp9bMpidPA0bhufPbKsnaunVEy2HWj0hSGmbM5hWnjREc6rpWvhDXaGXXHryNCBJ4pvRW9/v5jRnXL1ZIN/U3rLWxQY75i5IyPk2Va8vSSiiWyE+lCu2+O8iLFDa/sGCL9Y5LuP0sQqJHQbcpM12LI+PcSEYEAACQAAInBQBfxcNZaom7nJK+2bGjls5HUc0oFDl2Dq5rddkRxysueAXDdRHsyixbGBhedO6vWV8PaVOuzHhLBo+aYoK+nWru9vm7aXZAcUh92kIuNb3fnfP9Lot4eTMJL9owATC0CvJj+5UfdWqftFULlYkJDi6GWzjC+IcZeHmsIreOWP/XkYsp3gI83gXYeKoYu0y/n2pR0a7Zw7bfbPum/C1viROdodNAcIDASAABIDA8Qn4u2g4fg29phCYdGv60zeLcXVKnSM+CbNErZ74fDAR0msBfu4AKEx+Z8ZgIr4ua6ujXYSIj3W/ol7CLUt38+JDg4P9asNvH8sPwYAAEAACPwcBEA22gQlJSkn7pG60NvSkRANn9cTP0VGOXAsU2zg+q71dmHgcQYaCZGqd0UyQOPyXS8epJEduF4gIBIAAEDgCARANDrMZjkDQNQrlaQDRcNK2DWHi4ChpcmYy/JdL1y4HV4AAEAACZ0MARMPJi4azaTnIBQgAASAABIDAGRMA0QCiAQgAASAABIAAEPCJAIgGnzCdsZSD7IAAEAACQAAI+CEBEA0gGoAAEAACQAAIAAGfCPipaLgUFeuHCguKBASAABAAAkDgIhMA0eCTtrrIXQTqDgSAABAAAkCAJgCiAUQDEAACQMDvCPxDgEgYKD7V3z8E/CMYQiBwWAIgGvzuZXHYJoTwQAAI/EwEAoRiyW8jwsL/6Qx+vw27JBKF/Ez0oC6nTQBEA4gGIAAEgIC/EBAGBoWGnYVc4CoSsfi3p21pIP2fhgCIBn95Wfw0XQoqAgSAwJEJ/DYskmvOz+w4QAhDFWALfCIAosEnTEd+BUBEIAAEgIB7ApIEmUzK/f/ygaKgM1MJThkFBf14ZwOSpMiy4sSCAPe4TnpnesjlaARANIBoAAJAAAicKQEkiMxSTy9v7+Evm8M5/yTvH8UhTracPpXdfjp8u8DtrZO6GCwJP5oJ8RQLYYGBAYcz/yi+XU/sbbydrEkJ9ZQsXP/hBEA0uHlZoOiW1wRp/fKL0w+fraf/VaOf/EsqpHy4S7xrirY/mQjLHTSS7zrTzrJXSTsNLCXcPJHPeQNiAiHCkttXyF3rN13DZdup9M7yV7OFfHn71PfhCKt7yRaMPsCJ72NKX99iCBMlV3S1VqQLHWt0lmwhL34CPG3kz62PsPDcQcOO1TTTUXo1TMSt4z+KJW5FwBmIhhBH0YAwYfq1rN5rlwJd+n/GjZv7I7m5Lte5FUFYaEu7an+8spt5O3HvejpGmDgspfLeghk3L7WkBXsKBtd/LAEQDe5Egyg2Xa7Ip35t01ukYaLJdqzIT40R2B4VEA1srw2Ky6HhVI+texINi/pl89PaYCwAXWlbNL2ae3tGogEnlroUdDvSfwuk4b6LBkn1LMnKRLa+cOA/BBDmsY3C6l76beuL8sY+EtZZVWKAi931J9Egamq9td+aFORSSN9Eg6RRXffn0RvthxENdNdCotS2xa+W5R4pjFP45YgMiAY3ooF9LXr6dgfRwCJiD+JbVzyJhuf3h17vPCkUBUSqFk0Td++tnJlo0JWJfFUJbEXoAx6D5BQSTn8UAZ42sokGf2x9hIWWT3/BV9xbxJ9GNByzSwhlwwZid0guPmY6EP00CIBoOLpoKFEMzK1ZtrZN+pk+efSBmxGl9a0SW70lyntz68Yd68f3L7qL4tmvCoQJQ9Mah+YNhq0vpg3D0/7qePGBYUNYcGKVZvqtcWPni+nzp+fatqzIgxIiLCjuxrDug9lkNuuftGVUTO34PDxB5ZvZPPLCYNgiNj8ang3WSyUH+WICoSSl7r5udc1EmDbXF6Y682MOnlj+UtH9kkc06O+Utb7b1eRHVuusE6X53R8PRAN/yrQ4K5L3zH7Y3TJvLc0OFEQflIr/eeA3G3TKblsQZQ9/dhmc4g5t8LQvClSMGMn14YKD5g5UjJjIDz3XMJcvNtfy8/cN1/DcK4LAEHGQxPEXLPThWw0F1T4lNofuDOtN1g+P6pLz+heN1k+vNPmMV+b02ghh4tgSzezKlmlnd1nXm1f7cJd4q4qyd0seGl7byG9bH2H5GhO52nuN23bssS+iQXb76cj4TEd5Kj2QESqt7dBSV0bGZ4a7axPCLoWF/xM1nMEc08HoK1dDU0q6nW/RAdjhCZSYuzd1628Pb3N/+1NNz9Lt7UJ7GqpTs98PNPxRW2tSy4rCOe+o9IK/MtH3H+S5jFcGZV+/vjZQ/8fJW3/R1ppacqouHcRlOSDB9SETudyZzl5hD0ILtR92vhqX7mcd9XuATQoOjkYARIObLsui5PM0GA0vno2qyspKVMMLJtK8oI5hrILNqOwsL8x2N5QrS1Rdc1u4Rd8Qw1jo6Ead+bthtu9mSVmJSjNvJNcnb4QycQMLJjYI00xXY0lhkaJC/eCt1TTXFMXcDUjuXrJ++/Ckq6q4tOz2+JM3hm2fRQN25fb87p4t39IS1cD8JrnxpDqMSRlF1c2YyM8Lw6qyUmVl+8TK1533A+nMY8lfKhoXj2h415mW3PnR8GDksVl3Q5I3YDwQDfwpU6bdaHj+dKS+tLS4rnd2fc/8qpXlzDaT2wOb2ZivCuPYUZGYtdx0ym5bEIWl5CtLFMqKfj2J64dLqOMShbI4+RJjzChR6L59ESbMvG/ETY+uM+iEBRNG4tOdJKb1+f2NvH3DbTXZiwrtV5c5HFs9Wd7ztYkG6/JEe3HVmN66++FJX1l5z7yJ1Lcn04mfXhsJpJ16697as57qEqo/P31vtHBEA+aZhtc28tvWR4GVjwlyXhXNNhz3wKtoSCgfHhmfacihlEFY+D+F5rQPa4dLpNRpaFgqKwi41223Chq0TxtyLnHD0Cmwfw9EQ3BEUXp8WfrV8e5b+925VdRxfFl6XAbzjUGJhgdVhpa81syr1fJcw+itv9xNjWPfJCERiuRYZXJsc2ONq2gQpch/mWpYqUgqT4ktzkh93KP6a/+1VCYuiwJhiW1LpGlUyV5hD6LqXm4TJG6aVjLlYW/BwdkQANFwVNFgfVMXaX8jR93S48Sr6jCuUdl7VhtJNyEKV80R5HR1GH2acGcVN07mM0ZFUjG7bV2sYwySQBweFiYJEIhEtq/GkMoZi3W+ItiecmKHATdNyQPtp/FtK7jPoiGhfY2bb3DFrJl4U89UIfr2W3xXV8o+hxn3V4mdgRw7HP5S0fXiEQ0rXZkoc8Bg/W7WNUgwucZ0IBr4U6ZMu/VVDfPJG1yls3DKzP+EuJkKt9AcwbyebCl7bEHbnE2P4+U2UeixfZG0e5kgJkoltkTECq0FX7rLvlL5y8zfN/jjSuJlmVk5jr/MmBB7V+GJaxMNX7VFgQhLbF0iZ+sjERZS9Yzc1hbTsU6vjeLbPuDbTxTMsxDf+h7niAavNPiHJ5wllH+0vo02OVtnfzk4tQu/aAjNaXfwMdhUAisgKHFAeR0oDUGLgwNvBKUt2mU2JwSrEpwOWNFAFwlhvHMapsrUzLsipuDG/lRpE/OOYmuUWlblKhqSiiv3R/OvM4+hMPxyWXrUFZdFFgiLbX5DmrUlbGrsAcLEkuj4SyGB7BU4OGMCIBqOKhqMo1lM10fXx7eJVXU8VzSY+2TMKXZds2l93pxAN61C+wV/1RbDepLTe5aJrZ5MJnBQas3Yu3XLHvvK48qCvJFdfPlePJMvVvzI4rNooPJdbGOdFiilZ4WTr2xwG1/pSWRSRphQIBRhjHMb8ZaKrhePaPjQk4UE6fVjTzoKLyNMPsQRDfwpU6Z9cySTLdU1zTqxcTfVuyHEBELbt6b+Tg7Hjkqj2VEDm6fBYwv6IBo8ti/C4prf7JlnakOwACQq1m6TL2/H+fhU8/cNHxM5bDBaNIwUBNBv6qc3wxEWVPH04JV9em2UrTHjKz0JbPtS/flgeMIrDX7RgBP+2PpHFw3dwx3ap6wOYCSCfWCCHp6g/9IyIqF8mB6hcBIQTlqBPT2caHiQl8e2Wkr+n6Yqu5nPHrb7uRUN4lT5L1P1azUZTZmx+bHhEUL3zzKPaGDTh4MfRQBEw1FFw8bwgTGTa03EWstVxvDb5jR48gwXTX5nBQF9gBM7/dlUXISJsu4b8d21oXrlNfqrseU5d1Fl/gML/q6LFQ2HWnJZNPkdf9VyiX3Uk3tWmHwxgTBnaIf7+uZ2R6+logPziIbVnoMRXK5o8JoyZdq5nLM0n4jNzjT3LxpumRnR4HEqnHPKji3og2jg8/xH1L/axV/fjAgQFT02cdxITiV0PeXpG66Bna4cb07DV0+i4VTbyKnX2frzgWjwSsObaPDH1kdBNdPEkTwNNtHAnalAz2bgehpYBcBICpvXgXE/cO+6Hh9ONHCWXKJk+R+mqrovOz+VbkUDwsQ51/PfdFV9HWv628Pb/6y9+VIe6bqqGWFxav2Br8upq8PpjyUAouGsRQP1/aQflDt4krOibb4+hGXcM5DGsSJ6YSfVM4oec30JJ+1pMHUzHg7K0/ChR8pICm6n9FoqOvCRRIOX+rrzNHzuSHF+PXFLyx77MhXOk+w7pmhAkuonu3vzTdLiKeuOroGdOMKWzdMBT9/wFIW9frw5DTyi4RTbKLnrE775gPXYhdYvcIcnvNLwT9HA3/pIUDpuJV+32P2ObPPRB16GJ2xzHtldnkLDqJkKXN8DVwqwDgbW5cC963p8NqKBrS/ChOKQ8KLK8r9MlDS6DG0gLL3LQH4ayGXDw4H/EADRcNaigRqpNQymsp7/MGlWdmaUbVgXYdI7y6Rp8gYtvREmSu3+yB2eONacBse5FLY5DYu1zHSBmOYlfFdXxoxTYtSchl16ToPXUtG92ZbCQ7mj7KA3d/LsafBSX0o0cOc0VLqb0xBTOfRiabaviLuz3kl4GoIrZ0hc1xDsWCNKT/B6kmyCI1g5YbEsvp7b+fqw4hAb7fH0Da+vjGPOafDsaTjFNhJR037xuQ5FXOSlqPTaIb2FOzzhlQbCPLbRsSWjx5SP2foIk7a+I82PKrm7R7ONyy8aGP/Bwe6QzvMipbUdnI0jqemQ3e0N3dQUSFol+DIRki4MwgIb1NQ+DSEu/d9pn4ZDeRriM7IeKGMP/J3x2cTUzfvsJHFmmjAKV+msJL0jHAsHDvyEAIiGsxYNtjnhX5cfdlYVFRdWtY2+te6uDaTZpgIhLDC1y2Cxbj5ur1MWVdR1z88tGcycWQsBKT3v6NUTRaWlt8enlza4gxf0Wg/DlNo225+e81+ikCXYX08xTXM731dtM9VL6u/Pbex9fljJrtpA0fXPthxWT+yuaDLsUsZLqeiuLJANfyLMM+2VcnpfrMy4QCzAm2jwkrJtEMHw/Jlt9UQtvXqixWn1RGzLsvXLLzixUB3q4IGwmQ2Pmzt5HZ7ABEIqzLa+u7LUxlOR6DDRlW94AhMIA3JH1wkSN08rgxxK5eWxp9YLuO8bXiIyb9sjBOOf0+C1Tx6njRAWoxhcNtoWuFpMenXnDFc08DwpbDU9tZE/t760w4Bb9Korbt48XkUDpRts0yHZcQpaNzgtuWQkAuWK4E6B9F00YAIhJQ60ZQ9k9OqJ2BTGH8AvGiKiryjZ1RNjRXdtx8qEcFp8XMop+vNU7WJp0o2U2OL0pAcd9fsPCoqZmd10syIsUNr+wYIv1rkMedgUOTWTGl9QR7qoGbZXwMGpEgDR4ObRZYnzLbnkjrU7jojzf4tQq8/Tm4aeGz5ufzEZ119MduXHcPZ4ECWWDSwsb1q3t4yvp9RpNya4ogFhwfEVI3OrZtPOztKze9nVbraRdp4w8eZOtO3pQpgwLOPWMJUvvU9DndRxar0krWFAt2YwESbj54VH9+Q+l4rGhbDwTPWM/rN112YDcFu+/KKBegXw1pcyCZ80RQX9utXdbfP20uyAwmWfBmHG3QWj9aOuOZ5x3tDlcbN6grONtM3UeZyVYq+RJFv9ZO3zLjUpFScOVAJ/+9rjChQj2+SGtth1vJYO4PYvf99wG+X4F/lFw6m2kc0GCEXhidKUpMggISp+wh2e8IUG8tBG/tz6KFQ5tk5u6zXZEc5LADyJBtfRBF+u2CUCx/fAE8tpeIJqmqCoruaqvXFq8sH+VN0YM2eLXzSUqajwTr/9wewM+1tIUlRauD7Y8Cdqn4b63bvXW+Mddl5BmDiqWLuMf1/qkbl9dtDl5heEx40ujv84QApeCYBo4BMNXvFBgFMlQJn2zwem/VTzOuHEMwZWCfNgnsML8YSzOIZ34QRLcoJtFKF6hVt1ZZy9zk6wnGealLfWD0y6Nf3pm8W4OqXOof+dDV08T/+wisfY89xiV2DyhGFvnfg/rDoCcBQmvzNjMBFfl7XV0R4WVmDUF9pXbdHP/2QdAeDZRAHRAKLBfwk4+QPO5pE4fi4IE+UMbeHrw5mOzo/jp+yHKRyzjYTRmbb/XVKoqLo3s06adA3sgLcfVtaXIvna+pKUkvZJ3WgtO0SICYQn+6+xD/VvrvziX2PHNo7Pam8XJnKFlBNzau4UoW9wWeHpFAxOT48AiAb/NZmn1+rnJeVjGqQfVU0kUo6ZyA/dmT+qAGeZ7zHbKEL1yjb6s2c2br6a6rjG2TT9LGtxgnkds/V/GxbJfv0f+YCe6MDOe/AlnQDhP54ghFNKCmHCAq0VNwykwISGH+doBNEAogEIAAEg4C8EhIFBoWHUFtFn+ROLf3tKZh6S/fkIgGjwl5fFz9e3oEZAAAgcgUCAUCz5bcTZiIbfhl0SiUKOUEiIcmEJgGgA0QAEgAAQ8DsC/xAgEgaKT/X3DwHnYEjiwtpmv604iAa/e1n4bV+BggEBIAAEgMAFJwCiAUQDEAACQAAIAAEg4BMBEA0+Ybrg0hKqDwSAABAAAkAAEwhBNIBoAAJAAAgAASAABHwiAKLBJ0wgMIEAEAACQAAIAAEQDSAagAAQAAJAAAgAAZ8IgGjwCROoSyAABIAAEAACQABEA4gGIAAEgAAQAAJAwCcCIBp8wnSK6lKSIJNJRbCVurut1JEkRZYVJz6Jf/uEMGGAKCgAOLvjfIrdG7IDAkDg5yIAosGLGwsvcgAAIABJREFUaEBYYGBAwGm8VZEgMks9vby9h79sDgdj5u65QvHtemJv4+1kTUrokZsACa4UdOmWjISFeFUTdipNeeSyQUQgAASAwPkiAKKBTzQgLLSlXbU/Xtkd7cbYoICIJlW5dazpn6du/e3h7c2icN/bHmHhuYOGHatppqP0apjI94heQyLxzWmCNI0qvYY8gwCpZVV/e3ib/u1r5UpHbcR/FxMIESYOS6m8t2DGzUstacFHK3Bk7QuzdfOhujxHlhIhdNOOR0sWYgEBIAAELiABEA38okHSqK778+iNdnei4bK89K8TlVPZccrkWGVybHbEIWy/KG/sI2GdVSWeuMMcBVQ8JMiN4QJ/6M3BkVE0nKaGm66igf8uW34kSm1b/GpZ7pEeaZwi874JN/QnO+oVNnE4AAJAAAgAAd8JgGjgEw38HHOqavYHszMOb40QFlo+/QVfOaIV5C8VwkrHreSngVz+YGd8N7GowlU0sGXgv4sJhELZsIHYHZKL2Si+HyR1GnDjaNbhm8n3LCAkEAACQOCCEADR4F40oPSCv9oGHf728Pb+g7x8jslBWKBIJAoSiRQ3a/cHc3Jsx0EikcjnqQ8Iy9eYyNXea66dDGHC0LTGoXmDYeuLacPwtL86Xnw4jzrClGMWcq1P5pS4IDBEHCRx/AULfft2z7hxc38ktzo1+/1Awx+1tSa1rCj8gFuuo3hCyfI/TFV1X3YoNr8s4L9LjVMIrg+ZyOXOdKdK+XJ6qXERt84U+9w6vqQJYYAAEAACF5MAiIYD48ftASgkQmEbdGhurHEWDeFpnxg9wQ7YH2pOAwqsfEyQ86pobo724+hGnfm7YbbvZklZiUozbyTXJ2+EciSLmyiOUwgRVjC8Ta50ZTqFVGi/Wr/8wv3hxFZPloNpd4rCnlKi4UGVoSWvNfNqtTzXMHrrL3dT45hSnYVowBLblo44UUNcpcOJ55XBPtWUrTIcAAEgAASAgCsBEA3uRQNLKrWsylk0BEhSrkblXo1qvlW/P6xotB3nXo1KDQtkY/EfoKDapwQ5WxfpGizhzipunMwX2S2cpGJ227pYd+kQBg9huYNGcqkjxSlxSbwsMyvH8ZcZE+JTypRomCpTS+yBYwpu7E+VNjFm+ExEQ2zzG9KsLXGqlKdT2wJLyq0iuZRcMWnceXv3KiNxPEWB60AACAABIOCVAIiGQ4sGlqmTsWSvez3gEQ0K7Rf8VVsMO46Q3rNMbPVk+mTa6XwRJutbJ/WtUq/F8D2AzdOQl8fYXZSS/6epym5GyjhxOJXhCeywooEKb/3yC04QH3TdOWFeWtl3FBASCAABIHCRCYBo8GJOXD0NbHdxMpbsda8HKKhm2oOnoWjyO3cEwWb2dvqzDyUaMu4ZyAV1vFMxjj+nIZcVDY6zFpw4nI5oiFPryW1tsVOlPJ0iTHwpiXKryOQ3uxcsnx9XRzCF9xQFrgMBIAAEgIBXAiAafoRoEFALHF63JLg2D+Vp0A/KHcYRsqKZcQHX8L5fOe6chpFcT6JBVlmzr8lhlyfY/BAVnZEOQod/qiP/XduGDeldhiMuCRFX6nBiviLIoTy+c4OQQAAIAAEgwBIA0fAjRAMmbX1Hmh9Vuu4eTc1pMAymMosaUJg0KzszipniwDbbEQ6OO6fBs2i4JC/dnyhhpzjEK8v3JwqrHLdRiiss3x8vKPbwuc9/lxIN4SqdldQ1XD5CxcMbXuPEbEkgiAYvXf0IbCEKEAACF40AiAb3b9KI6Cv0rkTU6omxoru2lRTKhPAQjtlzcssfqutIOwy4Ra+64pI7tXri6/LDzqqi4sKqttG31t21gbTDLBcUpLTNGUwrTxqiOUU9VNlcA9NLLj15GpAk8c3ore93c5ozrt4skG9qb1nrYoMdcxck5HybqteXJBTRJONDuYKJ/y7CAqXtHyz4Yp3jMk7Xcrq9kthhwE3abMfyuA0JF4EAEAACQICfAIgGF7NtW8FYpmriLqe0b4TsuJXTcUQDClWOrZPbek12hMOaC2qfhvSmoeeGj9tfTMb1F5Nd+TGH2GgSEwgDrvW9390zvW5LODkzyS8aMIEw9EryoztVX7WqXzSVixUJCY5uBnpD6Bxl4eawit79Yv9eRiyneAgTe7qLMHFUsXYZ/77UIxNyovB3a+7drPsmfK0v6UhxuenAMRAAAkAACIBocC8azqBnBCbdmv70zWJcnVLniMGkOe42QfNHYfI7MwYT8XVZWx3tIkR8bKMr6iXcsnQ3Lz40OPjEN+32sQwQDAgAASDwcxAA0fDDRAPVgSQpJe2TutHaQ23f9HP0PF9qgWIbx2e1twsTjyOqUJBMrTOaCRKH/3LpTpn50hAQBggAASBAEwDR8ENFA7zEz4QAwsTBUdLkzGT4L5fw4gMCQAAIHIcAiAYQDUAACAABIAAEgIBPBEA0+ITpOLoM4gIBIAAEgAAQ+DkIgGgA0QAEgAAQAAJAAAj4RABEg0+Yfg6FCLUAAkAACAABIHAcAiAaHETDpajY49A8Zty43yXB70QIHLMhIDoQAAJAAAi4JQCiAUTDT6hU3PZ1uAgEgAAQAALHJACiAUQDiAaHPnDMJwqiAwEgAAR+YgIgGhwMBgxPnMjowA9P5Cd+YqFqQAAIAIEfSABEA4gG8DQ49IEf+DRC1kAACAABPycAosHBYICn4Yc7CU6kAH7+1EHxgAAQAALnlACIBhAN4Glw6APn9EmGYgMBIAAEzoAAiAYHg+FvnoarivbBsbGb2T+hXT8RjwI3ES6rM3hyIAsgAASAwAUkAKLBf0VDbHyqsmVqpKcxPV7KtY6ncZxV92BkUJ19ChmlVt4fGeu4fhIpxyrah8cGb6S5oeHE6gI+yVBlIAAEgMAZEADR4MeiIbm6bfRRR6XsNFSCU5rnXjQ4sjqDJweyAAJAAAhcQAIgGvxXNKRWDIyM9hWnuPmwdjL5xz8976LBidUFfJKhykAACACBMyAAosFPRUNsfHZVz2NNa0Uix7Gf3TA20t+cxVyJvd6mGRuqzLSrCtrwKwqa2/onNMParrZb+WkOkyESZZV17UN9Q1ODmgcdalVeejKrNvjjxsYnSbOrVR3DfUMPNYPDLQ3l6YkOUoYnZefhiWuNXWMPOypz4my14E85Nj45Xam+06fVjGg7W+tlxe6HJ1xZncGTA1kAASAABC4gARAN/ioasm/1jE3cUqSydj3ud0neRYNmpL2tpUxZqrih7hh6PNRZm8oqjLTKluHH/Z3qsqLS68UNt/umhnubZYztp0QDX9zqOyOP+u7cKi6kUm7XPL6vLpX6ljJXNMRezS7vmhruacq8atccsWl8KcfJGrtHH/W0NBYpSwsr29T3hjXu5jTEurC6gE8yVBkIAAEgcAYEQDT4o2iIjU/KUWlHNG25jHGlpYN30TDWX8IMZ6RU3B8Z6y1OsptnyniPdCmkjIcg53bv2Hh9vt0VQYkGz3Ezbg6NaO7kJdjjJhbf04z1l6T6lDJXNKTe6NOMPajJOfBw8KecWTM8Mnwnn8k3vVoz4iIa3LI6gycHsgACQAAIXEACIBr8UjQkFDUOPe6tL6B9+Kyzwbto0LTksA4A2+BFRYbdtFMqpK8pk70bnxR3NYlN3+Zp8BhX3vxwpKs+VZqaQP+yb3WPaWtzfUrZJho6FdLUhPTKlqHHvU3Kq0wZ4n6XxJ9yXtMEd/FIbGGH6+qJWHesLuCTDFUGAkAACJwBARAN/igaEpSdmrGR6mt2q3wI0cBZNuk04yG3aXykrymDY7DZZON+l0TPaWCXXDrFLVA/eqB9wv2NjI3X59mLx59yauV9NuLI2ECZ44JJ/pRp0ZDGlNntkku3rM7gyYEsgAAQAAIXkACIBr8TDbHx6cV3Ho7cq2enI7DWXVY/NnK/+RprRClfgqac8SXwG36bp+HW0UQD5Q+415yfW5B98Lueyox08Kds8zT0VuQWZBc0tj+gPA0JTPntngbPKXv1NHhidQGfZKgyEAACQOAMCIBo8D/RkHqzffRR240sViuwB0k3+kZGe4uT7Z/4aZWDI6OdBcyQP79oSK0cGBm5V8hY+jjXOQ2evRTUzIP7zdeYCRaxyTnZefkpTL78KbNzGmLjk9Iq+jVjow35B7M7+VP2Oqch1gOrM3hyIAsgAASAwAUkAKLB70RDWtXgyIMeJTOBkVUMcb9Lik2pUA89vn9XXVpYqqho6xx+3Mf5cOcXDbFpVa1Djqsn+ppljOH3Frf6zshUt1pVVFh8vaS+sXtiuJ/j8OBNmRUNVPnjZaUdkyP3W3MZ7WJbPeEx5ThZ070x2+qJwlJFZZu6Z9RpToMnVhfwSYYqAwEgAATOgACIBv8SDbHxudV9jwfVN7izBbm6IVFWreoY6R+eGrw/pK67kcZYfa/zEuJ+l5Qoq6637dOg0Ty4q27Kd9mnwdOcBttuCjdt+T7UaB60qxvz0512gPCYMlc0ULohrbpt+HFvo32Qgj/l2PiU9CJ1W9+4ZmS8u60pp9RhnwYeVmfw5EAWQAAIAIELSABEg3+Jhrjc5r6xcZU8hSsU4Ng9Ac+sLuCTDFUGAkAACJwBARANfiQaYuOT85q0IwOn8o+j3Nvd3zk4DM5RGH5WZ/DkQBZAAAgAgQtIAESDH4mGc2Sz/byoF/BJhioDASAABM6AAIgGEA3n1dnAI1zO4MmBLIAAEAACF5AAiAYQDSAaHPrABXwLQJWBABAAAj4SANHgYDAuRcX6CO40gvF8OsOtQxE4jdaBNIEAEAACQABEA4gG8DQ49AF4KQABIAAEgIAnAiAaHAwGeBoO9UHvt4E9dXe4DgSAABAAAschAKLBj0TDcRoS4gIBIAAEgAAQOG0CIBpANDgQOO0OB+kDASAABIDA+SUAosHBZP7Y4Ynz242g5EAACAABIHARCIBoANHgQOAidHqoIxAAAkAACByNAIgGB5MJnoajdSOIBQSAABAAAheBAIgGEA0OBC5Cp4c6AgEgAASAwNEIgGhwMJngaThaNzoHsSQJMplUhAX4UlQkSZFlxYkFPgX2JUEIAwSAABD4OQiAaADR4EDg5+jW3FogQWSWenp5ew9/2Rzuo2iIb9cTextvJ2tSQrlJwTEQAAJA4IITANHgYDJ/rKcBRdf+ZnftNxaD0+/fPi1Dvlm7s+/N0k6D9csv9A83T+S7KyfCRMkVXa0V6UJ3d0+1zAgLzx007FhNMx2lV8NEdF5eOSNMHJZSeW/BjJuXWtKCT7WEJ5J4yvWlP/Th9O/XrgcFZ875RGoBiQABIOD/BEA0+JNoEEX/h7wc26/u322s/Was0n6actlvRUNQXE6+XJEvV1SPrXsWDZLqWRKfrRefuTET5Y19JKyzqsQATtbIN85IlNq2+NWy3CP1+3GK4PBrBfHygnh5fdkKiAb/f+1CCYHA+SUAosGPRAPbjRCW+e8/rf2mXcpe8f+D+NYVfxMNCAstn/6Cr3i0+l45C2XDBmJ3SC72f/50CRPy3oBoOC+NBeUEAueRAIiGn0c0oLS+VWKrt0R5b27duGP9+P5Fd1E8+4WNMGFoWuPQvMGw9cW0YXjaXx0vPpjoh7DwjMapF2vmLSu5Y956O6spjrc78zGBMLPfiBsGUpiPdSTXmoi1lqsH0TGB0K1oQNnDnwmSHb+wj2IQ38eUDnE9PTmCwBBxkMTxFyz0+bsfYfkaE7nae81T+l5FAxJcHzKRy53pnlJwvc7P2TU8ewUFFD7ptJiLsjGWc0DeeIdlWymjryAsODmt7/ntNeu97S/ty29vNOcEO/ReTCD0JBpkyrVfW7vT2ZTjh7/16u9G2FsBYcKwqLrx+iVz5/a39rcvlBUJQucGCi3Uftj5aly6nyVyvsVWAQ6AABD46QmAaHB47f7YOQ1sb/NqzNiQ3AObaNhZXpjtbihXlqi65rZwi74hhnnFRzfqzN8Ns303S8pKVJp5I7k+eSOUsSKBBeMbxO5cT4OyQCEvuT30lrCs9EiZu0cXDWEp+coShbKiX0/i+uES6rhEoSxOvsSUSuDAn1sdTCBUaL+6CI6tniyf4mICIQqsfEyQ86pop2TZU6+cEZbYtkSaRpVsFO8HvJx5oiNMXHxj89c7fVkMdkHcgKXXMBRjRyRKeGDtNSwU1JUnKopTm6Zum77V1UczgemUjyYasNC6N107WzVdDUnF5Vl9+rsWS0VJmGPKUXUvtwkSN00rJb7y56ks3AICQOCcEgDR4GC0zr9o2HtWG0n3RRSumiPI6eow+jThzipunMxnPhMlFbPb1sU6xnhfbfuAm7TZjJ0IiLmmUGZHBdrNw5FFg70k2BHnNEjiZZlZOY6/zJgQX40WCqp9SpCzdXYgro+oD6IhtvkNadaWuMb1dIWfs6dY9PXAxLEvvav3o6kKIkyYozT8eqdfxjSKQBgWHhQiFIhEgSFBgSGStKnf9z6tYRqUTuFookGar/+144GC8S6Epj7a651vcuSMMLEkOv5SSCB/FeAuEAACPzcBEA0/mWgw98nsNhVh1zWb1ufNCXQPVmi/4K/aYlhvf3rPMrHVk2kPLCqY2CB2XmjuVJcVXUtLDHM0RT9KNBzz2fshooGfM3+N6BGKjetpNtGQMdTmOFoRmNxY9spyb/dgoUTvq5ZQBwl1NNFQfGP7V5U61qZFggJDgqLvbvR+1LA+Kl5vEH+N4C4QAAI/GQEQDT+ZaPDovS+a/O7i6t/pz2YVRnhmo3Z60fBx65v1yy+WnfWHqjR2heSPEg3HndMQVDN9XE9DnFpPbmuLfX/s+Tnzp2MfoVDfTcICUFSXqffj0BV7/0SYKEe59mu3fjyzICfmmizmmix35pcTEg1lFTusELGv2+z9/CDWQY7wlxzuAgEgcEEIgGi4KKKB+gLWD8odvP1Z0S7j0wgLFIUn5vcu71heVoXZzUZ67yb+cTCV8ZOj6+PbxEqzo1FxOxGSforQUYcnjjunQVA6biVft9h9La6PtA/DE+ldBvLTQK5rXE9XfOTsKbpthOJtZ0RA6vXlX+/clzGzPhGWNtBq+VKmEDCtgEnHf++zaMgqXP21rSeDiYuuDn/vfXOHaV/K03C7p5DWIva/GVccvU2eCgzXgQAQuFAEQDRcFNFAjbUbBlNZIxQmzcrOjGIMw5Xirm51YQRrVDIGDMR6e7JdNESoXuH4y2rGxlxRv8PxmWJmxgP9wMQ0L+G7D+VMCtynCGHBlTMkrmsIdneXG9Lp+LhzGjBp6zvS/KjS0+7R3kVDuEpnJXUNl50KxnPKz9keMaZy6MXSbF+R6w6V9AjFSm5BZ7PFrOSspMAS76kt3ypKaPcPwkQZBcu/uoiGKzkLv3ZrC104R17T/do9W8+sl4nLffVr91Q5M4mBmtPQ2pPB9g1xQnZsejRzl6eycAsIAIGLRgBEw0URDRg1q//r8sPOqqLiwqq20bfW3bWBtABGFlTPb1tN0x11hdcV8qKG7pc7uPGhnLExKLJ62kSuL2hqS8pKb2n12+TaiCLI0TIJZMOfCPNMe6XcttdTfmZcICdAStc6vq3vriy1rZ5QJDL647SfN2mHAbfoVYyT3yk7ftGAsEBp+wcLvlh3+TCOel7OdAFiW5atX37BiYVqxxkJtqkM1BqK3ze/MfR+HOYUG2GB6deXft+zOpdfXSYtbSp4qm9eIl1EgyC2f7d3/WV+WaFtr6eCmFhaMKHg8ud3LRZVX1NScaVseK3TslUqP9Bw1OqJ7Y3KtjppYUla88Pbxl9auzMZDUGXGWFyjYnEF9SRnGZ14gmnQAAI/PQEQDRcFNFA7R+Q3jT03PBx+4vJuP5isis/5mAnBiSIye+YeW3Y3ab2aTCvLEypMsO5vV+SqtLMGz5uE5sfPzzpKY9lXBRsGISFZ6pn9J+tu7aNGfA3d7irAZEkW/1k7fPuns1Yepx4waZ2UgcoVDm2Tm7rNdkRbqb984gGhImjirXL+PelHhk7t8OXUvFzplMQZtxdMFo/6prjHQ0zfdc2QmH5/9u7E6cm0oSP439JNyWhgElBxJK7EAYkBeGSCHKIJYeCXIqI14IzKioYFWaWZUE8Zkd0GNAgCuHsNIyG2tnjLfZfeiuEDgmQ0IiYNHyrKKsl6aef/vQTnh9PP/3wz6t38rxfFUKPVZUOfrhm+3zj3WhVU3ZG1+bQIIjRuQU91qu25VsLf/4g/bOpJUHp46Niay3OlRhs9iuvhopPJ3sMJDjXaYi7sLZOw/XRN5VtxVHrbcNVK+Hopeeyv0Uv1ODwHgQQ0LoAoSEYQ4PWW1VQ1V/3fXPf+z8Wpt72tOSrXMdaiDa39Vtt8tKIpYZR+rWr6VzRa8lSqpnFMYOqEVIZBPaNAKGB0OAlsG9atteJ6DPKrz4Z7K51L2bl9eqmRwqFxMZHA5aLp1JVhgz/pe2PV51zVuThemVhj/1xUpwFAgjsVIDQ4NVlBsniTju9irwfgT0VEMTQIovdcynxPT0chSOAQNAKEBoIDV4CQdtSqRgCCCCAQMAFCA1eXSYjDQFvkVQAAQQQQCBoBQgNhAYvgaBtqVQMAQQQQCDgAoQGry6TkYaAt0gqgAACCCAQtAKEBkKDl0DQtlQqhgACCCAQcAFCg1eXyUhDwFskFUAAAQQQCFoBQgOhwUsgaFsqFUMAAQQQCLgAocGry2SkIeAtkgoggAACCAStAKGB0OAlELQtlYohgAACCARcgNDg1WUy0hDwFkkFEEAAAQSCVoDQQGjwEgjalkrFEEAAAQQCLkBo8OoyGWkIeIukAggggAACQStAaNhXoUEQQ405pls5R3TioaBtc9+gYmk3rPbFZdeXNPu4cCsNQQxLr7zZWmkM3erVb1BJDoEAAghoToDQsM9CQ1hTa/NK6/cRB7sjjEjKLzQXF5qLax5O+A4N+poBhzRwgb9/rbkfW1QYAQQCJUBoIDR4CQSqIe7RcZNbRwkNe2RLsQggcAAFCA1eXWbA5zQIiblST50lK+lB27llS/3SD2Vdxij3+LkgHjIkpv/UVr34sPHPB9XD1alpurXbEEJqweee5v/1XvT8Wulp+rtx7Q0F1edX7uZlKSMQQrr5z57q9qPK7n6Pm3Xm3MqDgprjeb/fqf+XpdbWkltq8HLz88kRMn94K0/fKi/5y9OJqTn7+O/P20uTD7mrIYZGZTbeG7JapxdtH61/+7EmOXz9xoogGrIae56/m522O+Zmp18PdJYlh7mPlf3jlGS9k+Euymyxye8up6zvLoaEbhkahLz7H2SH+/7F2l0M+dPDEq99o05ZxuaWpt7cNoV5fd9dATYQQACBgyZAaPDq/IIjNFyYuV7SZU45m5V+v6125dGZywal0zKkj1ia7Jdzm7NSqs35Y13Nn5pSDKu9phB5uNSYXGFMedTevNJeUO3cTq4wJmXp1/ZVERp8HtcZGrqqrZdPtGan1JgLrN3N/71+PEnprf1/ZlZDw9zIy4H2+rMl5Q03n05LC8P18coZxTUOzn6yDvxwrryivKFzaMox8eRMlFKyrujRR3n+aUd9SVGxufzivdfywmhHmvLql4eG6IzCkvLiksofhx3S8P1y53Z5cUlZ+hGlViHOVhFb92JGdki2vhLF0P+Z8ioCCCCw7wUIDUEYGppfn4hwtTwhMv33nuZX+eGu/35fXrXSZS4NXevbonJL/tNT0eLRpQmizzkNKkKDz+M6Q4PHgeKLzqz0nG6K9OpifX1UVkPD57/XxqydkaHhqezoq4l2/fdY21tp6kmh8qu8vnJgxv5rndJ5p1wZk2yWPCUlHIrPKS7Ji1UGV744NKzVRNxmToMghuvjko98p/N1anwfAQQQOGgChIYgDA0XLMfW+mNBTOh90PD21FoXe7qhceW6MSksLML1lZQz21Pbnbzeee8uNPg87upIw4kTSuctZBT+u6eqXena/X9mVkPD7A+57jM62Tlpf3bpmGuvYsui9MuV+Ah9uOvL2DEiT3dkr705rOjxR3nueWdbTUVpTmZqtJItXPvudWjwf168igACCBxAAUJDEIaGuofeN+bd7bKyqclzysL/ei+u9Fx4lPq1QoPP47rmNBS4Q4P3fAh39bbccM1p6DCtV9LzbaVPPm2aWzD3Y547YRiyGy19v1rHp/+wLy4vzE30NmS6Z3gQGjwl2UYAAQS+gQChQUuhwTnS0J5fmhJbsP51NNFr5qDP2xO5VedXOvNN7o7fOVpQeSNG6Z5XJ0L6Cit7FxqcIw3Dd82m/Oz1L1Ocxw0X12dAEHVhhtTCWyNzCy+qo9fqbLw1KY3fPe4+o5OPZuTRS4le6WTLiZBKmdvcnvgGHz8OgQACCGhLgNCgpdDgnNNwN98UovT0kYaC1KPxyhQHMSRUEHX1Lc51Gr5TulJ3czxiPr3yuNw9ESG55OzK41PVyr6upza+fWhwzmmw3j3uPqPoNFNedqxyGyKh7GZ7y6nDyrkIWXes8sTV9LXTP9zwiyS9qFEyRELLb5LUX6bMeHCdePylN9J8r1kpwa2xahVZ1e+QBusjt3rV851sI4AAAgi4BAgNWgoN4urTE7PN2Q3GpDN5xv6O+v+7k5ej9LiuK+ocFbBUdOW6np5IzFCmKwr61FfdzZ+u51/KSjlXZJ60NNvrEt39ZaBCg+h8emJppPdGdWnZqeor3a/t8+/uZB5SYkHN0Izd1net7tTJYnNpffuLOWmq16yMrAgxNX02x8TLztryitPNluEZx7sHxRtWtQrJvf9enu2/WmVeXeupMDvJc63MjJsT0sxwe9Xp1acnilOV/OGSFERzp80hvWyJIVWsPk7CD00EEECA0KCl0OBcpyEp46er1UuWxj+7zlmbTCWb1ksQImJvXqr+/Mg5+2Glx2uaQlSCc42HJUvDcmfVr5XHjinDDM5fuwN0e0IQQ6OMTfeeWcdnFm1TE8+f3CyMX1+JQQiJL7zW/w/r/IxznYbZ0Zc9DdkGzw+EHJhTAAAVHklEQVSt/nhD55B1fEaeHB/7a8fZRGWIwv0eQTRkt/QPf7DPry7MIL1qi/NIAII+r+Wv7z7Mf7YvLkvy9IaJF8LRS89lx9tbOe7S2EAAAQQOuAChIbhCwwFvjsF1+s7VopYspWvPuwZX3fjVHwEEEAiEAKGB0OAlQNfoFnDOh5CH69U9Wereiw0EEEBgHwsQGry6zICvCLmPm5q2Tk0QQ4ssds9lqrVVf2qLAAII7IUAoYHQ4CWwF42MMhFAAAEE9ocAocGry2SkYX80a84CAQQQQGAvBAgNhAYvgb1oZJSJAAIIILA/BAgNXl0mIw37o1lzFggggAACeyFAaCA0eAnsRSOjTAQQQACB/SFAaKDLRAABBBBAAAFVAoQGVUz7IyFyFggggAACCOxGgNBAaEAAAQQQQAABVQKEBlVMu8ll7IsAAggggMD+ECA0EBoQQAABBBBAQJUAoUEV0/5IiJwFAggggAACuxEgNPgIDbpInc7HS4H4w2K7ucbsiwACCCCAwFcRIDRsnQySW0cleenD74M3ihJE8dBXsaYQBBBAAAEENC1AaNg6NOhiM02FVa0DNmnhRbWB0LC1kqabPpVHAAEEENipAKHBX3co5D/4KE9cSyc0+FPaaZvj/QgggAACGhUgNPjrDsMqBxbkX2qiCQ3+lDTa9Kk2AggggMBOBQgN/rrDtBtWaarbxJwG5n4igAACCCAQEkpo8BcaTj6UpeGr8YQGPioIIIAAAggQGvyPzCS2/DZnG2rITIj6Th8eodeFcp/CX8byj8mrCCCAAAJaF2CkwV8vKIQkVjyemJUd9sVl++LyQF2M1q839UcAAQQQQOCLBQgN/kLD4arBqYWxztqy/Nz8bFP+sZiwL4ZmRwQQQAABBLQuQGjwFxqKLLL0qi2OOQ3cyUMAAQQQQIA5Df5Dn7FjUnrfaSQ08FFBAAEEEECA0OA/NOjPP5PkocoI5j/6G4/xb8irCCCAAAL7RoDbE/66Q6Gge1Ieb0sjNPhT2jcfBk4EAQQQQMC/AKHBR3eoi4w0pJ68PTYvv2mMIzT4UGKwDgEEEEDgIAkQGrbuDpNbR+2Ly9KCrb8lJ5w5DQfpI+E/ZfMqAgggcJAFCA1bhwZdbGZWZkasXneQGwfnjgACCCCAgKcAoWHr0OBpxDYCCCCAAAIIiDw9QSNAAAEEEEAAAZUCjDQw0oAAAggggAACqgQIDaqYVEYw3oYAAggggMA+FgjS0LCPxTk1BBBAAAEENCpAaGCkAQEEEEAAAQRUCRAaVDFpNBJSbQQQQAABBL6iAKGB0IAAAggggAACqgQIDaqYvmJMoygEEEAAAQQ0KkBoIDQggAACCCCAgCqBoA8NukidTtWZaDS1UW0EEEAAAQS0IhDsoSG5dVSSlz78PnijKEHkD0fxh6MQQAABBBAInECwhwZdbKapsKp1wCYtvKg28CeqGXRBAAEEEEAgYALBHhpcIzZC/oOP8sS1dEJDwBqKVobOqCcCCCCAwN4JaCM0hFUOLMi/1EQTGggNCCCAAAIIBExAG6Eh7YZVmuo2MachcPex9i63UjICCCCAgFYEtBEaTj6UpeGr8YQGQgMCCCCAAAKBE9BGaEhs+W3ONtSQmRD1nT48Qq8L5T5FwMamtBKHqScCCCCAwFcX0EZoEEISKx5PzMoO++KyfXF5oC7mq0NQIAIIIIAAAgj4F9BGaDhcNTi1MNZZW5afm59tyj8WE+b/rHgVAQQQQAABBL66gDZCQ5FFll61xTGnIXD3sb56y6NABBBAAAHNCWgjNBg7JqX3nUZCA6EBAQQQQACBwAloIzTozz+T5KHKCOY/Mv8RAQQQQACBgAloIzQIBd2T8nhbGqEhYA1Fc2NoVBgBBBBA4KsLBH1o0EVGGlJP3h6bl980xhEaCA0IIIAAAggETCDYQ0Ny66h9cVlasPW35IQzpyFw97G+elylQAQQQAABzQkEe2jQxWZmZWbE6nWak6XCCCCAAAII7DOBYA8N+4yb00EAAQQQQEC7AoSGgN0Z0m6joeYIIIAAAgdTgNBAaEAAAQQQQAABVQKEBlVMBzNRctYIIIAAAgh4ChAaCA0IIIAAAgggoEqA0KCKyTNnsY0AAggggMDBFCA0EBoQQAABBBBAQJUAoUEV08FMlJw1AggggAACngKEBkIDAggggAACCKgSIDSoYvLMWWwjgAACCCBwMAUIDYQGBBBAAAEEEFAlQGhQxXQwEyVnrUpAfyw3Ny1M+Wtqgj4j15QUHsJfZOWThQAC+1CA0LAPL6qqrs7HH8wUxPBQ3Rea7Gbf3dQ5UPsKITGmlr6Rmc/Si0sGd2hIvjosf/74+sn5jKhAVYzjIoAAAnsksM9DgyCGGnNMt3KO6JSf6Xvk+M2KFcSw9MqbrZXG0E1nJJT0zssO++Ky+0ua6s7Z9DY/VRXEpAvP7NL8WMv3G39R9nNcV4F+9vV1xLQb1vWqzj4u9K6qYGh4av/cV2Nw7y6IyS3Djpnes5vP3f0e14b/kje8+cv+K4iGgrvWObut/9rplOgwdyGCGB6dUfWXl7PS7JvLmZHu77OBAAII7AOBfR8awppam1dav4/w7pC0e+UEUV8z4JAGLoRvOiPBkFFgLi40t/1t1jHec7HQXFyYn6bf9DY/5y6ICTX9MzO24aa0zaHB53FdBfrZ19cRI5LynZU0F9c8nJA2hwYxrfU3h+1haYhyCkLk+T67Y7D+qK8C3d/3X7L7bbvZCDvxcFy2DzSkHlKq51maEHb8yq9LCyMdadyn8DGm5cnFNgIIaEWA0PCFQ/GBusB+QoOrSoJovmdzjN7M/ro13Pa4uzlccuvo5tAghoTm3JmWrHcy3L1yoWVKtrYe2xho/BzaV8l+dlHzkiBGne1blEb9ZYLQ3PtWef6eOVxNgbwHAQQQ0IRAsIcGITFX6qmzZCU9aDu3bKlf+qGsyxjlHp0WxEOGxPSf2qoXHzb++aB6uDo1TbfWowipBZ97mv/Xe9Hza6Wn6e/GtTcUVJ9fuZuXpXRIQrr5z57q9qPK7n6Pm3Xm3MqDgprjeb/fqf+XpdbWkltqUBs+BNGQ1djz/N3stN0xNzv9eqCzLNlzcDs0KrPx3pDVOr1o+2j92481yeFKlfLuf/C++2BfXJbkTw9L1t7ganC+QkPGzQnp4/3y4jtP3y1Mz9iG+38wx3kc1+PWxoabGsJ2x/W8LbJhXzEkVBAjU6s7+15PfZxbtH14/8xyxRSz0cpX1x5a+vOM/FtT3NoJpl63SpNdJvcl20XJ2T9OecYRwWyxye8upyjUos+roCAXdtocb2/l+PmQCyEn79kcIzeMm98TdcoyNrc09ea2Kczr2m1+J99BAAEEgkpAE6Hhwsz1ki5zytms9PtttSuPzlw2KD9qDekjlib75dzmrJRqc/5YV/OnphTXlDQh8nCpMbnCmPKovXmlvaDauZ1cYUzK0q/tqyI0+DyuMzR0VVsvn2jNTqkxF1i7m/97/XiS0pn5v8C6okcf5fmnHfUlRcXm8ov3XssLox1p7n3jGgdnP1kHfjhXXlHe0Dk05Zh4ciZq9VUhOqOwpLy4pPLHYYc0fL/cuV1eXFKWfkTRWB0H9hcapqzP/97dUFFR3nD/pc0x+7IlXjmucmujuPbx1IaOf9vj+tlXDAnVFT3+KNv6bzaWnyotrmzpem23PW2KVY7rsvIVGoTohkH7p58q9avhI+bCM8dMz/qEht2U7D80iL6vgqvCgq7qZ9kx1BDn51oLYuqVNw5bd8nm98TWvZiRHZKtr0RpjZvfw3cQQACBIBTQRGhofn0iwmUnRKb/3tP8Kn9tyPf78qqVLnNp6FqvGZVb8p+eihaPH8SC6HNOg4rQ4PO4ztDgcaD4ojMrPaebIr06b18XO+XKmGSz5Cm95qH4nOKSvFhlgORY21tp6kmh8guovnJgxv5rnUcs2PY2gb/QYH9VF7NWydjmYUn+pSZ6Y53Tblg3hIY1ed9zKdxnuuW+IeGG6Gj9oZCwsAh9eIT+u6r+BftQpbeVz9Cw2u9+7CoWxUOCrtwy7xi4cMR9uN2U7D80bH8VImr/JjsG6mLcldm8IYiJl145Zi3lW70Uro9LPvKdbvNLfAcBBBAIZgFNhIYLFuU2tiAm9D5oeHsq2mV6uqFx5boxKSwswvWVlDPbU9udvN4R7i40+Dzu6kjDiRNKxy9kFP67p6rdo2v3c8nDnL95zz3vbKupKM3JTI1W8oFrl2LLovTLlfjV/jU8Qh9u7BiRpzuyPc9o2wmJW89pcN6emOpeH9s/+WhGftviYeWqwJYd/+ov+tscVwwJ3XJfIeL4+Ye/TSx8Xn9QwuOOg+ugvkKDGBJqum2TxpwjMULWHatsvay0BGeVdlGy/9Cw/VXYXWjw0zx4CQEEEAhmAU2EhrqHys3mDZSVTU2eUxb+13txpefCo1TPLnY3Iw0+j+ua01DgDg3e8yE2VHLDfwXRkN1o6fvVOj79h31xeWFuorch0z1Lo/TJJ3fn6tqQ5Lkf8zzPaJvO299Iw8f72e46e9/Fd1dyy47/i0ODIIaZbk9J8+/uXSjJMeVnm/KzLz+b30loCC37aUYevnDkUPylN9LHB+v1313J/kPD9lch4nzf9iMNSc4HRC1lbls2EEAAAa0LaDs0OEca2vNLU2IL1r+OJiozB1e7Op+hIbfq/Epn/vpv3s7Rgsobyui9awKmr7Cym9DgbjGCqAszpBbeGplbeFGt3CZw/o47fNfs6l/X/jXFed1w0VZoyPqL1THl8dikWPrzwk5CgxBdP2j/41G5oeLnpZknZ9zpShB3VbLx1qQ0fve4O0I5x11GLyWuhbPtr0LI6Ud2xz8uH3Nfzc0bgmi8aXW8v1Ow+SW+gwACCGhUQNuhwTmn4W6+SXkUXog0FKQejVemOKyGBl19i3Odhu+U7sF9nY6YT688LndPREguObvy+FS1su/ehYaEspvtLacOK/VZHXWfuJq+1l0576Zb7x53n1F0mikvO9bjFoYgRlb1O6TB+kilBPcZuTb2bKRhm+NueXtCENPaRhw2pbMXxLDj7ePSptDgHEWY7zVvdUaCeOzyG8fbW1duT372nEOwy5IPN/wiSS/cUzoSWn6TpP4yz5kl21wF5xoSsz9VuVeP3nAVnG3P0DCoblWJzfvyHQQQQCA4BbQdGsTVpydmm7MbjEln8oz9HfX/dycvR+lxXeLOUQFLRVeu6+mJxAxlCp6gT33V3fzpev6lrJRzReZJS7O9LtHdE+9daDhcMzRjt/Vdqzt1sthcWt/+Yk6a6jW7R0ec8/aXRnpvVJeWnaq+0v3aPv/uTuah9dsTYkioc3bCzHB71enVpyeKU5VRCuUphq0Xd3I9crk+vO99eyI67aRrnSXn0xPTg82ray4V5qa6Qfwc18++gqg7ftO6YJ/8+WpdSWllXfvQ0zfW2U2hIST3/nt5tv9qldl13OwkzxU8s29PSe8mxjweiXTFwd2ULMTU9NkcEy87a8srTjdbhmcc7x4Ur68ApuIqpF2zSgvDDQkbHx91tTpB1KVdHVuQfq1THuL1/PwLornT5pBetsRslZM838k2AgggEFQC2g4NznUakjJ+ulq9ZGn8s+uctclUsmm9BCEi9ual6s+PnLMfVnq8pilEJTjXeFiyNCx3Vv1aeeyYMszg7JNW12nYi9sTQkh84bX+f1jnZ5zrNMyOvuxpyPZcKTk0yth075l1fGbRNjXx/MnNwvj11RRcTUfQ57X89d2HeefUQkme7jCtRQrP9RLW5kN4LCPtPzQUW5Y2zKVwFu65sFJIqK/j+t9XCEutuPNyZNI+Mz31j56WzDOPN4cG5zyPlv7hD3bXMtjSq7Y4j940tKR3WnZIH9YnZKw57K5k/fGGziHr+Iw8OT72146ziV7DOSquQlTJwwnHzHBn3uGND0EIYnhsmWVE+vSmI9d9P8XzYy8cvfRc3maZB8/3s40AAggEiUCwh4YgYaIaCGwW0H3f3Pf+j4Wptz0t+e5VvYVoc1u/1SYvjVhq4jxiqNfuzmGeJUspi0VuPU7jZcUq1AggEEwChAZ+bCGwCwF9RvnVJ4Pdta4FuFbHqBofDVgunkp1x4jNXaBzDoc8XK/uGd3Nu/MdBBBAIFAChIZddBjBlP4C1YA47k4FBDG0yGLfcOtnp4XwfgQQQCAgAoQGQgMCCCCAAAIIqBIgNKhiCkig46AIIIAAAggElQChgdCAAAIIIIAAAqoECA2qmIIq6FEZBBBAAAEEAiKwTWgISJ04KAIIIIAAAggEoQChgZEGBBBAAAEEEFAlQGhQxRSEcY8qIYAAAggg8I0FCA2EBgQQQAABBBBQJUBoUMX0jaMch0MAAQQQQCAIBQgNhAYEEEAAAQQQUCWgOjToInU6VSUGYTKiSggggAACCCCwewG1oSG5dVSSlz78PnijKEH0+LPFu68BJSCAAAIIIICAJgTUhgZdbKapsKp1wCYtvKg2HNLEuVFJBBBAAAEEEPiKAmpDg+uQQv6Dj/LEtXRCA3dqEEAAAQQQOHACOwsNYZUDC/IvNdGEhgPXUL5iUKUoBBBAAAGNCuwsNKTdsEpT3SbmNIQQGhBAAAEEEDhwAjsLDScfytLw1XhCA6EBAQQQQACBgyews9CQ2PLbnG2oITMh6jt9eIReF8p9igMXMzU6pEa1EUAAAQR2L7Cz0CCEJFY8npiVHfbFZfvi8kBdzO5rQAkIIIAAAgggoAmBnYWGw1WDUwtjnbVl+bn52ab8YzFhmjhJKokAAggggAACuxfYWWgossjSq7Y45jQcvPtYu29qlIAAAgggoHWBnYUGY8ek9L7TSGggNCCAAAIIIHDwBHYWGvTnn0nyUGUE8x+Z/4gAAggggMCBE9hZaBAKuifl8bY0QsOBayhaH1Kj/ggggAACuxdQHRp0kZGG1JO3x+blN41xhAZCAwIIIIAAAgdOQG1oSG4dtS8uSwu2/paccOY0HLz7WLvPp5SAAAIIIKB1AbWhQRebmZWZEavXaf2EqT8CCCCAAAIIfJmA2tDwZaWzFwIIIIAAAgjsGwFCw4G7I7Vv2i4nggACCCDwjQUIDYQGBBBAAAEEEFAlQGhQxfSNoxyHQwABBBBAIAgFCA2EBgQQQAABBBBQJUBoUMUUhHGPKiGAAAIIIPCNBQgNhAYEEEAAAQQQUCVAaFDF9I2jHIdDAAEEEEAgCAX+H9JxvrXB2nD9AAAAAElFTkSuQmCC;" vertex="1" parent="1">
          <mxGeometry x="37" y="930" width="370" height="190.29" as="geometry" />
        </mxCell>
        <mxCell id="SrGXdIxv8m8EbybLDBXi-27" style="edgeStyle=orthogonalEdgeStyle;rounded=0;orthogonalLoop=1;jettySize=auto;html=1;entryX=0.001;entryY=0.54;entryDx=0;entryDy=0;entryPerimeter=0;curved=1;exitX=0;exitY=0.5;exitDx=0;exitDy=0;" edge="1" parent="1" source="SrGXdIxv8m8EbybLDBXi-18" target="SrGXdIxv8m8EbybLDBXi-26">
          <mxGeometry relative="1" as="geometry">
            <Array as="points">
              <mxPoint x="60" y="560" />
              <mxPoint x="10" y="560" />
              <mxPoint x="10" y="1033" />
            </Array>
          </mxGeometry>
        </mxCell>
        <mxCell id="SrGXdIxv8m8EbybLDBXi-28" value="" style="shape=image;verticalLabelPosition=bottom;labelBackgroundColor=default;verticalAlign=top;aspect=fixed;imageAspect=0;image=data:image/png,iVBORw0KGgoAAAANSUhEUgAAAl8AAABaCAIAAAAJj6TQAAAgAElEQVR4Ae2d+VMbSZr39x/JUkgoEBAgILgJToEChJCEEOIOQNwCgcDcIGyDDUYY2W0bg+022BwGG+QDkMFICLctI8909zCx+861sxs7787u7OzGG/3OvLPe39+oKlWpJFCB5aMN/UQoiKSq8vpkVn4zn3xS+juMw4MPEAACQAAIAAEgwCTwd8x/IAwEgAAQAAJAAAhgHB6oIyydgQAQAAJAAAh4EwB19CYCkyYgAASAABAAAqCOoI5AAAgAASAABLwJgDp6E4EZExAAAkAACAABUEdQRyAABIAAEAAC3gRAHb2JwIwJCAABIAAEgACoI6gjEAACQAAIAAFvAqCO3kRgxgQEgAAQAAJAANQR1BEIAAEgAASAgDcBUEdvIjBjAgKnikBIslSayse4ZKVQiEgqSQjkuP79kJoijMflC7hUyh+SFMQFAl8ggR9HHREWEMD9CO/nFwj0oxfp07H6dCl/dAiQoB8EECdCor++tPnadrdVSGkYSuyct79eW5ioFYX6kSYZBXHiVL3Tixt2q322NgxeZJhhn04CP4I6Iiy0rVO7P17VH/Mx3yuE8cQ5EkNOZAA1EPj98r9XxA/J98i4n4gVxuH5nfKRZX4veh/rYYQJgtWTiep8zoHWD2r+nXp2OZS6jvIs6uXv4yI+Qt8L1v2T+u4CnfLBunATu1NG/kFx74f8u/8o6Z8IDeMffOY4V5D8WcHyflzke5QZYUL5kPnFjmWyqzSJkS/CAsNEVX0zW7atxbbMoOPkfvCZiLqvt3bWr+grZFJROO89SnUwKbgCBL5YAj+KOoY06eu/vVTe+ZHVkd/crttvTxNQ4+DngY4w//M9Mi7CPgkrQh39TPnIMn8e7F65ICwsZuSdesTw5agjCtFnzLxTXnkYr2qNLL4pvvVX1ZWvgvwymfihjnzF2GP7zpQ25VDLJ+JnnLn/0ro0kOqXiTX7nMVmPpv+eV80rxaHf4HApybwI6jjJ6rSjzVqf0i+HxL3E2E8Mtkvs8xfoDpyi1+ql97GUoZHjuShcvkPKWn+rLTeVx0RFlpxfdf2kE38eNKLZvv2BWXgkS1+8IG0HrNt45IE1BF+/u9UE3hvdcwqr9kfkVem5yyea/iZsd7SnlsqDKDfHxQvtZnqjVkJIx01b4yNLweLR8WhPOotQmLV9ybdL6+0/PJKy/6oIo+6ji9luAnTY7qX1TEYdRFx474a1dmpKwjji3JlcwN1DmOT82L1ilasCHENNChF/ppKlkwcT9/UfFNMPYBxhfHpVzs0u2NNb0c085qU1IDjDlIIE+Tm56+eb/jZhO47Y52lTaaJdBnZj5HvB5TZNyuSdmhc6uX2qp1L2rejNWZddiGjFejmODTA0goYh0e2b3VG7vL5xp8Z6yx6aZHwuPU9NDv6ImmHjJLNSKb/SzX3x9wLXwsj3UMzwni81KG0sd/mzf1Fdfc3WW09Aj7dfHFR5/5DPfs8gmpxfvGuavlf06WReM8RLyiX3xU+/B/mR738N5HcFZ3dsoqw0KDCuaxrf1DO/yX/7u8lfZdDw9ybKAiLCq18kjP9J9WDdwXz/yYbmYuMExyzRni+Mw9ouyviZwvz20Mo6yjCAnjpo+nG3+bN/ZB/6zfZHYagIHefRFiwQDUvmfqTav5PuecnQtVPmJZVFlZk2RCWN2xxrBhy6KIeDCBO/gWLY6lHfPDWkVcim+7bdiaL/VoHH5k4PAAEvhACfqnjqGZFL2/LTqxS5Dy4qPu2R5xASxqujg2b3YWjyqSKrPSLHXX74+VtQmqYCw4vSI8vTI9vbar1VkeMV6Zt3L8gk1JJcVIVr011Y0muoYqfoXxjqpsvT9dkxpdJM28MaN92iGKJh1FQeJE4sUycNN6v2++Xa/BwYpk4IYsaTDFh+pKxeadNqstK0ihlj0Z1r5qTaD8F9pbgi5RvTI0PK9MqRPHFWRlfDWi/P5uTcbx8P6TMyDcrXBLCUufHdK+7Ze2SxApp1u2zzd8N5uYcbweIPWVcHUc15jZFe3ZStVJuvqT7rjuDbN+jObNOJHF1nP1dzshSXL4+qmIh5967gstjgVRzo8ghyfzfFCNfxyj1kRVzktl3SoPePa8Kbc+cfZfX28jFuCjEHcZRhMjD5boI+ZnUq+/UVxci8bAuQt4UTPU6Qh1XwwPDOORHvemx75hrVi7/MUs3FCnTRqiNoms/qMaGaQ9PTGpWLv+nRH82QlofrhxJu/ZDwc1bQVSZ2WvEviuJokckC/+tGLkTo2yNqpiVzLxTnu+m64slT8uW/p9iaDImrzWq2iy+8jsPdWRlhTMJqPrK7ritjWHp2whLObPosFwqZHnG161AzbTNfqeKIee+noTrQODkEvBLHU2lLcEuwQvOLfreVKandIhYO+oWFK75NQpKXzbp5mTuJQJJKqNM46WOGIcXkJnvNNVeTMBTRhhXUV23f0Emo0YiToAgPIjP4/AC+XwBnx8iVX9vKm6klhdEFJ/7f2klVfujyiJKPEKlhd8yyszeeGnFVfuX8vKpYvCEUWXi6DjGrJnF0vghZaZLdSir+ILy/fGimkBXK3AScm2mhsuprn/puOyBQ1PG1ZEBJ1ZVvm8qbWaMgyz1Zc8OV4uln9OWRr7mO/Xymxiq5wQ1/ko9+zicWtPz1LaCpZ/FUgqHcXi8fIty+V9SxQnhvX9U33kspHogmSm7ZZW5rCx8+D8e6siP5IWEYRwBqZ3cwhcFSy+jBS6Sgob/pb63Eka1PhZVFCEv4VMdib1G7OoY1PhrZn25aptq2Q0nSPsb9f2nQoqGoP7v1QyvnCNZIUHdDbtjqj6CpUUQFt8659gylrA8w7xFnN8ICRSEhESmV05svFjoTqKxsM6KmIlAGAicIAJ+qeOInBYtlCR7ZaodjnONJoQ6NhiTqX+xuCsj2hV1mBeRQ8dl0rj6opwwl2FRY8O6XcqsSkyHI1obK16NuwyzhO20opMxerKM2qXapv1ucQIhqwI+X5CQs2Wqu5R4LC0JxNesDau1Wc3Z8XnxwoMeeiz5ogD/y0wTO5RVXk39/tkcETU8IYzL4fIOOqTQiRwaODRlYu2oUNApi/J+bqrqp+yB7LOQQ3OhL+JqMbvktjRKzQXLv0qgek5431/Ulyf49Aov7ZZ8+d9SRO42QlhM1Nl/L5j+vXzpj+nSKDpZMsCujur71lhRaSj5qXcw1REFKmJ695ULbtssU4c4+Mryzzkdpph8bWhqNo+SKzJT9hqxqyNeX9NlepGKkj3qK+z+L/WNm7R/GcpbZ64dj2b1SdQRV9Od3Tc2u/3RdL+MYX/2agv4FwicDgJ+qqOcHj2TZN+Yai/EU3JI7DuOJbkHtUMxHTouI9K4ejYnHeMSKltnpMyqCOPhS8lxzdW8+LykaHlStLyo+HvTcdWxsrmZ3o907XqaGsZTjigkWXKEBcry8+Z6NS/H8ER+Yay5q4xwW8DwZe7ha9YPLDPN7VBWqtqGfQIU/ZgfgUNTJvcd3e2brnxr0vRHuVn5qu+RBfBSCyRZVS3/OpFSx0jD3w6s8P6cSu0cuxLPeqBcfqeengk+4Gl5hDr6ONGBsMDQ9j+oF36dVtbo0s66b5g6ROw7Psoy/S5v7q/4onP+nzMr8uitcfYaed314hNp+Jt6YtytjknTimV3fXF1vD7pVkfPEx1HskKC2utHrx0T9POOTWOxV8F8/YuwwMg0WbZEJlXW9M9Yn31VHU4NAr6iwHUgcKIJ+KmOnmvHmiFqjCO9cvxTR8q4qhmI4orLqvcvyuXUIIiwyJEh3V5jPL084ogLjq+O+NqxX1ZEyqrrb1Q8ZZY8ZvshjBcYLCyqqvjucknTMSyNH1hmulSHahi+djzn2v6kn3zfwKEp/1jqiK+HvronpFd4eEDNZ3Lm5SVe+2v++Ouchf8r0WTTEkXW2l91VKXcepffq3WnpthgqiONFGF8Tmh2uP6XBYuvaWuwl/556b23V06gRKjuCqVW4YetHf+YnO6ahRy9dmRnxSkd33Hca0umy38wgDBxr9nx5Lz84K0jrwRWTdvstysF7jnTkVHgASBw4gj4pY7MfUdp4YF9x3q/1ZE0rj4pjDcYcLMqrYUIE54d1L1tTiIXbQjjSSqq973XjgGNevy8Y/CBKS2+7zgkk9BaGySUp0TFUrtH7G2WmCUZLYyPpNJEibl2U825WPe4gLDD8/3AMtOlOlTDEtQV++NFtZTAE/uOjR9t33FEzrp2PLy+dIF9BY7QksZfqW/dC6HbKEQSKi7gU5ZM/LB/8z8ULHwbFyMIavz7goXv4uM8TtYjLCT6wjv1yNmDx/sIr5zDvw0AYTmJN96pDHpSHREWGNLyj0zLamDeZEptA/39Eih9Jm/5n5Io0wh7jYgTHc4Y+kRH9rJy+Q/J1IkOr71DrtqqWn4bG+rqV0fvO/pmRVi/U9sfOLauVtFr04ONgoTa6R3HdKO3jfrgkwevCBvv2exTJVTrHHwArgCBU0DAL3Uc0ay0MX1WMz19Vn2qY3hMXCHtszpW1E2EC5OFtJ6RxtVfDFSum+qNyUzHel52ueYXE7WzJWkV4iR9RfFDg+ZbT3V0nUYwlo1KSZ/VeBG98iB8Vrd02VpxQnmueHKg8fvzuTnUQMzeipGyom9NdfdL08pF8cXitNGuhv1RVbHnuICvtw7ki7APKjM7KyRMW/D0Wf3+rCz3eHrPnvKRa0c2zqzeGexaQvis/kV+9kaMoimi8LLo2v8pmJ4Job2fUm7JHvw1p0aCYVwUoEq+8beCy5cFni2Ipz/3bUphK+GzWh9E+/v4/q4chPGDdb9VP/gXceNAhOJMbMtLyfXfqhj+L7zi3YKlfxU3DeA+q4qzyeN/Vs8+C6d8wY6oUWhb5uw75cRSnKo1suiGePqvqitX6W8DQFHDuI/uxVvReS1R5Xcld98pz3a4LfbJt1w+q4rWyGpz1rV/Ya5oj2BFtEJql9lmndfGuV8iZj9HWEBq5yOr7X49w2bOfIA9nNJltlmMudSUkf1huAsETigBv9TxgqwyQ7p0vuHnPs47+lo7lmm99/9w55qh3CzGa0Z4rur2LyposypJFvGEtdUlmyPab8dqn+gycyTK7w6oIxJE97ZqXo/jueyb3CKNMK4wQXS1U/PS2ISfDmyWFFJn+I5sNoSFFJWqnw41/hw/79iw3Z3fnujtgusz3w8o85GswuLTJto1O5fwGj1ukRQfu0bsKR9HHX3Vlx3mEVqC8Xhpw2n4+b+/qGb/OccwKYxycUa8AlwOr16npQVLvytf+gsplnSmKLgkYejXyoX/JrxS/5326GFZOxLeXtlR7W/kMz8UzP1v6aAxRGX20CFOSrh2Szr9nwX4ecc/KS4/iUt3L7bYa4RxeNzEvtSRXynu/aC6+/ucgYlQoXu9i59ZTL/oOu94+zfZZwaCGIZKhIUI1IuSqf9Qzf9ZNjIVVuzxTXJ4XB+s3DRCC8eeOjbnh3PD3ceRybsIC4wuNi7ZXi0OSN16zDqzoZMlA5JzFtvqYBrjtfV6AP4FAqeAgF/qeNF90OIUIIAqAIFTSSAgTXf9yTfWjRWTXuY+Vxqm7Jg0W+wvl4zVMcczNhyEE6dftFkXuxWJofhXGLh3GQ4+CVeAwMkl4Jc6MvalTm7NoeRA4PQTCBGVdE5MX6pzH6SJbxqfMraoU2i99AMCEkj10xtbdocNfqPjfdbcfqCGKD8iAVDHwzdmfsQmgayBwJdPAGGBQdGp6dnpB08Af/mFhxICgeMQeG91PE6i8AwQAAJAAAgAgRNNANQR1o5AAAgAASAABLwJgDp6EznRkx0oPBAAAkAACHwUAqCOoI5AAAgAASAABLwJHFcdI6PjP4oaQyJAAAgAASAABL58AqCO3vOFL7/NoIRAAAgAASDwqQmAOoI6AgEgAASAABDwJgDq6E3kU89HIH0gAASAABD48gmAOoI6AgEgAASAABDwJgDq6E3ky5/RQAmBABAAAkDgUxMAdQR1BAJAwAeBkGSpNJXlRyI/9fAE6b8vARQikkoSAj1/3O19E4HnSQKgjj7GBfhyYSDwEyaAOBES/fWlzde2u61C+BWOk9MTUGLnvP312sJErSgURO4DCfxU1BFhPHGOxJATSf/O+weCOxHRU9Pae8VZggOjW3TOHWf/5VLqt4VRwrkdw1J/5Ef4KaK43LvOvvFi31NXQXjJWc3Mepflde9jc023OsT71wePCRbFDm4bHg1Gf4QyHzPHQx9DGD+9sre9UuzrhxI5SuOG3WF7djH7QCscmuChF1HhlW37g+YYj8oeM+VD49K5HHoXYUL5kPnFjmWyqzQpzP2blBiHd6yeEztgMVid/WNqzyojjBceqzXWLzzvfv6q++F8ab2I8Svix0rZh0qhhHM2g/XtoI3+OPvGS6junayYeztosxUryFqj8Daz4fFwrBsmS5+MzrlDp/mmb22t4bwm3P3zrty08Tee+b4dtH0txmUJYTFtTda9ge1lWQLxb6xeu+notz5RppPFYImLcXgsZUb86rsHMn07aHM2tURjXIQFhomq+ma2bFuLbZlBdENDwA8CPx115De36/bb0w5KhR/UTkQUhMW2N1tfVxRhnoMUxuHlFT9ztnYmU9eFkmmn4ZrG31/7Y9JQla459Z0pVMrMW3g4tOZu9/ZWw2BLenGFZHCx2+poaIz29bCPoZBMM1h8w2m4Uct3j3HeebFG/1gPIyykesphm2rw9YNQGf3PbBvba/bVtiT/i3qohh0z5UPj0tU/9C5fMfbYvjOlTTn4241H9hyEBRaWPdvrerZjmGoI9KgyP6bb3L+5VtVZn1ZcozBt9Fs3i2R0FkemTJf5kEBwhipRqUrpWzZYzcXleDg+OZjoVwjjFZdb9gzbzubWGOIKJ9XoMExr6bKx9km8VG2jdYlKVaKqVNxzr2t7r61fTE3+khVzzu5rbfhd+qNII1JGmNzYvbXauuhS5eiejc6Z5Y7t6QyXYrHGZSsz4sVLyexSeh8YrKuFpa7cI92/y434GWfuv7QuDaRSRT0E2md5QU50vqCOp9ayijDlRI91VZHs1UERJtQ1WB2aUnq5Iyt67GzvF/ulUszEERap11rfaMrplD3vBqhKnzr1/WJqUp+uXHAOmMr9eoHFqofOjkHJB5eZWUI/wuzqiLC4lvuOJxeGjduvp+oj/EifjHJQw46f8sG4zGIcvIuw0Irru7aHhwysx+k5SFB5p397rvDcqmGhJ9ytjggLrtI8f6NtIidDCAus0mw5W9sTXBr2Efokiux4ang+kezxRiMsrqPZ+qR59lX/eDHR8RLks86uIZkrX7Y+SdZ3r7qC7s/C7Jt7hsWeCLxepO46tc2Rh3VCFNQwb1gdK77mrKsRYIKi8qerhYNzhpVzhLXjiLisZaabj1gEW4yJbsj0LYzD40kvmu3bF5TulS7zLoSPQ+DEqCOKl9pM9cashJGOmjfGxpeDxaPiULrXIowrjE+/2qHZHWt6O6KZ16SkUkYblCJ/bdL98koL87Nvar4pdvUquaZ2fyg3i+riKF351qTpj3LdZc83q7xmf0RenZG7fL7xZ8Y6i15aJPR4OVnaAGG5xi7rmqqkomh6vdvysnPxTr4inCoG/vpxY1Vy47x+dbf/ua3ttjE7I4i6i/iF17usO+WFpMcE4mWebd16revM5HIRxiupeE6bg+iAs2tYTkRHmGSk023hQZiwqd7qrKuhE8cCpWeq7r3otdhax2tSzpgNG8w3kBuq6tfMWrotbwxb33QtzhQWxVHyhrDcsW7rhrr00BohTHKxw7quEtNMAsMVFekSeu2IuHEFcuOC3rzbt77ZenM4PYlpBkeCrNay22tdlm+6FqZzsuo0L5z1dSE0EN+s6OwODSAsML5keOrhc8uL7aVpg6LuyrZ9QUsZbBHGC81sunDbbH6+a1kz3zhbnUitOVDuxWd2x87uG+bHZn81VugerVBI3Y2dV1cqk5tmHJsTHpMGUe9T29rFkoLzt1atzzct85ODyhi3DRNhgoTyi9OPtixbW/PXzmRVml54WlZZUmaPy36XGPTzhi2OFUPOQVxH9xwOL1b69V7/zfrwujnDs0sJDBRY1vAZ6waj9Xn8iAhBMOeYffIYCx1u2rjDMNcR5s6UqA4+R7yr7HxgWOojVE1dtuHUNkVQ+bL0SbK+loIsGgU3bXzPMN9NqD7CYs80W3fLVPRdZgDFDVoNM3rRoFXfnSaonu2+UZM+tGOYrCOsHUfEJea1vspM50IsgmfbQj3qS99FnPwLFsdSj/t1o2+Fqo2PXrzcWDwn+bFNL3SRvszAyVLHhs3uwlFlUkVW+sWOuv3x8jYh1TOE6UvG5p02qS4rSaOUPRrVvWpOIr0JUFB4kTixTJw03q/b75dr8HBimTghK8QV9xjq6DNfXB1HNeY2RXt2UrVSbr6k+647g5wOH9neSFA3Z7A+0129nlddllbVV7u6Z3gyluAaIhEWXly+utc1Y5RVlaVWdlYuOgxPxxMFdLIpint7/bebQ7gICysofbjXdb02FBdmhPGjowk7j2LSYXg4IaZsPrEJLinlV88atu9kxwgDw4mP0thp3SqUkikjLKlNa3lz5oZBXFqRff62bumlYUZPvYEIEw3ot3abhxpTZNI4RYXyptWwOZke7IpL1GjNV40Ca+8btm9luh6mK0LlG16C13d2LLeiLE3TW7OyZ1gaiHJNNRAW31y/sdd5azinrDStdqjhzrM2q7VIRsdlZ+WVF/NfTmrP/M7r1ZsD1SWlZS3jN5Y3rAx1xGKaprdemacGa0rKSrTDtzccTyfKQ8mBNUyUV1hSUFh5dt5hm79YgodLCgqL0xnbt9yCCQuhapkDa7a1EebWI66OG+avb17SlpWVaC/OWBxbM/pYSuy56f2LO988utarKcZLdW3OvOmpjiwps8dlv4v3n4Cqr+yO29oYJiUXZ9aeQ/S9NIPe+k1VWRCnZHLAOp3hXrggLLpVu+08M9EYHUlPauks0FEp00+yBJLk95394yXUXM1V5mDtosFiTMy91LV9OzMEYTF6rdVemu+6y94n8VJZZ7PDXQ9jgapSs7PrYh6RBWmbeaRIEwQEUx8BXbXQrElnv7EoWLvQb2xXzG2V5CVI7zg7BnNcqoxrtq+4iLXMNAF8Edxn9Nrcpe8iLOXMosNyqZC+Qgei6+9u2h02y/VCagykb0GASeBkqaNuQeGSBxSUvmzSzclcr19aSdX+qLKI2jkLlRZ+ayrTM9oeYT73HY+hjj7zxdWRkVGsqnzfVNocRGk264QXxRpeGLbmc+LIfUEU2rzMfBWjutcNjy8nuRzPEEd1tde6lp9JNx7iq6/jS8/MaJHJOvDwUqKQvkUGIiXTzoGrFZQZk76LYvqeH9jVv0cNAdykCzuGh0OxuEgjjKcuW3f2XSqgRm3CeOVeEyAsJiulMDeMahSiRnM5roHVu0axA1uUZYkuDB1AEe1PDGvX0qj6BmsXDNb7Epc1EkX3bBiejie59myIYljnJa6NFnQUKzqXg4HEM49sm9cKqEl0YvuyjaGOyR0rto2JPOpuSOXU5s79eob+sVtWswbXbU+HxRiXW3hl025uS3Z3DFwdd+bqidUM7u2im7fZZ6updU9Kl9lmMSkp+0fimYc2T3VkSZk9LvtdvNEFdTfsjkPtwOw9B7fmJZzfNqybkgNJK8KD3DgmcH6UbqZjy2nYftl+97qqOlPgtrIcmTIznUPDLlvlgT1vlDC0Y7h/JiykoW57q1BKbAdal2Su31RA7H0Sf1PWx1Nw8QsSJMhzTJaBzQVpsuuFxTXM0xXIcK2aajKJesWp70rFVFd613a653sieAWl686GhjBSHVnjspeZrj6+CG5p8zUXR1h865xjy1hCP08HEBYYEpMYGeynQxydzqkPnCx1bDBS4wvC4q6MaFfUYWQLlWqb9rvFCXy+gPwk5GyZ6i4xLPIfpo4+8yXWjgoFLR6ivJ+bqo7p/En4ldzRUVKKQnXLhq3raa61I75p33OpiE9OS0OjYntWDC/uZHpIYLL83l73g2ddlkV5Oj1ppbusvOiJs70vgyobfT0w86s9w53+xFxZPPHJMe0Y1kYpI5go/4Gz85yUfIcJjwanTh9HJYLC9WbD9vO6AX1WWWGCOC7QbQzEOLwg8XWn4TY9OUChLQ8ZNQrC/WhcliW6MHQgWnrH2W+itRyFND0wbE+JXLOfONmMs4/hZIvvMK3T9t7jsKIz8grkDm/ZHg7QDkqo+Cpz7Vhg3LXNnokVhASSH/HAkv35QLZb5FjUEWGJ+nnHlgnftUJh2lt2x1RDJJ07sXa8RO+bovzxTfuKnuqxipFt21JfIoUdw0vl9lllT5k9LvtddnVk7zkIC66o2nB2Dslw835yX6vVos6m60sGEDc6K61hoGza0m993XJGRK3z2FP2SuTQf0kfNOYeIfkY7nHWjztRZ+QvObXacEHDvGHTlOISZvY+SZTKrX/Ovoe3Fbmk5QAHlXB+x/BgNC1HGkt/EklTP8IEtTXbe9VVfCypp9X6uq5GSLiwWovlLg6+42IcHnuZXSkQi2BHVQlpmj7IhEUdDz4MVw4lcLLUsX7Mh+NfZXMzc1vxl1da9k0N4ynMUexD1o4+8yX3Hcn9PPyF8dyzPJQ4fTFL9dDZ7fIOwOMmXdg1LPa6Nvz5FVVb9JYh7q5t2NqubxF5LgQFicNbBquzvS+THkap1SrCwrT4bmL1QR9dfJhg+LMEZl5zGr5uDcZZIYxfhe/nNbiMh4R3ANPrFWGhOdLRudZVe982Xqr+xzM56bTboXeNEt01wji87IJHzHxpDmQgv+QZMdd2NRkx9Dw0ULu/BWXrzpYzSVQ1uWlGh2GWtPci7FisvLKj/5VdeOGhjvjZCfe+Y9HEK+a24s7uG5v9xdlcZr/y6bOKwhqmdhx3dPFcHp/Ly+YmNM0AAA0jSURBVOx+5NgklJLMmtx3pG2tSGm0MPxa80attge9tDp6+c6wp8wel/0u3gcEtdd9rB1Zeg4eMahurt+6oZbwuHwuN6Klweo4zF+arH6YyLRrMA9RxyrYU6YbiyWAMMV4j3VD5TaukA/nFpmdrR3JGJeXNu7oHS3AF4vzndSODHufxEvVc0WHi1/DVLcV1zaqB1IaNlHm+UqSmSIsfbDNusHYsCSLN0+ZVQj9OzwuxuGxl5nKQmbstj5WpvligrAE/bxj01js6wG4fiSBU6KO+NqxX1aUFC13f6LiKQcKctz3daJDWlW7Pyxzz+Lx9V8l6ZaGRyS8gXypst/qiLDAmuptZ6OWPmodlXPbOWCqIIzDCEvsabW+qm2hpqXZImEE00UFb9fg0snOF4/rprcMqyPx7g0esskRlnWhw7pZ6O1bQejflrO+np4C44vFnov5xGuPsOTeVutOCXUyjKu+1nuI1yuOhSMQhmXra9cYC032GgVWV287Gxrp+mKh0qqMvCRicEFYuK7Bypz4h+NT/quVLhqEK2xVKS3D+A4TZe89Fitq0nDwfUjvfWJbH6VbP7RhhmlZxdeO80NKiSzb/ZHEeFjsfaojr+jqpqfbDjMjdnVkX+Gxp8wel/0u0bKl4zuOe20HXZ35uJepj56DH9GT32PO5/DJE21I5CXmZ2ryGScFUUTnM+rQIXufPNhkh15BhCn+DnHWkH4AYaGNddY3hHs2CtOvGOZ78yb2qJO+CGPvk0R9CZdUhPELy9acHWdJmwqZPq5h+u50hl668+WVTg9YyYOP5EWieJbxJNealS0ua5ndWeCLYLdxhb5OBxAm7jU7npx3rVbp6xA4PoFToo74vuOQTEIZalCQUJ4SFUttQxLqGNCox887kqegmIAilaX7l0toe2BiYcX+ZTV9+O+TqSPuv0DrEHEG8alT353mUqmMc+3uuSrCeBGRsrzoWNp8irjp3U2WV83t6dykrpZtR0NjlOdbingVtw3WuRy3KY+sMmnyclt4sICKqi36KBjCpKNd1t3yQjIjYfrEjmH7BmXsRVhiiaJbl+ByUsA4PHyxSBlvEXawRs8YNRI2N1idWh1ZToQF5ZesOtsHyGMkpMLRR0EQFtFYt/mmvt7lV0WYp15RCxHESerWbdP2XoQdwcrV1rFVF75enBoscsszIZl81eU1u+1WV0FCRGS0uO7CvJVpWcX3Hc1DGXS/CkuV5GZHU9uQRL8Kqpp02KYb3R6/lBJLzllszyer0zNTiY+oeXrLbm6ntgbY1ZF9d5A9Zfa47HeJGqW2P3BsXa3y+gK5I3oOJ+tCu9XRoJdGikTER1O26m59wl3rkTyR6oT8jPx5Z49R7Zr94GZYX32S+aqyhFH8ORslt/RjCMscarc+zRcR9VKMd7940HSPPo+LMPY+iZfKXqokUwtINb40rA7F0m5iIQ211r3aai9K5MPEJrrHFw4Q31dwr53wbkMYa1zWMrurhvvEuo0r9HU6gITa6R3HdKP7ECR9CwLHJHBK1BEjfFa3dNlacUJ5rnhyoPH787k51KBGssDXecayUSnpsxovojf8QlLmLuledctas5JqVMp1o26nPp4e7D6VOnJLbvZbaUuL18kqhAWqy546e+fGpWXFKaVN+V9t9FnuSyhXAkyoLnu013W9hnBSDU2f2DWYRxM8lo+IWzrVZ93U6IrJg8PRMS7XeU7R9T7rgpRynMESu1usr8rVLkcDLLq18YWzf+VuUWdf4bVnrbfmO62W2p7mBPx5hInOtlkdrSONyTJpnLw4+/zDnq3HygxXXNYaYRyeSLm4Z3g8q6otTyvXF31tMzydyqCLwc8veeLse3BNVl6aWtVZPveyf3EoLoRsOIQFlVWuO3vnjDmlJWk1A5rptU6ro7KYKjMbK/o1iG9bIuyiM9WU/y2VeGzB0NIGscizWub1PZNMdSR8Vl8uXenRFBWrNWcuLexsr57P9DSm4Tq3Od9fVUr4rBakEJ41pMcgU2NIcyg9WrGrI1c08ID0WS0qLW0Zv764Rn9XzpEps8TFODz2uyST1C6zzTqvjXN7zeCtz9pz+MmjO54+1fhWcc9FJWWT6GndcnbPGnMrStMq9EV3rAPrs5Jk0hjAnjLdgocGEBacEIt7ZZeoZ52GxTERHhaHUI7fvMo7hu3pDNxrjNTCvYFtehJ2RJ8k6rsojXX1E17RjT635ZbU3Z2aVsb3AChVsfGkWJJfONAocFvghdnTuAsrMSKxx0VHlZksT0jWpNNwo4ZyAvKCg7CA1M5HVtv9empvgvkAwpTDFodtRk8ea2HegjCTwClRR/y8Y4LoaqfmpbHp7WiNuVlSeODcIRJE97ZqXo/jO5T7Jo+txNA4/KzkS6P2zXDV/crkZOai8xNZVvGvs7KMU14YCMsZ7fQ4C4j4osbS6Wedlte9TzeaTecy0shvY0FYQJJkatewYkx0eSQhjniozepo1NIHB4mxIDAjx/S4e3OPcKvbpV3Yw/SrBgt9Yhph+aZe64rcbUbjRzVMta697nv2pM5QFhYslk9v9W/Ts/6wuNbJ5pWd/m1nv8XaPntDWRBLTUHIs8lsNeImlKlvmDvWX/U+Xmua6EtNYs67EV+kLb211mV51bP6pOGiPj6a6W7ACSkYql/a6bNY9TfPpdSYeqzmvFS6H/tiRT+Au1Nmdc9s7Dyebk2kCkzfRRiPL0xJFaVFCHio+BrTsoqfdxQ3X7hjfry5a9l4+vVEbx7hzUvHxVGH5OqvrT7bfk2o7/MBCbGDG6a9tfP6Zp37GwDI8/ubV1xHy9nVEWFBiZUjt1a2LC9eLN7sy612f5Mc7uDDmjJLXKJj+EyZrhQKLRx76ticH84Nd7s1It89B2HC2prne60e35EUkHGVOXzzQhTdVXfXOy2veh6vNZkG0lLoHXHWlHk8Hn1eghHg8am5Ud7lHrfjDLFD/9xEfSEAiuxeN6ycpU6vStQrbwdtHo7fvvskWarxRHqxGFRZ9dyp7yFNqaRtxsuSvFddSW5/4GctGC4FGIcnLVylN87Z4x5ZZrKZJAUrzjMGet+abjvy3Y8uNi7ZXi0OSGlrk8cDUa1f2w8/0sp8DMInRh2hqYDAZyAQrp217UyXMXasP0OmX2AWAWm660++sW6smPQyX1+S9xmKjbDsCx0e4kcKkrPZfTb0MxTjBGWBwpQdk2aL/eWSsTqGMcv3qALuAvbSWORhbfJ4gNod+IlfBHX0MB/9xHvDT7P6vJjsPGVBnlJdoOmbfOqwTDce+t1gPzk4IaKSzonpS3W0A9fnJ4CwsCT3eQn64ESONCKCXDt+/iJ94Tmi+KbxKWOLOoVlThPbumizzzcyju1+4ZX6sYoH6gjq+FMnEK6dJYyir7c21mdNXTkRP3UgP9ZgBPl+BgII46mMOzbzeZGnH99nyPrEZQHqCEMhEAACQAAIAAFvAqCO3kRO3AQHCgwEgAAQAAIfnQCoI6gjEAACQAAIAAFvAqCO3kQ++gQEEgQCQAAIAIETR+C46njiKgYFBgJAAAgAASDgNwFQR1g7AgEgAASAABDwJgDq6E3E74kGRAQCQAAIAIFTQwDUEdQRCAABIAAEgIA3AVBHbyKnZuIDFQECQAAIAAG/CYA6gjoCASAABIAAEPAmAOroTcTviQZEBAJAAAgAgVND4P3VMSAoIAAUBQgAASAABIDAaSbw3uqY2P7QZn/5bHm6RxUHX5N/amZJUBEgAASAABBgEnhvdQyIzpTkVbVPWWzWuxqh+8evmYlCGAgAASAABIDAiSbw3upI1hbJRtbsT7vSQR1Ps2HhRPdsKDwQAAJA4EMI+KmO/Mopq322OgzUEdQRCAABIAAETiEBP9Uxtcds27gkgd/P5JzCPvEhsy2ICwSAABA4HQT8VMf8MbttvjMW1BHUEQgAASAABE4jAT/VMV7/4IXltjYzLjQ4JFAQEsADEyssIoEAEAACQOD0EPBTHREnvuzy0y27Y2f3zc7um6n6iNOxlIZaAAEgAASAABDAODw/1TG8anrD+mi4rlgmlWVLZMkRfKAJBIAAEAACQODUEPBTHVVGu22uIwb2HU+jtf3UdG6oCBAAAkDAbwJ+qqN4YN32ZFgM6gjqCASAABAAAqeRgJ/qGFJ7x2a/XSkAZ5zTswXt9wwLIgIBIAAETh8BP9URyS+t2x93pII6gjoCASAABIDAKSTw/uoYEBQkTMk/92jbvtgUA+p4CvvE6ZsDQo2AABAAAu9L4L3VMbH94c7uG5vVMqnPCYR9x9NobX/fPgTPAwEgAAROH4H3VseA6MysTFF0SMDpYwE1AgJAAAgAASBAEnhvdQRwQAAIAAEgAAROPQFQR9g4BAJAAAgAASDgTQDU0ZvIqZ8QQQWBABAAAkDgSAKgjqCOQAAIAAEgAAS8CYA6ehM5ckIBDwABIAAEgMCpJwDqCOoIBIAAEAACQMCbAKijN5FTPyGCCgIBIAAEgMCRBP4/+C633hBCIEUAAAAASUVORK5CYII=;" vertex="1" parent="1">
          <mxGeometry x="350" y="630" width="357" height="52.93" as="geometry" />
        </mxCell>
        <mxCell id="SrGXdIxv8m8EbybLDBXi-29" style="edgeStyle=orthogonalEdgeStyle;rounded=0;orthogonalLoop=1;jettySize=auto;html=1;entryX=0.525;entryY=-0.063;entryDx=0;entryDy=0;entryPerimeter=0;curved=1;exitX=0.916;exitY=0.971;exitDx=0;exitDy=0;exitPerimeter=0;" edge="1" parent="1" source="SrGXdIxv8m8EbybLDBXi-16" target="SrGXdIxv8m8EbybLDBXi-28">
          <mxGeometry relative="1" as="geometry" />
        </mxCell>
        <mxCell id="SrGXdIxv8m8EbybLDBXi-30" value="&lt;font style=&quot;font-size: 16px;&quot;&gt;内部用到了CAS 每次根据 increase增量获得一个唯一值&lt;/font&gt;" style="text;html=1;align=center;verticalAlign=middle;resizable=0;points=[];autosize=1;strokeColor=none;fillColor=none;" vertex="1" parent="1">
          <mxGeometry x="340" y="690" width="410" height="30" as="geometry" />
        </mxCell>
      </root>
    </mxGraphModel>
  </diagram>
</mxfile>
